<svg width="368" height="418" viewBox="0 0 368 418" fill="none" xmlns="http://www.w3.org/2000/svg">
<path d="M-122.663 123.843C-102.466 133.365 -81.2157 140.259 -60.1817 147.665C-37.7697 155.556 -13.9626 158.493 8.00868 167.711C40.5791 181.376 79.0266 199.204 93.2709 234.056C107.53 268.945 103.055 308.299 104.332 345.042C105.216 370.49 109.237 396.488 114.152 421.445C117.23 437.071 124.284 448.161 134.519 460.238C147.747 475.848 166.752 494.007 188.015 497.304C196.352 498.596 204.589 499.773 212.993 500.628" stroke="url(#paint0_linear_3279_3631)" stroke-opacity="0.5" stroke-width="10" stroke-linecap="round"/>
<path d="M-89.4234 95.906C-69.2778 105.422 -48.081 112.311 -27.1002 119.712C-4.74476 127.597 19.0035 130.528 40.919 139.74C73.4066 153.397 111.756 171.214 125.957 206.063C140.172 240.946 135.699 280.301 136.963 317.043C137.839 342.49 141.843 368.486 146.741 393.441C149.807 409.066 156.841 420.154 167.048 432.229C180.24 447.834 199.194 465.988 220.405 469.28C228.721 470.57 236.937 471.745 245.321 472.597" stroke="url(#paint1_linear_3279_3631)" stroke-opacity="0.5" stroke-width="10" stroke-linecap="round"/>
<path d="M-60.1117 70.3323C-39.7183 79.9744 -18.2603 86.953 2.97899 94.4508C25.6098 102.44 49.6512 105.407 71.8365 114.741C104.724 128.577 143.545 146.63 157.918 181.945C172.305 217.295 167.772 257.179 169.048 294.414C169.932 320.203 173.982 346.548 178.938 371.838C182.041 387.672 189.16 398.908 199.492 411.143C212.845 426.957 232.032 445.353 253.504 448.686C261.923 449.993 270.24 451.183 278.727 452.046" stroke="url(#paint2_linear_3279_3631)" stroke-opacity="0.5" stroke-width="10" stroke-linecap="round"/>
<defs>
<linearGradient id="paint0_linear_3279_3631" x1="230.237" y1="331.056" x2="-139.907" y2="293.415" gradientUnits="userSpaceOnUse">
<stop stop-color="#B2E7E7"/>
<stop offset="1" stop-color="#FFEEFE"/>
</linearGradient>
<linearGradient id="paint1_linear_3279_3631" x1="262.565" y1="303.025" x2="-106.668" y2="265.477" gradientUnits="userSpaceOnUse">
<stop stop-color="#B2E7E7"/>
<stop offset="1" stop-color="#FFEEFE"/>
</linearGradient>
<linearGradient id="paint2_linear_3279_3631" x1="296.203" y1="280.194" x2="-77.5877" y2="242.182" gradientUnits="userSpaceOnUse">
<stop stop-color="#B2E7E7"/>
<stop offset="1" stop-color="#FFEEFE"/>
</linearGradient>
</defs>
</svg>
