<svg width="141" height="118" viewBox="0 0 141 118" fill="none" xmlns="http://www.w3.org/2000/svg">
<g opacity="0.4">
<path d="M10 30C8.65859 36.7578 7.53708 42.7907 6.17368 48.9515C5.90979 50.188 5.14012 51.936 3.62278 52C1.77559 52 1.26981 50.1453 0.654081 48.8023C-1.76486 43.6647 2.78715 33.8372 10 30Z" fill="#BCA28E"/>
<path d="M88.8857 70.8138C85.1599 65.1622 87.1 54.8713 93.4272 50C92.1044 57.5706 96.2491 64.7615 92.1045 71.6573C90.6935 72.6273 89.9219 71.2777 88.8857 70.8138Z" fill="#DC8C73"/>
<path d="M107.026 69.9072C109.081 66.2365 108.876 61.2863 113.377 59C114.713 61.7897 113.377 64.6634 113.768 67.3902C113.768 70.2009 114.631 73.0325 113.028 75.7803C111.425 78.5281 110.315 78.8217 108.506 76.1159C107.392 74.2538 106.874 72.0835 107.026 69.9072Z" fill="#ECC889"/>
<path d="M131.008 79C131.799 85.0663 133.49 91.1327 129.12 96.7307C127.759 98.4549 126.771 98.391 125.563 96.7307C125.003 96.1719 124.576 95.5016 124.311 94.7664C124.045 94.0313 123.948 93.2489 124.026 92.4737C124.957 87.4214 127.383 82.7403 131.008 79Z" fill="#DC8C73"/>
<path d="M16.8538 55C18.3821 59.7607 18.3821 64.8647 16.8538 69.6253C16.2553 71.443 14.5454 73.407 12.579 72.9265C11.6033 72.5143 10.8196 71.7616 10.381 70.8151C9.94233 69.8687 9.88013 68.7965 10.2065 67.8076C11.2066 63.0327 13.5026 58.6089 16.8538 55Z" fill="#ECC889"/>
<path d="M97 94.1898C96.0958 97.5138 97.4521 101.456 94.395 104.332C93.5123 105.163 92.6297 106.293 91.1873 105.93C89.7449 105.568 89.2712 104.119 89.0344 102.713C88.5823 100.092 92.6943 90.8444 94.9117 89.3955C96.225 88.5645 96.6986 89.1185 96.8278 90.3544C96.9569 91.5902 96.9354 92.8261 97 94.1898Z" fill="#BCA28E"/>
<path d="M60 62.3783C60.438 56.8004 62.5202 51.4623 65.9986 47C69.2184 52.1332 68.4025 60.71 64.6313 64.5385C61.8746 66.2282 61.6981 62.7632 60 62.3783Z" fill="#DC8C73"/>
<path d="M74.6993 102C76.1696 105.366 75.969 109.086 77.5062 112.39C78.3082 114.198 78.4195 117.211 75.6126 117.876C72.8057 118.541 71.1572 116.422 70.3329 114.053C69.7911 111.864 69.9125 109.577 70.6836 107.449C71.4546 105.32 72.845 103.434 74.6993 102Z" fill="#BCA28E"/>
<path d="M12.474 6.83141C12.6607 9.87872 12.6607 12.9349 12.474 15.9823C12.1117 18.5254 10.8329 21.6119 7.95558 20.8946C7.35256 20.6588 6.80493 20.2963 6.34828 19.8305C5.89162 19.3648 5.53617 18.8063 5.30501 18.1913C5.07385 17.5763 4.97215 16.9186 5.00653 16.2609C5.0409 15.6032 5.21057 14.9602 5.50453 14.3738C6.34775 11.3713 7.89908 8.62505 10.023 6.37496C10.705 5.76635 11.3018 4.57088 12.4527 5.15775C13.6036 5.74462 12.6019 7.04877 12.474 6.83141Z" fill="#DC8C73"/>
<path d="M23.3035 19C26.3911 19 25.0531 21.8743 26 23.2704C25.213 24.9773 24.8934 26.8616 25.0737 28.7316C25.0931 29.8299 24.7683 30.9068 24.1447 31.8122C23.5211 32.7176 22.6298 33.4063 21.595 33.7822C21.1743 34.0093 20.6806 34.0612 20.2217 33.9266C19.7628 33.792 19.3759 33.4818 19.1455 33.0637C18.4805 32.2135 18.0859 31.1843 18.0125 30.1085C17.9391 29.0327 18.1903 27.9597 18.7338 27.0276C20.257 24.2559 21.7803 21.628 23.3035 19Z" fill="#DC8C73"/>
<path d="M36 52.9591C35.3429 54.9778 35.5619 57.4522 33.7102 57.908C31.5398 58.4507 30.1859 56.4972 29.3297 54.5437C28.2346 51.9607 30.0465 45.3622 32.1372 43.6908C33.1527 42.866 33.969 42.4753 34.3274 44.2986C34.3948 44.5688 34.4415 44.8447 34.4668 45.1234C34.3753 47.8334 34.9021 50.5257 36 52.9591Z" fill="#DC8C73"/>
<path d="M74.1728 69.997C75.6949 68.6447 77.0168 68.4575 77.8379 70.7667C77.8379 73.18 78.0182 75.6141 77.9982 78.0274C78.0241 78.9886 77.7754 79.9362 77.2836 80.7508C76.7917 81.5653 76.0786 82.2103 75.2343 82.6044C74.7401 82.9451 74.1376 83.0727 73.5545 82.96C72.9713 82.8474 72.4533 82.5035 72.1099 82.0011C71.5275 81.2643 71.1567 80.372 71.0398 79.4264C70.9229 78.4808 71.0647 77.5201 71.449 76.6544C72.4504 74.4907 73.2715 72.223 74.1728 69.997Z" fill="#DC8C73"/>
<path d="M60 90.5766C58.7796 92.155 59.8032 95.1224 57.0277 94.9961C56.0391 94.9999 55.0852 94.6059 54.3559 93.8924C53.6265 93.1788 53.1749 92.198 53.0909 91.1448C52.8892 89.5091 53.0242 87.8461 53.4866 86.272C53.949 84.698 54.7277 83.251 55.7679 82.0323C56.2797 81.4431 56.9293 80.7907 57.7363 81.0643C58.5434 81.3378 58.4646 82.4111 58.4646 83.1688C58.4194 85.7333 58.9457 88.2726 60 90.5766Z" fill="#DC8C73"/>
<path d="M43 70.7946C42.8554 72.8786 42.5923 74.9526 42.2119 77.0061C41.5941 79.5853 39.5705 81.6487 37.1635 80.8105C34.7565 79.9722 34.5861 76.9417 35.5446 74.5989C36.4272 72.7004 37.5359 70.9177 38.8463 69.2901C39.6131 68.2154 40.4439 66.4959 41.9562 67.1407C43.4686 67.7855 42.7231 69.4835 43 70.7946Z" fill="#BCA28E"/>
<path d="M111.938 100C112.783 103.29 113.127 106.685 112.958 110.075C113.019 110.976 112.75 111.868 112.2 112.589C111.649 113.309 110.854 113.81 109.96 114C108.981 113.945 108.053 113.547 107.344 112.878C106.635 112.209 106.191 111.311 106.091 110.348C105.432 107.052 108.451 101.616 111.938 100Z" fill="#DC8C73"/>
<path d="M135.365 55.6689L137.855 53C140.264 55.6049 140.244 59.1492 140.932 62.352C141.337 64.2736 139.859 65.6401 138.401 66.6222C138.217 66.7714 138.005 66.8799 137.78 66.9414C137.555 67.0029 137.32 67.0162 137.089 66.9803C136.859 66.9445 136.638 66.8603 136.439 66.7328C136.24 66.6053 136.068 66.437 135.932 66.2379C135.202 65.7423 134.635 65.0208 134.309 64.1723C133.982 63.3238 133.913 62.3897 134.109 61.4979C134.951 59.6841 135.381 57.6884 135.365 55.6689Z" fill="#DC8C73"/>
<path d="M19.003 92.8757C18.9622 91.3623 19.3362 89.865 20.0877 88.5331C20.8686 87.0371 22.1051 85.645 24.0575 86.0813C26.0099 86.5176 24.4914 88.1591 24.8384 89.1772C25.4233 90.6681 25.8025 92.2258 25.9665 93.8107C25.9665 95.4729 26.4437 97.6754 23.7972 97.9663C22.7216 98.1021 21.6337 97.8242 20.7717 97.1933C19.9097 96.5623 19.3439 95.6299 19.1982 94.6002C19.0705 94.0335 19.0051 93.4555 19.003 92.8757Z" fill="#DC8C73"/>
<path d="M82.6504 32C85.183 37.2971 83.9699 47.1347 80.5221 51.0264C79.3515 52.3886 78.7982 52.2588 77.7127 51.0264C77.0556 50.3097 76.5667 49.451 76.2829 48.5148C75.999 47.5787 75.9276 46.5894 76.074 45.6212C77.3057 40.6641 79.5459 36.024 82.6504 32Z" fill="#BCA28E"/>
<path d="M108.414 31C111.116 35.8992 110.157 45.0668 107.106 48.7465C105.428 50.744 104.404 50.1132 103.227 48.5362C102.726 47.9602 102.365 47.284 102.169 46.5567C101.973 45.8293 101.947 45.069 102.093 44.3309C103.136 39.486 105.297 34.9297 108.414 31Z" fill="#BCA28E"/>
<path d="M53.7134 27C54.1675 29.6233 54.0812 32.3155 53.4599 34.9022C52.8387 37.489 51.6965 39.9126 50.1073 42.0162C48.9817 43.6465 46.5428 44.6976 45.042 43.4534C44.3693 42.639 44 41.6049 44 40.536C44 39.4671 44.3693 38.433 45.042 37.6186C47.4185 33.6663 50.3394 30.0895 53.7134 27Z" fill="#BCA28E"/>
<path d="M129.545 28C131.698 32.6363 130.79 36.8775 130.908 41.0148C130.879 41.4176 130.764 41.8084 130.572 42.1583C129.782 44.071 128.419 46.3164 126.622 45.963C125.652 45.5328 124.866 44.7421 124.415 43.7413C123.963 42.7406 123.877 41.5999 124.173 40.5367C124.987 35.966 126.829 31.6672 129.545 28Z" fill="#BCA28E"/>
<path d="M44 14.6195C43.844 16.8717 43.5411 19.111 43.0932 21.3228C43.0158 21.882 42.8296 22.4201 42.5454 22.9059C42.2612 23.3918 41.8846 23.8157 41.4374 24.1533C40.9903 24.4908 40.4814 24.7352 39.9403 24.8723C39.3992 25.0093 38.8366 25.0364 38.2851 24.9519C35.9654 24.3115 35.5436 21.4722 36.4293 19.252C37.3875 17.0969 38.5906 15.0622 40.0143 13.1892C40.6892 12.2285 41.5327 10.6915 42.8191 11.0544C44.4639 11.5454 43.8102 13.4027 44 14.6195Z" fill="#BCA28E"/>
<path d="M75 13.3674C74.8139 15.4876 74.4855 17.5913 74.0174 19.6627C73.9127 20.2205 73.7001 20.7497 73.3927 21.2172C73.0853 21.6847 72.6897 22.0805 72.2306 22.3799C71.7715 22.6793 71.2588 22.8758 70.7244 22.9573C70.19 23.0388 69.6455 23.0034 69.1246 22.8534C68.6337 22.6096 68.1996 22.2551 67.8531 21.815C67.5066 21.375 67.2561 20.8601 67.1194 20.3069C66.9827 19.7536 66.9631 19.1755 67.062 18.6134C67.1608 18.0513 67.3758 17.519 67.6916 17.054C68.7853 15.1337 70.0611 13.3351 71.4993 11.6858C72.1544 10.8665 72.9733 9.65921 74.0992 10.0904C75.5732 10.7372 74.7134 12.2894 75 13.3674Z" fill="#ECC889"/>
<path d="M64.8606 5.35147C65.1918 8.08562 64.9848 10.5091 61.9629 11.7519C61.4839 12.0014 60.9298 12.0654 60.4066 11.9317C59.8834 11.7979 59.4279 11.4758 59.1272 11.0269C57.0574 8.49988 58.1958 6.36642 59.6861 4.08797C60.7417 2.43091 61.4247 -0.406805 63.4738 0.0488856C65.8541 0.608143 64.695 3.46657 64.8606 5.35147Z" fill="#DC8C73"/>
<path d="M98.9908 23.3484C99.0268 23.8443 98.9567 24.3423 98.7853 24.8072C98.6139 25.2722 98.3455 25.6927 97.999 26.0392C97.6525 26.3857 97.2364 26.6497 96.7799 26.8126C96.3235 26.9754 95.8379 27.0332 95.3574 26.9818C93.2812 26.9818 92.3676 25.2292 92.0147 23.4339C91.724 21.9591 95.8349 16.6159 96.7485 17.022C99.2607 18.4112 98.3057 21.2538 98.9908 23.3484Z" fill="#DC8C73"/>
</g>
</svg>
