<svg width="81" height="65" viewBox="0 0 81 65" fill="none" xmlns="http://www.w3.org/2000/svg">
<path d="M48.856 1.57771C38.6901 -0.978696 27.6714 0.980535 20.9808 6.4812C18.7224 8.36352 18.1275 8.60518 17.1034 8.01349C14.714 6.63289 9.443 7.42503 5.97418 9.71373C3.10787 11.6351 -4.31744 18.8577 -5.52899 20.9546C-7.38857 24.173 -5.5756 23.3993 1.03046 18.0449C7.98003 12.4337 9.80818 11.4086 12.6376 11.3523C15.6979 11.2341 16.0317 11.5571 15.6134 14.3074C15.2081 17.2604 16.3047 18.7396 18.4742 17.9117C20.259 17.1867 20.8431 16.2884 20.8746 14.095C20.8724 11.6221 21.9973 10.1256 25.4943 7.78812C29.3554 5.27078 35.6569 3.70815 41.1468 3.88806C54.4174 4.33566 66.1697 14.0529 67.3238 25.452C67.7919 29.8203 67.3898 30.6287 63.869 32.1068C61.6432 33.0323 60.5356 33.8233 59.7467 35.1888C58.4788 37.3832 58.7107 38.5579 60.7589 39.7413C62.6607 40.8401 64.9765 40.0967 67.6011 37.5804C69.6644 35.5854 70.2518 35.4695 72.5437 36.7937C77.6641 39.7522 77.4299 50.7394 72.0105 57.7551C70.5551 59.7111 68.0659 61.6552 62.4742 65.254C55.5441 69.7057 53.9165 71.1719 55.9147 71.0906C57.4308 71.056 64.531 67.5482 68.6305 64.8433C73.9427 61.2781 76.6258 58.2102 78.3305 53.7965C81.8112 44.62 79.736 35.9409 73.2893 32.8015L70.7178 31.5108L70.9074 28.3682C71.2586 22.1317 68.0325 14.5439 62.8667 9.41267C59.8704 6.38056 53.1332 2.61805 48.856 1.57771Z" fill="white"/>
</svg>
