<svg width="81" height="49" viewBox="0 0 81 49" fill="none" xmlns="http://www.w3.org/2000/svg">
<path d="M39.1778 48.1303C49.6361 48.8406 60.1317 44.9555 65.739 38.354C67.6271 36.1005 68.1697 35.757 69.2825 36.1574C71.8792 37.0917 76.9257 35.376 79.9329 32.5076C82.4124 30.1077 88.4369 21.6811 89.2568 19.4024C90.5151 15.9048 88.8684 16.9882 83.3184 23.4308C77.4758 30.1871 75.8588 31.5206 73.0844 32.0786C70.0937 32.7383 69.7079 32.4798 69.6311 29.6989C69.5055 26.7209 68.1635 25.4599 66.1756 26.66C64.5479 27.6904 64.1326 28.6783 64.4912 30.8423C64.9326 33.2755 64.0914 34.9481 61.0651 37.8695C57.7125 41.0325 51.7887 43.6895 46.3542 44.4875C33.2151 46.4039 19.9237 38.9284 16.7635 27.9155C15.5269 23.6999 15.779 22.8329 18.9814 20.753C21.0075 19.4469 21.9569 18.4717 22.4907 16.9879C23.3487 14.6032 22.9119 13.4883 20.6861 12.6875C18.6194 11.9439 16.4724 13.0868 14.3364 16.0292C12.6602 18.359 12.1028 18.5774 9.61212 17.6813C4.04777 15.6793 2.32674 4.82507 6.41401 -3.04156C7.49885 -5.22496 9.60317 -7.58024 14.4668 -12.115C20.4961 -17.7267 21.8375 -19.4587 19.8854 -19.0238C18.3996 -18.7204 12.0353 -14.0073 8.48134 -10.6174C3.88685 -6.1654 1.79121 -2.66977 0.897598 1.97658C-0.898038 11.6254 2.68562 19.7979 9.58743 21.7424L12.3473 22.5559L12.7188 25.6822C13.4809 31.8819 18.0033 38.7762 23.9984 42.9083C27.4856 45.36 34.7838 47.8662 39.1778 48.1303Z" fill="white"/>
</svg>
