<svg width="159" height="209" viewBox="0 0 159 209" fill="none" xmlns="http://www.w3.org/2000/svg">
<g opacity="0.4">
<path d="M58.9087 50.659C59.3575 49.898 59.5016 48.9942 59.3118 48.13C59.1013 47.3011 58.5716 46.5893 57.839 46.1506C57.4702 45.9288 57.0603 45.7846 56.6343 45.7266C56.2083 45.6686 55.7751 45.6982 55.3611 45.8134C54.9504 45.9198 54.5651 46.1072 54.2276 46.3647C53.8901 46.6222 53.6073 46.9446 53.3956 47.313L24.5306 98.5768C24.3258 98.9461 24.2687 99.3797 24.3706 99.79C24.419 100.001 24.5099 100.2 24.6376 100.374C24.7653 100.549 24.9273 100.696 25.1134 100.805C25.4836 101.025 25.9248 101.089 26.3416 100.985C26.7585 100.882 27.1176 100.617 27.3415 100.25L58.9087 50.659Z" fill="#FCD7DB"/>
<path d="M161.107 180.927L192.661 131.285C192.888 130.92 193.039 130.514 193.106 130.089C193.173 129.665 193.153 129.231 193.049 128.814C192.945 128.397 192.759 128.005 192.501 127.662C192.242 127.318 191.918 127.03 191.547 126.815C191.178 126.593 190.768 126.449 190.342 126.391C189.916 126.333 189.483 126.362 189.069 126.478C188.658 126.584 188.273 126.771 187.935 127.029C187.598 127.286 187.315 127.609 187.104 127.977L158.29 179.228C158.08 179.596 158.022 180.031 158.13 180.441C158.243 180.866 158.52 181.229 158.898 181.45C159.261 181.674 159.697 181.744 160.111 181.646C160.525 181.548 160.883 181.289 161.107 180.927Z" fill="#FCD7DB"/>
<path d="M82.5928 59.8991C82.8247 59.5308 82.9805 59.1194 83.0508 58.6894C83.1212 58.2594 83.1047 57.8195 83.0023 57.3958C82.9008 56.9842 82.7182 56.597 82.4653 56.2571C82.2123 55.9172 81.8942 55.6313 81.5296 55.4164C80.7898 54.974 79.9065 54.8414 79.0709 55.0471C78.2388 55.2859 77.5292 55.8336 77.0862 56.5788L48.298 107.823C48.0798 108.194 48.0159 108.637 48.1202 109.055C48.2244 109.473 48.4885 109.833 48.8552 110.058C49.2207 110.277 49.6574 110.342 50.07 110.239C50.4827 110.136 50.8378 109.874 51.0577 109.509L82.5928 59.8991Z" fill="#FCD7DB"/>
<path d="M168.228 108.781C167.814 108.887 167.427 109.077 167.09 109.34C166.753 109.602 166.473 109.931 166.269 110.307L137.397 161.545C137.227 161.916 137.199 162.337 137.318 162.729C137.438 163.12 137.696 163.454 138.045 163.667C138.394 163.879 138.808 163.957 139.209 163.883C139.61 163.81 139.97 163.591 140.221 163.269L171.769 113.71C172.004 113.339 172.162 112.923 172.231 112.488C172.3 112.053 172.28 111.608 172.172 111.181C172.078 110.76 171.9 110.361 171.648 110.01C171.397 109.659 171.077 109.363 170.709 109.139C170.341 108.914 169.931 108.767 169.504 108.706C169.078 108.644 168.644 108.67 168.228 108.781Z" fill="#FCD7DB"/>
<path d="M114.379 159.452C114.575 159.123 114.704 158.759 114.759 158.38C114.813 158.001 114.793 157.615 114.699 157.244C114.673 157.024 114.619 156.808 114.539 156.602L106.829 141.389C118.327 128.59 132.904 108.938 149.958 83.0757L222.596 147.151C222.799 147.33 223.038 147.463 223.296 147.539C223.555 147.616 223.828 147.635 224.094 147.596C224.357 147.551 224.607 147.451 224.828 147.302C225.049 147.152 225.235 146.958 225.375 146.731L232.046 135.626C232.3 135.207 232.468 134.74 232.538 134.253C232.609 133.767 232.58 133.271 232.455 132.796C232.428 132.477 232.351 132.165 232.224 131.871L213.141 97.337L217.808 89.4338L217.879 89.1707L218.032 89.1324L218.96 85.9813C219.037 85.7599 219.044 85.52 218.979 85.2944C218.94 85.1255 218.865 84.9667 218.76 84.8283C218.655 84.69 218.523 84.5751 218.371 84.4911L213.326 81.2742C213.079 81.1212 212.789 81.0555 212.501 81.0877C212.213 81.1199 211.944 81.2481 211.738 81.4518L209.401 83.7534L209.273 83.7854L209.042 83.8428L207.372 86.6333L199.328 71.9396L203.931 64.7618L204.021 64.4666L204.149 64.4347L205.077 61.2837C205.134 61.059 205.141 60.8244 205.096 60.5967C205.004 60.2523 204.784 59.9558 204.482 59.7677L198.463 56.1386C198.215 55.9857 197.924 55.9225 197.636 55.9595C197.348 55.9965 197.081 56.1315 196.881 56.3419L194.365 58.7974L193.117 60.8822L179.624 36.2236C189.739 19.1856 198.957 2.91672 203.285 -5.47489C207.254 -13.3405 210.755 -24.8278 208.603 -33.4593C208.144 -35.4992 207.28 -37.426 206.062 -39.1243C204.844 -40.8225 203.297 -42.2574 201.514 -43.343C186.147 -52.6088 170.277 -31.489 167.242 -27.1852C162.031 -19.7193 152.416 -4.17005 142.006 13.4326L113.642 12.919L114.961 10.6801L115.928 7.35584C116.005 7.13441 116.011 6.8945 115.947 6.66891C115.865 6.33326 115.656 6.04268 115.364 5.85919L109.345 2.23009C109.093 2.08042 108.799 2.01741 108.507 2.05062C108.216 2.08383 107.944 2.21144 107.732 2.41408L105.222 4.78611L100.511 12.6186L83.8315 12.3841L85.5792 9.68365L85.6752 9.41414L85.6368 9.26001L86.5649 6.109C86.6291 5.88542 86.6357 5.64908 86.5841 5.42208C86.5441 5.25311 86.4693 5.09434 86.3646 4.95599C86.2598 4.81763 86.1273 4.70275 85.9757 4.61874L80.8789 1.52375C80.6317 1.37085 80.3398 1.30762 80.0519 1.34463C79.764 1.38163 79.4977 1.51663 79.2975 1.72705L76.9607 4.02869L76.9991 4.18283L76.7686 4.24029L72.0314 12.1884L32.7189 11.6214C32.0717 11.6096 31.433 11.7684 30.8667 12.082C30.3004 12.3955 29.8264 12.8529 29.4921 13.4082L22.8471 24.5059C22.6026 24.924 22.5313 25.4218 22.6488 25.8924L22.6872 26.0465C22.7773 26.3017 22.922 26.5341 23.1112 26.7274C23.3003 26.9206 23.5294 27.07 23.7821 27.1651L114.857 61.7582C103.18 82.9541 92.8738 104.882 84.002 127.407L66.3562 127.659C65.8745 127.674 65.4045 127.811 64.9903 128.057C64.576 128.304 64.231 128.651 63.9874 129.068L55.5755 143.117C55.4816 143.267 55.4195 143.435 55.3931 143.611C55.3667 143.786 55.3765 143.966 55.422 144.137L55.4604 144.291C55.5347 144.487 55.6532 144.662 55.8066 144.804C55.9599 144.945 56.1439 145.05 56.344 145.108L78.2674 151.648C78.2911 152.538 78.4114 153.423 78.6262 154.287C78.7587 155.002 79.0327 155.684 79.4319 156.292C79.8311 156.9 80.3475 157.422 80.9507 157.827C82.0481 158.339 83.2514 158.581 84.46 158.531C85.6686 158.481 86.8473 158.142 87.8976 157.542L103.803 173.767C103.95 173.916 104.128 174.029 104.324 174.098C104.521 174.167 104.73 174.191 104.937 174.167C105.138 174.145 105.332 174.077 105.503 173.969C105.674 173.86 105.817 173.713 105.923 173.539L114.379 159.452ZM197.009 -17.3349L195.888 -18.8837C192.691 -23.2131 187.912 -26.0947 182.602 -26.8947L180.739 -27.1669C180.604 -27.1825 180.475 -27.2351 180.368 -27.3191C180.261 -27.4031 180.179 -27.5151 180.131 -27.6428C180.103 -27.7562 180.101 -27.8742 180.124 -27.9885C180.147 -28.1027 180.196 -28.2104 180.265 -28.3039L182.314 -30.9976C182.665 -31.4478 183.127 -31.7989 183.654 -32.0165C184.182 -32.2341 184.757 -32.3107 185.323 -32.239C188.118 -31.9127 190.812 -30.9912 193.225 -29.5364C195.638 -28.0815 197.714 -26.1268 199.313 -23.8032C199.643 -23.3308 199.846 -22.7816 199.904 -22.2081C199.961 -21.6347 199.87 -21.0563 199.64 -20.5285L198.232 -17.4488C198.183 -17.3213 198.098 -17.2106 197.988 -17.1299C197.878 -17.0493 197.747 -17.0021 197.611 -16.9938C197.491 -16.9994 197.374 -17.0332 197.27 -17.0925C197.165 -17.1517 197.076 -17.2348 197.009 -17.3349Z" fill="#FCD7DB"/>
</g>
</svg>
