<svg width="333" height="418" viewBox="0 0 333 418" fill="none" xmlns="http://www.w3.org/2000/svg">
<path d="M490.441 123.843C470.244 133.365 448.994 140.259 427.96 147.665C405.549 155.556 381.742 158.493 359.771 167.711C327.2 181.376 288.753 199.204 274.509 234.056C260.25 268.945 264.725 308.299 263.448 345.042C262.564 370.49 258.544 396.488 253.628 421.445C250.55 437.071 243.496 448.161 233.261 460.238C220.033 475.848 201.028 494.007 179.765 497.304C171.429 498.596 163.192 499.773 154.788 500.628" stroke="url(#paint0_linear_3252_469)" stroke-opacity="0.5" stroke-width="10" stroke-linecap="round"/>
<path d="M457.202 95.9055C437.057 105.422 415.86 112.311 394.88 119.711C372.525 127.597 348.776 130.528 326.861 139.74C294.374 153.396 256.025 171.214 241.824 206.063C227.609 240.946 232.082 280.301 230.817 317.043C229.942 342.49 225.938 368.486 221.04 393.441C217.974 409.066 210.94 420.154 200.733 432.228C187.541 447.834 168.587 465.988 147.376 469.28C139.06 470.57 130.844 471.745 122.461 472.598" stroke="url(#paint1_linear_3252_469)" stroke-opacity="0.5" stroke-width="10" stroke-linecap="round"/>
<path d="M427.891 70.3316C407.497 79.9737 386.04 86.9524 364.801 94.4502C342.17 102.439 318.129 105.407 295.944 114.74C263.056 128.577 224.235 146.629 209.863 181.944C195.476 217.295 200.009 257.179 198.733 294.414C197.849 320.202 193.798 346.547 188.843 371.837C185.74 387.671 178.621 398.907 168.289 411.143C154.936 426.957 135.75 445.353 114.277 448.686C105.859 449.993 97.541 451.183 89.0542 452.046" stroke="url(#paint2_linear_3252_469)" stroke-opacity="0.5" stroke-width="10" stroke-linecap="round"/>
<defs>
<linearGradient id="paint0_linear_3252_469" x1="137.544" y1="331.056" x2="507.685" y2="293.415" gradientUnits="userSpaceOnUse">
<stop stop-color="#B2E7E7"/>
<stop offset="1" stop-color="#FFEEFE"/>
</linearGradient>
<linearGradient id="paint1_linear_3252_469" x1="105.217" y1="303.025" x2="474.447" y2="265.478" gradientUnits="userSpaceOnUse">
<stop stop-color="#B2E7E7"/>
<stop offset="1" stop-color="#FFEEFE"/>
</linearGradient>
<linearGradient id="paint2_linear_3252_469" x1="71.5784" y1="280.194" x2="445.367" y2="242.183" gradientUnits="userSpaceOnUse">
<stop stop-color="#B2E7E7"/>
<stop offset="1" stop-color="#FFEEFE"/>
</linearGradient>
</defs>
</svg>
