<svg width="255" height="257" viewBox="0 0 255 257" fill="none" xmlns="http://www.w3.org/2000/svg">
<g opacity="0.4">
<path d="M58.5502 98.3931C59.007 97.6366 59.1597 96.7349 58.9777 95.8701C58.7746 95.0405 58.2507 94.3252 57.521 93.8812C57.1536 93.6568 56.7444 93.5094 56.3183 93.4481C55.8921 93.3868 55.458 93.4129 55.0422 93.5247C54.6299 93.6277 54.2421 93.8119 53.9017 94.0664C53.5613 94.3209 53.275 94.6407 53.0595 95.0071L23.6678 145.986C23.4592 146.353 23.3979 146.786 23.4962 147.196C23.5427 147.407 23.6318 147.607 23.7581 147.782C23.8844 147.958 24.0452 148.105 24.2307 148.217C24.5995 148.439 25.0407 148.507 25.4592 148.406C25.8777 148.306 26.2399 148.045 26.4676 147.679L58.5502 98.3931Z" fill="#FCD7DB"/>
<path d="M159.697 229.329L191.768 179.992C191.998 179.63 192.153 179.225 192.224 178.801C192.295 178.378 192.279 177.944 192.179 177.527C192.079 177.11 191.896 176.717 191.64 176.371C191.385 176.026 191.063 175.736 190.693 175.518C190.326 175.294 189.916 175.146 189.49 175.085C189.064 175.024 188.63 175.05 188.214 175.161C187.802 175.264 187.414 175.449 187.074 175.703C186.733 175.958 186.447 176.277 186.232 176.644L156.891 227.61C156.677 227.976 156.616 228.41 156.72 228.821C156.83 229.246 157.103 229.61 157.48 229.835C157.841 230.06 158.277 230.134 158.693 230.039C159.108 229.945 159.469 229.689 159.697 229.329Z" fill="#FCD7DB"/>
<path d="M82.1866 107.81C82.4223 107.444 82.5822 107.035 82.6567 106.606C82.7311 106.177 82.7187 105.737 82.6202 105.313C82.5223 104.901 82.3431 104.513 82.0929 104.171C81.8427 103.83 81.5267 103.542 81.1635 103.324C80.4267 102.876 79.5432 102.737 78.7043 102.936C77.8686 103.168 77.1527 103.709 76.702 104.45L47.3874 155.41C47.1654 155.779 47.0973 156.22 47.1978 156.639C47.2983 157.057 47.5594 157.419 47.9246 157.647C48.2886 157.869 48.7254 157.937 49.1397 157.838C49.554 157.738 49.9121 157.479 50.1358 157.116L82.1866 107.81Z" fill="#FCD7DB"/>
<path d="M167.504 157.319C167.089 157.422 166.699 157.608 166.359 157.868C166.019 158.127 165.736 158.454 165.527 158.827L136.129 209.78C135.955 210.15 135.923 210.571 136.039 210.962C136.155 211.354 136.411 211.69 136.758 211.905C137.106 212.12 137.52 212.201 137.922 212.131C138.325 212.061 138.688 211.845 138.942 211.525L171.005 162.271C171.244 161.902 171.406 161.487 171.479 161.054C171.553 160.62 171.537 160.175 171.432 159.748C171.342 159.326 171.167 158.927 170.919 158.574C170.67 158.221 170.353 157.923 169.986 157.696C169.619 157.469 169.21 157.319 168.783 157.254C168.357 157.189 167.922 157.211 167.504 157.319Z" fill="#FCD7DB"/>
<path d="M113.094 207.507C113.293 207.18 113.425 206.818 113.484 206.44C113.542 206.061 113.526 205.676 113.435 205.304C113.41 205.084 113.359 204.868 113.28 204.661L105.7 189.403C117.336 176.71 132.121 157.196 149.445 131.497L221.603 196.077C221.804 196.258 222.042 196.393 222.3 196.472C222.559 196.55 222.831 196.572 223.099 196.534C223.363 196.491 223.614 196.393 223.837 196.246C224.059 196.099 224.248 195.906 224.39 195.68L231.175 184.641C231.434 184.224 231.606 183.759 231.681 183.273C231.757 182.788 231.733 182.292 231.612 181.817C231.588 181.498 231.513 181.185 231.39 180.891L212.598 146.243L217.347 138.386L217.42 138.124L217.574 138.087L218.533 134.946C218.612 134.726 218.621 134.486 218.559 134.26C218.52 134.091 218.447 133.932 218.343 133.793C218.239 133.654 218.108 133.538 217.957 133.453L212.933 130.2C212.688 130.045 212.397 129.977 212.108 130.007C211.82 130.037 211.549 130.163 211.341 130.365L208.979 132.645L208.85 132.676L208.619 132.732L206.919 135.506L199 120.764L203.678 113.631L203.77 113.337L203.899 113.306L204.858 110.166C204.917 109.942 204.926 109.707 204.884 109.48C204.794 109.135 204.577 108.837 204.276 108.647L198.281 104.974C198.035 104.819 197.743 104.754 197.454 104.788C197.166 104.823 196.898 104.956 196.695 105.164L194.152 107.597L192.882 109.67L179.598 84.9311C189.889 67.9919 199.274 51.814 203.687 43.466C207.736 35.6404 211.351 24.1936 209.276 15.5544C208.836 13.5131 207.988 11.5816 206.784 9.87548C205.58 8.16939 204.044 6.7238 202.268 5.62527C186.962 -3.75228 170.868 17.2185 167.789 21.4935C162.499 28.9099 152.723 44.3658 142.132 61.8666L113.726 61.1286L115.068 58.9026L116.067 55.5897C116.146 55.3691 116.155 55.1295 116.093 54.9036C116.014 54.5677 115.808 54.2758 115.517 54.0902L109.522 50.4173C109.271 50.2658 108.977 50.2005 108.685 50.2314C108.393 50.2623 108.119 50.3876 107.904 50.5883L105.368 52.9378L100.576 60.7244L83.8717 60.3578L85.6475 57.6742L85.7462 57.4057L85.7091 57.2515L86.6682 54.1113C86.7346 53.8884 86.7434 53.6524 86.6938 53.4252C86.6554 53.2561 86.582 53.097 86.4783 52.9579C86.3747 52.8189 86.2431 52.7031 86.092 52.618L81.0158 49.4859C80.7697 49.3312 80.4778 49.2658 80.1892 49.3004C79.9005 49.3351 79.6324 49.4679 79.4299 49.6765L77.0678 51.957L77.1048 52.1113L76.8734 52.1669L72.0541 60.0687L32.6826 59.1905C32.0344 59.1735 31.3932 59.3271 30.8231 59.6359C30.2529 59.9446 29.7739 60.3977 29.4338 60.9497L22.6742 71.9826C22.4253 72.3983 22.3493 72.8949 22.4625 73.366L22.4996 73.5203C22.5874 73.7759 22.7302 74.0092 22.9179 74.2037C23.1056 74.3982 23.3336 74.5493 23.5859 74.6463L114.486 109.924C102.592 131.004 92.0635 152.826 82.9665 175.256L65.2895 175.368C64.8069 175.379 64.3349 175.512 63.9176 175.755C63.5004 175.998 63.1515 176.342 62.9036 176.757L54.3466 190.723C54.2511 190.873 54.1874 191.04 54.1593 191.215C54.1312 191.39 54.1393 191.569 54.1832 191.741L54.2203 191.896C54.2929 192.091 54.41 192.267 54.5622 192.41C54.7145 192.553 54.8978 192.658 55.0977 192.718L76.9958 199.425C77.0112 200.314 77.1234 201.199 77.3305 202.064C77.4565 202.78 77.7245 203.463 78.1187 204.073C78.5129 204.684 79.0252 205.209 79.6256 205.619C80.72 206.139 81.9231 206.39 83.1341 206.349C84.3451 206.309 85.5289 205.98 86.5866 205.389L102.367 221.723C102.512 221.872 102.689 221.986 102.885 222.057C103.081 222.128 103.291 222.153 103.498 222.131C103.7 222.111 103.895 222.045 104.067 221.937C104.239 221.83 104.384 221.684 104.491 221.512L113.094 207.507ZM197.512 31.5692L196.404 30.0132C193.243 25.6631 188.483 22.7468 183.171 21.9055L181.307 21.6189C181.172 21.6022 181.044 21.5486 180.937 21.4639C180.831 21.3791 180.749 21.2666 180.703 21.1386C180.676 21.0252 180.675 20.9072 180.7 20.7933C180.724 20.6793 180.773 20.5722 180.843 20.4793L182.921 17.8049C183.277 17.3579 183.743 17.0109 184.273 16.7977C184.803 16.5845 185.38 16.5125 185.946 16.5887C188.743 16.9368 191.433 17.8786 193.837 19.351C196.24 20.8235 198.301 22.7925 199.881 25.1262C200.207 25.6007 200.405 26.151 200.457 26.7242C200.509 27.2975 200.413 27.8745 200.178 28.3999L198.738 31.4651C198.688 31.5921 198.602 31.702 198.491 31.7816C198.38 31.8613 198.248 31.9075 198.112 31.9146C197.992 31.9081 197.875 31.8734 197.771 31.8134C197.667 31.7534 197.578 31.6697 197.512 31.5692Z" fill="#FCD7DB"/>
</g>
</svg>
