<svg width="85" height="85" viewBox="0 0 85 85" fill="none" xmlns="http://www.w3.org/2000/svg">
<g clip-path="url(#clip0_3279_1936)">
<path d="M37.4246 56.9044C37.4246 56.9044 26.1584 63.1426 26.0227 63.315C25.8871 63.4874 25.6338 67.0388 25.9546 67.2749C26.2783 67.5143 38.4104 64.6542 38.4104 64.6542L38.6146 60.0613L37.4246 56.9044ZM41.9387 64.7427C41.9387 64.7427 53.4906 68.6982 53.6878 68.5267C53.885 68.3553 54.5912 64.8705 54.4502 64.7084C54.3092 64.5463 44.0764 56.7488 44.0764 56.7488L41.0412 60.0778L41.9387 64.7427Z" fill="#006CA8"/>
<path d="M16.2078 40.7522C16.2078 40.7522 16.204 42.1085 16.2979 42.507C16.3918 42.9055 16.7749 43.3956 17.2289 43.294C17.6829 43.1924 17.9596 42.7523 17.9634 42.3811C17.9672 42.0099 17.892 40.0738 17.892 40.0738C17.892 40.0738 16.2329 40.6181 16.2078 40.7522ZM23.5527 39.2621C23.5527 39.2621 23.5769 40.3883 23.6152 40.8788C23.6512 41.3525 24.0469 41.8004 24.5305 41.7541C25.2243 41.6873 25.3525 40.9772 25.3649 40.5238C25.3752 40.1033 25.3551 38.8613 25.3551 38.8613L23.5527 39.2621ZM30.4151 37.7487C30.4151 37.7487 30.3295 39.0888 30.3691 39.5595C30.4088 40.0799 30.7576 40.5873 31.2966 40.5552C31.8858 40.5169 32.1708 40.0509 32.237 39.4821C32.3062 38.9168 32.3301 37.5057 32.3301 37.5057L30.4151 37.7487ZM53.2961 39.2332C53.2961 39.2332 52.9703 40.5452 52.9608 40.9525C52.9549 41.3567 53.2133 41.9302 53.6835 41.9392C54.1501 41.9514 54.5246 41.5883 54.6204 41.2307C54.7162 40.8731 55.1055 38.9822 55.1055 38.9822C55.1055 38.9822 53.3568 39.1117 53.2961 39.2332ZM59.9896 41.2461C59.9896 41.2461 59.7244 42.3371 59.6373 42.8181C59.5511 43.2859 59.8221 43.8172 60.3043 43.8969C60.9898 44.0118 61.3033 43.3589 61.427 42.9272C61.5455 42.5249 61.8413 41.32 61.8413 41.32L59.9896 41.2461ZM66.531 43.5659C66.531 43.5659 66.1281 44.8389 66.0485 45.3072C65.9659 45.8217 66.1812 46.3952 66.7154 46.4921C67.2988 46.596 67.6847 46.2106 67.8909 45.6822C68.097 45.1539 68.4556 43.7946 68.4556 43.7946L66.531 43.5659ZM27.6764 29.5044C27.6764 29.5044 26.834 28.7839 26.6852 27.2734C26.5364 25.7629 26.8409 21.6697 27.1659 21.356C27.4909 21.0423 28.685 20.7712 30.21 20.8734C31.6593 20.9666 32.8824 21.6431 33.1002 21.8652C33.3181 22.0874 33.1211 24.9648 33.0452 25.6854C32.9693 26.4061 32.948 28.5571 32.948 28.5571L27.6764 29.5044Z" fill="#9A9A9A"/>
<path d="M28.3525 29.6541C28.3525 29.6541 28.0657 24.1935 29.172 24.0892C30.2879 23.9827 29.9656 29.1639 29.9656 29.1639L28.3525 29.6541Z" fill="#C8C8C8"/>
<path d="M27.1654 29.0753C27.1654 29.0753 27.3571 26.3402 27.3167 25.9676C27.2763 25.595 26.8253 25.3755 26.5268 25.2972C26.2311 25.2222 25.9658 25.3247 25.9658 25.3247C25.9658 25.3247 25.726 27.1349 26.0679 28.2413C26.3313 29.1014 26.6525 29.3756 26.6525 29.3756L27.1654 29.0753ZM30.3406 27.6373C30.3406 27.6373 30.4025 26.5875 30.4857 26.1191C30.5621 25.6974 30.9529 25.3926 31.2875 25.3289C31.7178 25.2461 32.0331 25.4729 32.0331 25.4729L31.9409 27.4459L30.3406 27.6373Z" fill="#848484"/>
<path d="M54.0648 28.9309C54.0648 28.9309 54.0741 27.2139 54.1487 26.2946C54.2258 25.3439 54.4703 23.9316 54.6524 23.7967C54.8373 23.6652 55.9792 23.4569 57.3057 23.5503C58.8151 23.6545 60.1887 24.222 60.2835 24.3034C60.3788 24.3786 60.1526 27.1679 59.9708 28.315C59.8408 29.1361 57.8886 32.9283 57.7581 32.7783C57.6316 32.6191 54.0648 28.9309 54.0648 28.9309Z" fill="#9A9A9A"/>
<path d="M56.596 30.1583C56.596 30.1583 57.0843 25.354 58.098 25.2927C59.1117 25.2313 57.904 31.2113 57.904 31.2113L56.596 30.1583Z" fill="#C8C8C8"/>
<path d="M55.9346 30.0871L55.8679 28.2439C55.8462 27.5922 55.3814 27.0978 55.0954 26.9557C54.7283 26.7735 54.3632 26.9737 54.3632 26.9737L54.4075 29.3246L55.9346 30.0871ZM58.8948 31.8175C58.8948 31.8175 59.059 29.2332 59.1032 28.8106C59.1474 28.3881 59.3916 27.9023 59.8952 27.8747C60.2713 27.8538 60.5541 27.979 60.5541 27.979C60.5541 27.979 60.6198 30.1877 60.3792 31.1977C60.228 31.8305 59.4256 32.8145 59.4256 32.8145L58.8948 31.8175Z" fill="#848484"/>
<path d="M7.20734 38.7052C6.8858 39.0343 6.94375 43.5287 7.03166 43.7866C7.11956 44.0446 7.46712 44.2873 8.24047 44.0857C9.0103 43.887 31.1324 38.6996 31.5311 38.6874C31.9293 38.6818 37.8416 39.4122 37.8416 39.4122C37.8416 39.4122 40.8249 27.8407 40.6542 27.7228C40.4804 27.6014 37.4787 24.6134 37.4787 24.6134C37.4787 24.6134 7.67506 38.2305 7.20734 38.7052ZM46.3347 39.93C46.3347 39.93 54.4517 40.0936 55.2721 40.2597C56.0925 40.4258 76.3813 47.8969 76.6971 48.0248C77.013 48.1527 77.6796 47.9138 77.7184 47.4094C77.7573 46.9051 78.2554 43.3638 77.9262 42.9069C77.5971 42.45 48.7847 24.6364 48.7847 24.6364L44.7732 31.8386L46.3347 39.93Z" fill="#006CA8"/>
<path d="M36.328 33.8776C36.328 33.8776 29.7144 33.5119 29.2759 33.5502C28.8405 33.5921 5.97899 41.2356 5.97899 41.2356L5.95329 42.5981C5.95329 42.5981 29.27 35.014 29.709 34.969C30.1479 34.924 36.4641 35.4548 36.4641 35.4548L36.328 33.8776ZM47.1468 35.1881C47.1468 35.1881 55.3316 36.6252 55.8432 36.7352C56.3549 36.8452 77.0992 46.7127 77.0992 46.7127L77.2267 45.4673C77.2267 45.4673 56.2086 35.2707 55.8934 35.1582C55.5783 35.0457 46.0144 33.3363 46.0144 33.3363L47.1468 35.1881Z" fill="#014EAC"/>
<path d="M38.5637 67.0431C38.5637 67.0431 38.8351 70.3104 38.9715 70.4672C39.1107 70.6273 40.9789 70.7959 41.091 70.6985C41.203 70.6011 42.0727 67.3026 42.0727 67.3026L40.5159 66.1135L38.5637 67.0431Z" fill="#9A9A9A"/>
<path d="M38.4667 66.5231C38.4667 66.5231 37.0527 59.0756 36.3007 51.9745C35.5273 44.6801 35.8271 39.829 35.9699 32.0061C36.1504 22.1946 36.7465 16.2076 37.9807 11.4535C39.0041 7.51174 41.6014 3.186 43.9144 3.23706C46.4546 3.2962 48.4326 8.72739 48.8587 12.4305C49.8257 20.8334 48.9045 26.0317 48.4063 32.6375C47.9137 39.1512 47.5664 44.7352 46.3363 50.7314C45.5082 54.7712 42.0719 66.9209 42.0719 66.9209L38.4667 66.5231Z" fill="#C8C8C8"/>
<path d="M39.941 11.0097L41.7812 11.1614C41.7812 11.1614 42.083 8.21813 44.2908 8.29615C46.554 8.37402 46.2673 11.5261 46.2673 11.5261L48.3096 11.7541C48.3096 11.7541 48.4308 6.14272 44.3325 6.12466C40.765 6.10705 39.941 11.0097 39.941 11.0097Z" fill="#3B5361"/>
<path d="M38.7008 50.486C38.6232 51.3011 38.7196 62.0949 38.744 62.7188C38.7777 63.5217 39.0999 64.2426 39.8315 64.2216C40.5601 64.1972 40.7233 63.4524 40.9014 62.8091C41.1275 62.0036 42.606 51.3241 42.6897 50.6001C42.8227 49.4353 41.9961 48.2605 40.7771 48.2469C39.435 48.2318 38.8198 49.2489 38.7008 50.486Z" fill="#9A9A9A"/>
<path d="M38.2111 49.8352C37.6694 49.8361 37.441 50.348 37.4179 51.1389C37.402 51.8234 37.7575 52.5548 38.3135 52.4914C38.8695 52.4279 39.027 51.6768 39.0074 51.0734C38.9909 50.4736 38.823 49.836 38.2111 49.8352ZM37.4061 46.8874C37.4062 47.5328 37.4686 48.544 38.281 48.5961C39.0801 48.6473 39.2613 47.5434 39.2661 46.9752C39.2673 46.4101 39.1848 39.8257 39.7001 32.2077C40.2002 24.7659 40.6763 19.9209 40.7033 19.1202C40.7255 18.4429 40.1751 17.8747 39.7052 17.951C39.1474 18.0411 38.8702 18.5327 38.8076 19.4646C38.745 20.3965 38.0686 26.4309 37.6988 32.4307C37.329 38.4305 37.4034 46.0812 37.4061 46.8874Z" fill="#DFDFDF"/>
<path d="M49.8628 20.7328C49.8628 20.7328 48.57 19.6371 48.1885 20.8398C47.7798 22.1319 49.6896 23.0134 49.6896 23.0134C49.6896 23.0134 49.7598 22.4333 49.8008 21.7771C49.8382 21.2375 49.8594 20.9207 49.8628 20.7328ZM49.3271 26.4191C49.3271 26.4191 47.7803 24.9177 47.4376 26.3851C47.166 27.5579 49.0516 28.717 49.0516 28.717C49.0516 28.717 49.1518 27.9796 49.2076 27.4896C49.264 26.9931 49.3271 26.4191 49.3271 26.4191ZM48.72 31.7319C48.72 31.7319 47.4443 30.4782 47.0044 31.6422C46.5646 32.8061 48.5 33.916 48.5 33.916C48.5 33.916 48.5882 33.2785 48.6277 32.8265C48.6671 32.3746 48.72 31.7319 48.72 31.7319ZM48.0852 37.8087C48.0852 37.8087 46.8576 36.5251 46.355 37.5884C45.8326 38.6929 47.8316 39.9683 47.8316 39.9683C47.8316 39.9683 47.9212 39.2401 47.9697 38.834C48.0246 38.4282 48.0852 37.8087 48.0852 37.8087Z" fill="#3B5361"/>
</g>
<defs>
<clipPath id="clip0_3279_1936">
<rect width="59.6261" height="59.6261" fill="white" transform="matrix(0.75471 -0.656059 0.656238 0.754554 0 39.1182)"/>
</clipPath>
</defs>
</svg>
