<svg width="549" height="515" viewBox="0 0 549 515" fill="none" xmlns="http://www.w3.org/2000/svg">
<path fill-rule="evenodd" clip-rule="evenodd" d="M248.235 12.3425C303.579 6.01399 364.785 -13.234 411.207 18.0745C457.075 49.0087 453.987 116.399 477.382 166.885C500.816 217.453 551.228 258.084 548.24 313.78C545.134 371.672 506.267 422.555 461.716 458.9C419.109 493.659 363.299 499.935 309.215 508.78C252.669 518.026 178.148 516.67 124.72 495.541C66.8869 472.67 26.0982 448.196 5.85497 388.81C-13.891 330.884 25.0755 272.402 39.8872 213.09C53.6137 158.124 48.697 93.9583 89.2437 54.8907C129.907 15.7105 192.373 18.7302 248.235 12.3425Z" fill="#FCD7DB"/>
</svg>
