<svg width="624" height="470" viewBox="0 0 624 470" fill="none" xmlns="http://www.w3.org/2000/svg">
<path fill-rule="evenodd" clip-rule="evenodd" d="M533.445 162.582C539.19 168.514 544.72 174.557 550.014 180.698L553.158 184.347L557.006 183.477C556.492 182.867 555.976 182.257 555.457 181.648C554.938 181.038 554.416 180.429 553.892 179.822C548.035 173.026 541.894 166.35 535.494 159.808L533.445 162.582ZM47.0425 259.861C47.4785 260.484 47.9169 261.105 48.3578 261.726C48.7993 262.348 49.2434 262.969 49.6899 263.59L53.911 263.198L51.2973 259.466C47.8142 254.493 44.4901 249.471 41.3339 244.402C38.1777 239.334 35.2378 234.297 32.5111 229.298L30.465 225.547L25.946 225.46C26.2747 226.085 26.6067 226.71 26.942 227.335C27.2767 227.96 27.6148 228.585 27.9561 229.211C30.7266 234.291 33.7136 239.407 36.9198 244.556C40.1261 249.705 43.5034 254.808 47.0425 259.861ZM71.335 285.536L67.4874 286.406C68.0014 287.017 68.5177 287.627 69.0364 288.236C69.5556 288.845 70.0772 289.454 70.601 290.062C79.2475 300.093 88.5131 309.864 98.316 319.331C98.9206 319.915 99.5273 320.498 100.136 321.08C100.745 321.662 101.357 322.243 101.97 322.823L105.375 321.486L101.749 317.984C92.1039 308.669 82.9875 299.055 74.4798 289.185L71.335 285.536ZM128.594 342.057L125.689 343.838C126.356 344.392 127.024 344.945 127.694 345.496C128.364 346.048 129.037 346.599 129.71 347.148C140.774 356.161 152.314 364.809 164.243 373.045C164.975 373.551 165.709 374.055 166.444 374.557C167.179 375.06 167.916 375.561 168.654 376.06L171.011 373.868L166.618 370.836C154.88 362.731 143.525 354.221 132.638 345.353L128.594 342.057ZM198.43 391.285L196.66 393.849C197.432 394.31 198.206 394.768 198.981 395.225C199.756 395.682 200.532 396.137 201.309 396.59C214.021 404.004 227.038 410.952 240.27 417.388C241.079 417.781 241.889 418.173 242.7 418.563C243.511 418.952 244.322 419.34 245.135 419.726L246.29 416.833L241.434 414.472C228.413 408.139 215.603 401.301 203.094 394.005L198.43 391.285ZM276.026 429.925L275.507 433.098C276.334 433.433 277.16 433.767 277.987 434.098C278.814 434.429 279.642 434.758 280.469 435.085C293.959 440.415 307.573 445.191 321.223 449.366C321.547 449.465 321.87 449.564 322.194 449.662C322.702 449.816 323.211 449.97 323.719 450.122C324.55 450.372 325.382 450.62 326.214 450.865L326.083 447.465L321.091 445.938C307.661 441.831 294.266 437.131 280.992 431.887L276.026 429.925ZM356.113 455.301L356.894 458.871C357.718 459.058 358.541 459.242 359.364 459.424C360.187 459.606 361.009 459.785 361.832 459.962C375.163 462.834 388.446 465.088 401.599 466.678C402.396 466.775 403.192 466.868 403.988 466.96C404.783 467.051 405.577 467.14 406.371 467.227L404.952 463.549L400.168 462.971C387.228 461.406 374.16 459.189 361.044 456.364L356.113 455.301ZM433.216 465.564L435.244 469.285C436.008 469.31 436.771 469.332 437.534 469.352C438.012 469.364 438.489 469.376 438.966 469.386C439.25 469.392 439.533 469.398 439.816 469.404C445.985 469.524 452.105 469.481 458.167 469.269C464.228 469.057 470.141 468.68 475.901 468.144C476.61 468.078 477.317 468.009 478.022 467.938C478.728 467.867 479.432 467.793 480.134 467.718L477.539 464.016L473.285 464.412C467.617 464.94 461.798 465.311 455.832 465.52C449.865 465.728 443.842 465.771 437.771 465.652L433.216 465.564ZM502.144 460.155L505.268 463.773C505.923 463.636 506.575 463.497 507.225 463.355C507.875 463.213 508.523 463.068 509.169 462.922C519.823 460.5 529.794 457.435 539.057 453.774C539.628 453.548 540.197 453.32 540.763 453.09C541.329 452.859 541.893 452.626 542.454 452.391L538.851 448.92L535.425 450.274C526.311 453.876 516.501 456.891 506.019 459.274L502.144 460.155ZM558.05 439.364L562.069 442.629C562.567 442.337 563.061 442.043 563.553 441.747C564.045 441.451 564.534 441.153 565.02 440.852C573.001 435.922 580.214 430.419 586.633 424.394C587.027 424.024 587.417 423.653 587.805 423.279C588.193 422.905 588.578 422.529 588.96 422.152L584.597 419.149L582.234 421.367C575.918 427.296 568.82 432.711 560.968 437.561L558.05 439.364ZM597.109 404.582L601.741 407.273C601.911 407.039 602.079 406.804 602.247 406.568C602.383 406.377 602.519 406.185 602.654 405.993C602.955 405.564 603.254 405.134 603.549 404.702C608.373 397.636 612.366 390.093 615.5 382.126C615.692 381.639 615.88 381.15 616.065 380.66C616.25 380.17 616.432 379.678 616.611 379.184L611.79 376.85L610.641 379.773C607.557 387.614 603.627 395.036 598.88 401.989L597.109 404.582ZM616.813 358.301L621.741 360.238C621.839 359.71 621.933 359.18 622.025 358.648C622.116 358.117 622.204 357.584 622.289 357.05C623.67 348.349 624.178 339.28 623.784 329.894C623.76 329.323 623.733 328.75 623.702 328.176C623.672 327.602 623.638 327.027 623.601 326.451L618.649 324.944L618.793 328.376C619.18 337.611 618.681 346.535 617.322 355.097L616.813 358.301ZM615.804 303.661L620.694 304.708C620.574 304.111 620.451 303.513 620.325 302.914C620.199 302.316 620.069 301.716 619.936 301.116C617.783 291.382 614.743 281.393 610.794 271.198C610.555 270.58 610.312 269.961 610.066 269.342C609.82 268.724 609.571 268.105 609.319 267.485L604.575 266.915L606.011 270.623C609.898 280.655 612.888 290.483 615.007 300.06L615.804 303.661ZM594.028 244.337L598.547 244.423C598.219 243.799 597.887 243.174 597.551 242.548C597.217 241.923 596.879 241.298 596.537 240.672C593.767 235.593 590.78 230.476 587.574 225.327C584.367 220.178 580.99 215.075 577.451 210.022C577.015 209.4 576.576 208.778 576.136 208.157C575.694 207.535 575.25 206.914 574.803 206.294L570.582 206.685L573.196 210.417C576.679 215.39 580.003 220.413 583.159 225.481C586.316 230.55 589.256 235.586 591.982 240.585L594.028 244.337ZM191.278 4.31955L189.25 0.598082C188.486 0.573355 187.722 0.551098 186.96 0.531321C186.198 0.511576 185.438 0.494301 184.678 0.479508C178.509 0.359421 172.389 0.402777 166.327 0.614463C160.265 0.82615 154.353 1.20297 148.593 1.73963C147.883 1.80573 147.176 1.87427 146.471 1.94522C145.765 2.01629 145.061 2.08977 144.36 2.16568L146.954 5.86737L151.208 5.47104C156.876 4.94293 162.695 4.57206 168.662 4.3637C174.628 4.15534 180.651 4.11269 186.722 4.23086L191.278 4.31955ZM122.349 9.72819L119.225 6.11009C118.571 6.24718 117.918 6.38664 117.269 6.52848C116.618 6.67047 115.97 6.81484 115.325 6.96158C104.671 9.38341 94.6996 12.4486 85.4362 16.1096C84.865 16.3354 84.2964 16.5635 83.7305 16.7938C83.1641 17.0243 82.6003 17.257 82.0394 17.4921L85.6426 20.9633L89.0688 19.6092C98.1822 16.0075 107.992 12.9918 118.474 10.6091L122.349 9.72819ZM66.4432 30.5189L62.4239 27.2545C61.9266 27.5462 61.432 27.8401 60.9403 28.1361C60.4483 28.4322 59.9592 28.7305 59.473 29.0309C51.4925 33.9611 44.2794 39.4642 37.8607 45.4893C37.4668 45.859 37.0759 46.2307 36.688 46.6044C36.3 46.9781 35.9149 47.3539 35.5329 47.7315L39.8967 50.734L42.2597 48.5159C48.5757 42.5873 55.673 37.1726 63.5249 32.3218L66.4432 30.5189ZM27.3842 65.301L22.7524 62.6102C22.4449 63.0352 22.1405 63.462 21.8392 63.8906C21.5379 64.3191 21.2397 64.7495 20.9446 65.1817C16.1201 72.2475 12.1272 79.7899 8.99341 87.7571C8.80179 88.2442 8.6134 88.733 8.4282 89.2233C8.24301 89.7136 8.06108 90.2054 7.88234 90.6988L12.703 93.0331L13.8527 90.11C16.9366 82.2696 20.866 74.8473 25.6137 67.894L27.3842 65.301ZM7.68053 111.583L2.75268 109.645C2.6547 110.174 2.56 110.704 2.4686 111.235C2.37724 111.767 2.28917 112.299 2.20436 112.833C0.822968 121.534 0.315554 130.603 0.708983 139.989C0.732956 140.561 0.760273 141.134 0.790943 141.708C0.82161 142.282 0.855561 142.857 0.892908 143.433L5.84423 144.939L5.70036 141.508C5.31325 132.272 5.81253 123.349 7.17187 114.787L7.68053 111.583ZM8.68959 166.222L3.79982 165.175C3.9193 165.772 4.04216 166.37 4.16843 166.969C4.29454 167.567 4.42407 168.167 4.55694 168.767C6.71089 178.501 9.75005 188.49 13.6996 198.686C13.9388 199.303 14.1814 199.922 14.4274 200.541C14.673 201.159 14.922 201.779 15.1744 202.399L19.9184 202.968L18.4819 199.26C14.5959 189.228 11.6057 179.4 9.48641 169.823L8.68959 166.222Z" fill="#F7C1C8"/>
</svg>
