<svg width="93" height="118" viewBox="0 0 93 118" fill="none" xmlns="http://www.w3.org/2000/svg">
<g opacity="0.4">
<path d="M40.8857 70.8138C37.1599 65.1622 39.1 54.8713 45.4272 50C44.1044 57.5706 48.2491 64.7615 44.1045 71.6573C42.6935 72.6273 41.9219 71.2777 40.8857 70.8138Z" fill="#DC8C73"/>
<path d="M59.0259 69.9072C61.0814 66.2365 60.8758 61.2863 65.3773 59C66.7134 61.7897 65.3773 64.6634 65.7679 67.3902C65.7679 70.2009 66.6312 73.0325 65.0279 75.7803C63.4246 78.5281 62.3146 78.8217 60.5058 76.1159C59.3916 74.2538 58.8743 72.0835 59.0259 69.9072Z" fill="#ECC889"/>
<path d="M83.0085 79C83.7989 85.0663 85.4896 91.1327 81.1202 96.7307C79.7588 98.4549 78.7708 98.391 77.5632 96.7307C77.0035 96.1719 76.5761 95.5016 76.3107 94.7664C76.0452 94.0313 75.9481 93.2489 76.0261 92.4737C76.9574 87.4214 79.3833 82.7403 83.0085 79Z" fill="#DC8C73"/>
<path d="M49 94.1898C48.0958 97.5138 49.4521 101.456 46.395 104.332C45.5123 105.163 44.6297 106.293 43.1873 105.93C41.7449 105.568 41.2712 104.119 41.0344 102.713C40.5823 100.092 44.6943 90.8444 46.9117 89.3955C48.225 88.5645 48.6986 89.1185 48.8278 90.3544C48.9569 91.5902 48.9354 92.8261 49 94.1898Z" fill="#BCA28E"/>
<path d="M12 62.3783C12.438 56.8004 14.5202 51.4623 17.9986 47C21.2184 52.1332 20.4025 60.71 16.6313 64.5385C13.8746 66.2282 13.6981 62.7632 12 62.3783Z" fill="#DC8C73"/>
<path d="M26.6993 102C28.1696 105.366 27.969 109.086 29.5062 112.39C30.3082 114.198 30.4195 117.211 27.6126 117.876C24.8057 118.541 23.1572 116.422 22.3329 114.053C21.7911 111.864 21.9125 109.577 22.6836 107.449C23.4546 105.32 24.845 103.434 26.6993 102Z" fill="#BCA28E"/>
<path d="M26.1728 69.997C27.6949 68.6447 29.0168 68.4575 29.8379 70.7667C29.8379 73.18 30.0182 75.6141 29.9982 78.0274C30.0241 78.9886 29.7754 79.9362 29.2836 80.7508C28.7917 81.5653 28.0786 82.2103 27.2343 82.6044C26.7401 82.9451 26.1376 83.0727 25.5545 82.96C24.9713 82.8474 24.4533 82.5035 24.1099 82.0011C23.5275 81.2643 23.1567 80.372 23.0398 79.4264C22.9229 78.4808 23.0647 77.5201 23.449 76.6544C24.4504 74.4907 25.2715 72.223 26.1728 69.997Z" fill="#DC8C73"/>
<path d="M12 90.5766C10.7796 92.155 11.8032 95.1224 9.02771 94.9961C8.03907 94.9999 7.08525 94.6059 6.35586 93.8924C5.62647 93.1788 5.17491 92.198 5.09088 91.1448C4.88915 89.5091 5.02421 87.8461 5.48663 86.272C5.94905 84.698 6.72765 83.251 7.76792 82.0323C8.27971 81.4431 8.92929 80.7907 9.73634 81.0643C10.5434 81.3378 10.4646 82.4111 10.4646 83.1688C10.4194 85.7333 10.9457 88.2726 12 90.5766Z" fill="#DC8C73"/>
<path d="M63.9376 100C64.7833 103.29 65.1273 106.685 64.9581 110.075C65.0194 110.976 64.7502 111.868 64.1997 112.589C63.6492 113.309 62.8543 113.81 61.9604 114C60.9809 113.945 60.0532 113.547 59.3441 112.878C58.6349 112.209 58.1906 111.311 58.091 110.348C57.432 107.052 60.4509 101.616 63.9376 100Z" fill="#DC8C73"/>
<path d="M87.3646 55.6689L89.8548 53C92.264 55.6049 92.2438 59.1492 92.9321 62.352C93.337 64.2736 91.8591 65.6401 90.4014 66.6222C90.2166 66.7714 90.0052 66.8799 89.7799 66.9414C89.5545 67.0029 89.3198 67.0162 89.0895 66.9803C88.8592 66.9445 88.6381 66.8603 88.4392 66.7328C88.2403 66.6053 88.0677 66.437 87.9315 66.2379C87.2015 65.7423 86.6347 65.0208 86.3085 64.1723C85.9823 63.3238 85.9128 62.3897 86.1094 61.4979C86.9514 59.6841 87.3811 57.6884 87.3646 55.6689Z" fill="#DC8C73"/>
<path d="M34.6504 32C37.183 37.2971 35.9699 47.1347 32.5221 51.0264C31.3515 52.3886 30.7982 52.2588 29.7127 51.0264C29.0556 50.3097 28.5667 49.451 28.2829 48.5148C27.999 47.5787 27.9276 46.5894 28.074 45.6212C29.3057 40.6641 31.5459 36.024 34.6504 32Z" fill="#BCA28E"/>
<path d="M60.4139 31C63.1165 35.8992 62.1575 45.0668 59.1062 48.7465C57.4279 50.744 56.4035 50.1132 55.2266 48.5362C54.7263 47.9602 54.365 47.284 54.169 46.5567C53.973 45.8293 53.9471 45.069 54.0933 44.3309C55.1365 39.486 57.2967 34.9297 60.4139 31Z" fill="#BCA28E"/>
<path d="M5.71345 27C6.16753 29.6233 6.08116 32.3155 5.45995 34.9022C4.83873 37.489 3.69655 39.9126 2.1073 42.0162C0.981678 43.6465 -1.45718 44.6976 -2.95801 43.4534C-3.63067 42.639 -4 41.6049 -4 40.536C-4 39.4671 -3.63067 38.433 -2.95801 37.6186C-0.581518 33.6663 2.33937 30.0895 5.71345 27Z" fill="#BCA28E"/>
<path d="M81.5453 28C83.6982 32.6363 82.7896 36.8775 82.9081 41.0148C82.8788 41.4176 82.7641 41.8084 82.5724 42.1583C81.7823 44.071 80.4195 46.3164 78.6221 45.963C77.6521 45.5328 76.8664 44.7421 76.4147 43.7413C75.963 42.7406 75.877 41.5999 76.1729 40.5367C76.9866 35.966 78.8288 31.6672 81.5453 28Z" fill="#BCA28E"/>
<path d="M27 13.3674C26.8139 15.4876 26.4855 17.5913 26.0174 19.6627C25.9127 20.2205 25.7001 20.7497 25.3927 21.2172C25.0853 21.6847 24.6897 22.0805 24.2306 22.3799C23.7715 22.6793 23.2588 22.8758 22.7244 22.9573C22.19 23.0388 21.6455 23.0034 21.1246 22.8534C20.6337 22.6096 20.1996 22.2551 19.8531 21.815C19.5066 21.375 19.2561 20.8601 19.1194 20.3069C18.9827 19.7536 18.9631 19.1755 19.062 18.6134C19.1608 18.0513 19.3758 17.519 19.6916 17.054C20.7853 15.1337 22.0611 13.3351 23.4993 11.6858C24.1544 10.8665 24.9733 9.65921 26.0992 10.0904C27.5732 10.7372 26.7134 12.2894 27 13.3674Z" fill="#ECC889"/>
<path d="M16.8606 5.35147C17.1918 8.08562 16.9848 10.5091 13.9629 11.7519C13.4839 12.0014 12.9298 12.0654 12.4066 11.9317C11.8834 11.7979 11.4279 11.4758 11.1272 11.0269C9.0574 8.49988 10.1958 6.36642 11.6861 4.08797C12.7417 2.43091 13.4247 -0.406805 15.4738 0.0488856C17.8541 0.608143 16.695 3.46657 16.8606 5.35147Z" fill="#DC8C73"/>
<path d="M50.9908 23.3484C51.0268 23.8443 50.9567 24.3423 50.7853 24.8072C50.6139 25.2722 50.3455 25.6927 49.999 26.0392C49.6525 26.3857 49.2364 26.6497 48.7799 26.8126C48.3235 26.9754 47.8379 27.0332 47.3574 26.9818C45.2812 26.9818 44.3676 25.2292 44.0147 23.4339C43.724 21.9591 47.8349 16.6159 48.7485 17.022C51.2607 18.4112 50.3057 21.2538 50.9908 23.3484Z" fill="#DC8C73"/>
</g>
</svg>
