<svg width="87" height="119" viewBox="0 0 87 119" fill="none" xmlns="http://www.w3.org/2000/svg">
<path d="M33.7659 71.08C30.1674 65.372 32.0411 54.9785 38.1522 50.0586C36.8747 57.7047 40.8778 64.9673 36.8747 71.9319C35.5119 72.9116 34.7666 71.5485 33.7659 71.08Z" fill="#DC8C73"/>
<path d="M52.0778 70.2919C54.2071 66.5647 53.9942 61.5383 58.6573 59.2168C60.0414 62.0495 58.6574 64.9673 59.0619 67.7361C59.0619 70.5901 59.9562 73.4653 58.2954 76.2554C56.6345 79.0455 55.4847 79.3436 53.6109 76.5961C52.4567 74.7054 51.9208 72.5017 52.0778 70.2919Z" fill="#ECC889"/>
<path d="M75.7555 80.0674C76.5221 86.1374 78.1616 92.2074 73.9243 97.8088C72.6042 99.534 71.646 99.4701 70.4749 97.8088C69.9321 97.2496 69.5176 96.5789 69.2602 95.8433C69.0028 95.1077 68.9087 94.3248 68.9843 93.5492C69.8875 88.4938 72.2399 83.81 75.7555 80.0674Z" fill="#DC8C73"/>
<path d="M41.4525 95.3818C40.5582 98.7043 41.8996 102.644 38.876 105.52C38.003 106.35 37.13 107.479 35.7034 107.117C34.2767 106.755 33.8083 105.307 33.5741 103.901C33.1269 101.281 37.1939 92.0379 39.3871 90.5897C40.6859 89.759 41.1544 90.3128 41.2821 91.5481C41.4099 92.7834 41.3886 94.0187 41.4525 95.3818Z" fill="#BCA28E"/>
<path d="M4.44531 62.7314C4.86816 57.1771 6.87859 51.8615 10.237 47.418C13.3458 52.5295 12.558 61.0701 8.91686 64.8825C6.25523 66.5651 6.08487 63.1148 4.44531 62.7314Z" fill="#DC8C73"/>
<path d="M19.1375 102.602C20.5429 106.052 20.3512 109.864 21.8204 113.251C22.587 115.104 22.6934 118.192 20.0105 118.873C17.3276 119.555 15.7519 117.383 14.9641 114.955C14.4462 112.711 14.5622 110.367 15.2992 108.186C16.0362 106.005 17.3652 104.071 19.1375 102.602Z" fill="#BCA28E"/>
<path d="M18.6906 70.5685C20.3089 69.1841 21.7142 68.9924 22.5872 71.3565C22.5872 73.8271 22.7789 76.319 22.7576 78.7896C22.7852 79.7736 22.5208 80.7437 21.9978 81.5776C21.4749 82.4115 20.7168 83.0718 19.8191 83.4752C19.2937 83.824 18.6532 83.9546 18.0332 83.8393C17.4132 83.724 16.8624 83.3719 16.4974 82.8576C15.8782 82.1033 15.484 81.1898 15.3597 80.2218C15.2354 79.2537 15.3862 78.2703 15.7947 77.3839C16.8594 75.1689 17.7324 72.8474 18.6906 70.5685Z" fill="#DC8C73"/>
<path d="M5.25452 90.9301C3.93435 92.5275 5.0416 95.5305 2.03928 95.4028C0.969836 95.4066 -0.0619421 95.0079 -0.850949 94.2858C-1.63996 93.5636 -2.12842 92.571 -2.21932 91.5052C-2.43754 89.8498 -2.29144 88.1667 -1.79123 86.5737C-1.29101 84.9807 -0.448764 83.5163 0.67653 82.283C1.23015 81.6867 1.93282 81.0264 2.80583 81.3033C3.67885 81.5802 3.59366 82.6664 3.59366 83.4331C3.5447 86.0286 4.114 88.5984 5.25452 90.9301Z" fill="#DC8C73"/>
<path d="M56.9754 101.089C57.8224 104.427 58.1669 107.872 57.9975 111.312C58.0589 112.226 57.7892 113.131 57.2379 113.863C56.6866 114.594 55.8905 115.102 54.9952 115.295C54.0141 115.239 53.0851 114.835 52.3748 114.156C51.6645 113.477 51.2196 112.567 51.1199 111.589C50.4598 108.245 53.4834 102.729 56.9754 101.089Z" fill="#DC8C73"/>
<path d="M80.5466 55.9152L83.1656 53.2529C85.6995 55.8513 85.6782 59.3868 86.4022 62.5816C86.828 64.4984 85.2736 65.8615 83.7405 66.8412C83.5461 66.99 83.3238 67.0982 83.0868 67.1596C82.8498 67.2209 82.6029 67.2341 82.3607 67.1984C82.1185 67.1627 81.8859 67.0787 81.6767 66.9515C81.4675 66.8243 81.286 66.6564 81.1428 66.4578C80.375 65.9634 79.7788 65.2438 79.4358 64.3974C79.0927 63.551 79.0196 62.6192 79.2264 61.7296C80.1119 59.9203 80.5639 57.9296 80.5466 55.9152Z" fill="#DC8C73"/>
<path d="M27.6975 32.3594C30.2313 37.5774 29.0176 47.2681 25.5682 51.1018C24.3971 52.4436 23.8435 52.3158 22.7575 51.1018C22.1 50.3957 21.6109 49.5499 21.3269 48.6277C21.043 47.7055 20.9715 46.731 21.1179 45.7773C22.3502 40.8941 24.5915 36.3233 27.6975 32.3594Z" fill="#BCA28E"/>
<path d="M53.3554 31.5293C55.9958 36.4918 55.0589 45.7778 52.0779 49.505C50.4383 51.5283 49.4375 50.8894 48.2877 49.292C47.7989 48.7086 47.446 48.0237 47.2545 47.2869C47.063 46.5502 47.0377 45.7801 47.1805 45.0324C48.1996 40.1249 50.3101 35.5098 53.3554 31.5293Z" fill="#BCA28E"/>
<path d="M75.053 28.0361C77.3739 32.7856 76.3944 37.1305 76.5222 41.3688C76.4906 41.7814 76.3669 42.1817 76.1602 42.5402C75.3085 44.4997 73.8393 46.7999 71.9016 46.4378C70.8559 45.9972 70.0088 45.1871 69.5219 44.1619C69.035 43.1367 68.9422 41.9682 69.2613 40.879C70.1385 36.1967 72.1245 31.7929 75.053 28.0361Z" fill="#BCA28E"/>
<path d="M19.5635 13.2553C19.3699 15.3499 19.0284 17.4281 18.5414 19.4744C18.4326 20.0255 18.2114 20.5483 17.8917 21.0102C17.5719 21.472 17.1605 21.863 16.683 22.1587C16.2055 22.4545 15.6722 22.6487 15.1164 22.7292C14.5606 22.8096 13.9941 22.7747 13.4524 22.6266C12.9418 22.3856 12.4903 22.0354 12.1299 21.6007C11.7695 21.166 11.509 20.6574 11.3668 20.1108C11.2246 19.5643 11.2042 18.9932 11.307 18.4379C11.4099 17.8826 11.6334 17.3567 11.9619 16.8973C13.0995 15.0003 14.4264 13.2234 15.9224 11.5941C16.6037 10.7847 17.4555 9.59205 18.6266 10.018C20.1597 10.657 19.2654 12.1904 19.5635 13.2553Z" fill="#ECC889"/>
<path d="M9.40654 5.50261C9.74722 8.31398 9.53431 10.8059 6.42553 12.0838C5.93279 12.3404 5.36275 12.4062 4.82452 12.2687C4.28629 12.1311 3.81767 11.7999 3.50836 11.3383C1.37906 8.73994 2.55018 6.54623 4.08328 4.20342C5.16923 2.49956 5.8719 -0.418295 7.97991 0.0502663C10.4286 0.625318 9.23619 3.56448 9.40654 5.50261Z" fill="#DC8C73"/>
<path d="M43.8162 22.9883C43.8532 23.4824 43.7812 23.9787 43.6055 24.442C43.4297 24.9053 43.1545 25.3244 42.7991 25.6697C42.4437 26.015 42.017 26.2781 41.5489 26.4404C41.0808 26.6027 40.5827 26.6602 40.09 26.609C37.9607 26.609 37.0238 24.8625 36.6618 23.0735C36.3637 21.6039 40.5797 16.2793 41.5166 16.684C44.093 18.0684 43.1136 20.901 43.8162 22.9883Z" fill="#DC8C73"/>
</svg>
