<svg width="74" height="72" viewBox="0 0 74 72" fill="none" xmlns="http://www.w3.org/2000/svg">
<path d="M54.0056 59.2857L22.7625 70.2052C21.5954 70.6119 20.3142 70.5377 19.2001 69.9988C18.0859 69.46 17.2298 68.5004 16.8197 67.3308L1.54183 23.6078C1.13429 22.4373 1.20645 21.1533 1.74249 20.0377C2.27852 18.9221 3.23463 18.066 4.40099 17.6572L35.6441 6.73769C36.8111 6.33148 38.0919 6.40602 39.2057 6.94498C40.3195 7.48394 41.1752 8.44329 41.5853 9.6126L51.0718 36.7615C51.1085 36.8582 51.1256 36.9612 51.122 37.0645C51.1184 37.1678 51.0941 37.2693 51.0507 37.363C51.0073 37.4567 50.9455 37.5407 50.8691 37.61C50.7927 37.6794 50.7032 37.7326 50.6058 37.7666C50.5085 37.8006 50.4053 37.8148 50.3024 37.8081C50.1994 37.8015 50.0988 37.7742 50.0065 37.728C49.9141 37.6818 49.8319 37.6175 49.7648 37.5389C49.6976 37.4603 49.6468 37.3691 49.6154 37.2705L40.1289 10.1216C39.8546 9.33944 39.2821 8.69772 38.5371 8.33725C37.792 7.97678 36.9352 7.927 36.1547 8.19882L4.91154 19.1183C4.1316 19.3919 3.49231 19.9645 3.13392 20.7107C2.77554 21.4568 2.72733 22.3154 2.99988 23.0982L18.2778 66.8213C18.552 67.6034 19.1245 68.2451 19.8696 68.6056C20.6146 68.9661 21.4714 69.0159 22.252 68.744L53.4951 57.8246C53.6883 57.757 53.9005 57.7693 54.085 57.8585C54.2695 57.9478 54.4111 58.1068 54.4788 58.3005C54.5466 58.4943 54.5347 58.7069 54.446 58.8917C54.3572 59.0764 54.1988 59.2182 54.0056 59.2857Z" fill="url(#paint0_linear_4234_3316)" fill-opacity="0.8"/>
<path d="M37.0354 56.162L26.0093 60.0156C25.5158 60.1881 24.9738 60.1569 24.5025 59.9289C24.0312 59.701 23.6693 59.2948 23.4964 58.7999L22.9479 57.2303C22.775 56.7354 22.8052 56.1922 23.0319 55.7203C23.2586 55.2484 23.6632 54.8864 24.1568 54.7139L35.1829 50.8602C35.3761 50.7927 35.5883 50.8049 35.7728 50.8942C35.9573 50.9834 36.0989 51.1424 36.1666 51.3361C36.2343 51.5299 36.2225 51.7425 36.1338 51.9272C36.045 52.112 35.8866 52.2537 35.6934 52.3212L24.6673 56.1749C24.5617 56.2134 24.4753 56.2917 24.4265 56.3932C24.3778 56.4946 24.3705 56.6112 24.4063 56.7181L24.9548 58.2878C24.9934 58.3937 25.0717 58.4804 25.173 58.5294C25.2743 58.5784 25.3907 58.5859 25.4973 58.5502L36.5234 54.6966C36.7166 54.6291 36.9288 54.6413 37.1133 54.7305C37.2978 54.8197 37.4394 54.9787 37.5071 55.1725C37.5748 55.3662 37.563 55.5788 37.4743 55.7636C37.3855 55.9483 37.2271 56.09 37.0339 56.1576L37.0354 56.162Z" fill="url(#paint1_linear_4234_3316)" fill-opacity="0.8"/>
<path d="M17.851 37.8118C17.44 37.9358 17.0071 37.9699 16.5815 37.9119C15.675 37.8258 14.797 37.5469 14.006 37.0939C13.215 36.6409 12.5293 36.0242 11.9945 35.2849C11.8481 35.0834 11.7149 34.8726 11.5959 34.6537C11.502 34.4737 11.4824 34.264 11.5413 34.0699C11.6002 33.8758 11.7329 33.7128 11.9107 33.6161C12.0886 33.5193 12.2974 33.4966 12.4921 33.5527C12.6868 33.6089 12.8518 33.7394 12.9516 33.9162C13.0385 34.0758 13.1357 34.2294 13.2426 34.3763C13.6485 34.9381 14.1693 35.4068 14.7702 35.751C15.3711 36.0951 16.0382 36.3067 16.7269 36.3717C16.8383 36.3836 16.9502 36.3889 17.0622 36.3876C16.9839 36.2056 16.8741 35.9988 16.8258 35.9079L16.7895 35.8392C16.7739 35.8102 16.7563 35.7776 16.741 35.7496L16.7106 35.7381L16.5885 35.6946C16.0331 35.5293 15.5191 35.2469 15.0812 34.8663C14.7944 34.5989 14.5736 34.2684 14.4361 33.9009C14.2986 33.5335 14.2483 33.1391 14.2892 32.7491C14.4661 31.7701 15.4503 31.5426 15.8193 31.4543C16.4038 31.3199 17.0018 31.2528 17.6018 31.2544C17.8797 31.241 18.1552 31.3129 18.3915 31.4605C18.6278 31.6082 18.8137 31.8246 18.9241 32.0808C19.0052 32.2372 19.0909 32.4314 19.1735 32.6188C19.4068 32.4718 19.6015 32.2711 19.7416 32.0334C19.9777 31.5283 20.0084 30.9506 19.8272 30.4224C19.6351 29.9957 19.37 29.6058 19.0439 29.2704C18.9259 29.133 18.8148 29.0031 18.7102 28.869C18.4722 28.608 18.2955 28.297 18.1931 27.9588C18.0907 27.6206 18.0651 27.2638 18.1182 26.9147C18.3304 26.2958 18.7491 25.7695 19.3036 25.4244C19.4102 25.3464 19.5215 25.2694 19.6329 25.1928C19.8885 25.0387 20.1208 24.8486 20.3226 24.6285C20.377 24.5435 20.2696 24.2571 20.0425 23.8813C19.6204 23.1832 18.9601 22.434 18.3734 22.4247L18.3495 22.4251C18.1467 22.4261 17.9515 22.3472 17.806 22.2052C17.6606 22.0632 17.5767 21.8697 17.5724 21.6664C17.5681 21.4632 17.6438 21.2665 17.7831 21.119C17.9225 20.9715 18.1142 20.885 18.3169 20.8782L18.3941 20.8777C19.8308 20.901 20.8705 22.2683 21.3622 23.0813C21.7656 23.749 22.1601 24.6231 21.6231 25.4643C21.3222 25.8691 20.9446 26.2104 20.5117 26.4686C20.413 26.5376 20.3141 26.6061 20.2159 26.6767C19.7048 27.0506 19.6246 27.243 19.6118 27.2925C19.5919 27.3727 19.6606 27.5834 19.9224 27.9194C20.0041 28.025 20.1042 28.141 20.2099 28.2642C20.6608 28.739 21.0209 29.2927 21.272 29.8978C21.4377 30.3647 21.5073 30.8603 21.4766 31.3545C21.4459 31.8488 21.3156 32.3316 21.0935 32.7737C20.7227 33.3939 20.1783 33.8911 19.5277 34.2035C19.393 34.299 19.2391 34.364 19.0768 34.3941C18.9145 34.4241 18.7475 34.4185 18.5874 34.3776C18.4538 34.3271 18.3322 34.249 18.2306 34.1483C18.129 34.0477 18.0496 33.9268 17.9976 33.7935C17.9472 33.6879 17.8859 33.5424 17.8215 33.3912C17.7336 33.1855 17.6345 32.9528 17.5564 32.7996L17.5526 32.801C17.088 32.8047 16.6254 32.8592 16.1728 32.9635C16.0473 32.9885 15.9249 33.0273 15.808 33.0793C15.8454 33.335 15.9651 33.5715 16.1489 33.7528C16.431 33.9744 16.7533 34.1387 17.098 34.2366L17.2389 34.2884C17.443 34.3491 17.6311 34.4549 17.7892 34.598C17.9473 34.7411 18.0714 34.9179 18.1524 35.1153L18.1879 35.1817C18.5555 35.7064 18.7199 36.347 18.6505 36.9836C18.6001 37.1793 18.4999 37.3584 18.3598 37.5035C18.2197 37.6487 18.0444 37.7549 17.851 37.8118Z" fill="url(#paint2_linear_4234_3316)" fill-opacity="0.8"/>
<path d="M37.8617 42.197C37.7347 42.2415 37.5983 42.2519 37.4659 42.2271C37.3336 42.2024 37.21 42.1434 37.1073 42.056C36.7111 41.7059 36.4268 41.2464 36.2904 40.7352C36.1539 40.2239 36.1714 39.6839 36.3406 39.1832C36.381 39.06 36.4334 38.9216 36.4824 38.777C36.5929 38.4875 36.6871 38.1921 36.7645 37.8919C36.7988 37.7304 36.8199 37.5662 36.8277 37.4012C36.836 36.9183 36.9834 36.4483 37.252 36.0477C37.5228 35.5356 37.8994 35.0874 38.3568 34.7328C38.4684 34.6427 38.607 34.5314 38.7935 34.3708C38.8594 34.1874 38.9048 33.9972 38.9288 33.8037C38.9619 33.5671 39.0152 33.3338 39.088 33.1064C39.0937 33.0909 39.6636 31.5547 40.6272 31.7112C40.7718 31.7367 40.9097 31.7919 41.0321 31.8733C41.2627 31.5885 41.5747 31.3813 41.9263 31.2793C42.1753 31.1505 42.4652 31.1257 42.7327 31.2104C43.0002 31.295 43.2237 31.4822 43.3543 31.7311C43.447 31.9366 43.5052 32.156 43.5265 32.3804C43.5347 32.4391 43.5468 32.5211 43.5573 32.5722C43.6689 32.7343 43.7147 32.9328 43.6855 33.1273C43.6563 33.3218 43.5542 33.4977 43.4 33.6192C43.2458 33.7408 43.0511 33.7988 42.8555 33.7815C42.6599 33.7641 42.4782 33.6728 42.3472 33.526C42.2659 33.4339 42.1991 33.33 42.1492 33.2177C42.1253 33.1608 42.1049 33.1026 42.0882 33.0432C41.9947 33.158 41.885 33.2586 41.7626 33.3417C41.6019 33.4553 41.4142 33.5243 41.2182 33.5419C41.0223 33.5594 40.8251 33.5249 40.6466 33.4417C40.6089 33.5044 40.5745 33.5691 40.5436 33.6354C40.5047 33.7773 40.4747 33.9215 40.4537 34.0671C40.4217 34.6143 40.1986 35.1325 39.8234 35.5308C39.6071 35.7166 39.4464 35.8473 39.3282 35.9416C39.0017 36.1946 38.737 36.5188 38.554 36.8896C38.4281 37.072 38.3648 37.2906 38.3737 37.5125C38.3605 37.7554 38.3278 37.9969 38.2759 38.2345C38.1856 38.5966 38.0738 38.953 37.9413 39.3017C37.8938 39.4329 37.8467 39.5584 37.8129 39.6687C37.7406 39.877 37.7304 40.1018 37.7834 40.316C37.8364 40.5301 37.9504 40.7243 38.1115 40.8749C38.2153 40.9631 38.2941 41.0771 38.3399 41.2055C38.3857 41.3339 38.3968 41.4721 38.3722 41.6061C38.3476 41.7401 38.2881 41.8651 38.1997 41.9685C38.1114 42.072 37.9973 42.1501 37.869 42.1951L37.8617 42.197Z" fill="url(#paint3_linear_4234_3316)" fill-opacity="0.8"/>
<path d="M32.913 49.1704C29.465 50.37 25.7107 50.3593 22.2653 49.1402C18.82 47.921 15.8881 45.5657 13.9501 42.4602C12.0122 39.3548 11.1831 35.6834 11.5989 32.0479C12.0146 28.4123 13.6505 25.0283 16.2384 22.4504C18.8262 19.8725 22.2126 18.2537 25.8424 17.8592C29.4723 17.4648 33.1303 18.3181 36.2168 20.2794C39.3034 22.2406 41.6355 25.1935 42.8308 28.6539C44.0262 32.1144 44.0139 35.8772 42.796 39.3256C42.6752 39.669 42.5403 40.0124 42.3963 40.3473C42.3597 40.4453 42.3035 40.5348 42.2313 40.6103C42.1591 40.6859 42.0722 40.7459 41.9761 40.7868C41.88 40.8277 41.7765 40.8486 41.672 40.8483C41.5675 40.8479 41.4642 40.8262 41.3682 40.7847C41.2722 40.7431 41.1856 40.6824 41.1137 40.6063C41.0417 40.5303 40.9859 40.4404 40.9496 40.3421C40.9133 40.2438 40.8973 40.1392 40.9025 40.0346C40.9077 39.93 40.9341 39.8276 40.98 39.7336C41.1102 39.4313 41.2318 39.1202 41.3409 38.8068C42.4641 35.6286 42.4537 32.1567 41.3115 28.9815C40.1693 25.8062 37.9659 23.1235 35.0757 21.3895C32.1855 19.6555 28.7871 18.9772 25.4582 19.47C22.1292 19.9628 19.0753 21.5961 16.8156 24.0924C14.5558 26.5887 13.2298 29.7938 13.0628 33.1629C12.8959 36.5319 13.8984 39.8569 15.8999 42.5726C17.9014 45.2883 20.7784 47.227 24.0417 48.0591C27.3049 48.8913 30.7531 48.5655 33.8 47.1371C33.9849 47.0529 34.1956 47.0453 34.3863 47.1158C34.5771 47.1864 34.7325 47.3294 34.8189 47.5139C34.9053 47.6985 34.9157 47.9095 34.8477 48.1014C34.7798 48.2932 34.6391 48.4504 34.4562 48.5387C33.9529 48.7754 33.4378 48.9862 32.913 49.1704Z" fill="url(#paint4_linear_4234_3316)" fill-opacity="0.8"/>
<path d="M33.3572 33.6939C33.0652 33.7982 32.7524 33.8303 32.4452 33.7876C32.1379 33.7448 31.8454 33.6285 31.5923 33.4484L28.6948 31.4308C28.6451 31.393 28.5871 31.3677 28.5256 31.357C28.4642 31.3463 28.4011 31.3506 28.3417 31.3695L27.3867 31.6244C27.1038 31.6996 26.8076 31.7107 26.5196 31.6569C26.2317 31.6031 25.9592 31.4857 25.722 31.3132C25.4847 31.1407 25.2887 30.9175 25.1482 30.6598C25.0076 30.4021 24.926 30.1164 24.9094 29.8233L24.8598 28.9328C24.8286 28.4198 24.9992 27.9153 25.335 27.5276C25.6709 27.1398 26.1452 26.8997 26.6562 26.8588L27.1155 26.8214C27.222 26.8131 27.3214 26.7647 27.3938 26.686C27.4662 26.6072 27.5061 26.5039 27.5057 26.3968L27.5068 24.6423C27.5075 24.3502 27.5729 24.062 27.6981 23.7984C27.8233 23.5349 28.0053 23.3025 28.231 23.1181C28.4567 22.9337 28.7205 22.8017 29.0033 22.7318C29.2862 22.6619 29.5811 22.6557 29.8669 22.7137L31.0804 22.9615C31.3557 23.0146 31.6161 23.1275 31.8434 23.2921C32.0707 23.4568 32.2593 23.6693 32.3961 23.9146L33.1645 25.2542C33.2046 25.3306 33.2691 25.3913 33.3476 25.4267L35.46 26.4487C35.7328 26.5773 35.972 26.7681 36.1582 27.0058C36.3445 27.2435 36.4728 27.5214 36.5328 27.8175L37.0801 30.3664C37.1792 30.8134 37.1187 31.2808 36.9092 31.6871C36.6997 32.0935 36.3544 32.4131 35.9336 32.5902L33.4943 33.6398C33.4497 33.6616 33.4032 33.6778 33.3572 33.6939ZM26.6839 28.4197C26.5966 28.4503 26.5215 28.5084 26.4698 28.5853C26.4181 28.6621 26.3926 28.7537 26.397 28.8464L26.4467 29.7375C26.4501 29.801 26.4676 29.8629 26.498 29.9187C26.5284 29.9746 26.5708 30.023 26.6222 30.0603C26.6735 30.0977 26.7326 30.1231 26.7949 30.1347C26.8573 30.1463 26.9215 30.1437 26.9827 30.1273L27.9377 29.8723C28.2143 29.7959 28.5044 29.782 28.7872 29.8315C29.07 29.8811 29.3384 29.9928 29.5732 30.1587L32.4709 32.1769C32.5293 32.2208 32.5985 32.2478 32.6711 32.255C32.7437 32.2622 32.8168 32.2494 32.8826 32.2178L35.3219 31.1681C35.4135 31.1306 35.4888 31.0615 35.5341 30.9733C35.5795 30.8851 35.592 30.7835 35.5695 30.6868L35.0255 28.1318C35.0145 28.0669 34.9875 28.0057 34.9469 27.954C34.9063 27.9022 34.8534 27.8615 34.793 27.8355L32.6806 26.8135C32.3207 26.6436 32.0226 26.3654 31.8277 26.0177L31.059 24.6788C31.0309 24.6242 30.9904 24.5769 30.9407 24.5407C30.8911 24.5046 30.8337 24.4806 30.7731 24.4708L29.5596 24.2229C29.4977 24.2102 29.4338 24.2114 29.3725 24.2264C29.3112 24.2414 29.254 24.2699 29.205 24.3099C29.1561 24.3498 29.1166 24.4001 29.0895 24.4572C29.0624 24.5143 29.0483 24.5767 29.0482 24.64L29.0473 26.3951C29.0491 26.8899 28.8645 27.3668 28.5304 27.7304C28.1963 28.0941 27.7373 28.3177 27.2453 28.3565L26.786 28.3938C26.751 28.3982 26.7167 28.4069 26.6839 28.4197Z" fill="url(#paint5_linear_4234_3316)" fill-opacity="0.8"/>
<path d="M26.3372 49.7502C25.9407 49.8987 25.5111 49.9362 25.0946 49.8586C24.8943 49.8155 24.7192 49.6944 24.6077 49.5221C24.4963 49.3497 24.4577 49.1401 24.5004 48.9395C24.5431 48.7388 24.6636 48.5635 24.8354 48.4521C25.0072 48.3408 25.2162 48.3024 25.4165 48.3455C25.6579 48.3462 25.8951 48.2822 26.1034 48.1602C26.3117 48.0381 26.4835 47.8624 26.6012 47.6512L26.937 46.2676C27.0514 45.7782 27.3324 45.3444 27.7317 45.0407L28.9063 44.1313C29.0248 44.043 29.1097 43.9168 29.147 43.7736C29.1844 43.6303 29.172 43.4785 29.1118 43.3431L28.2914 41.4015C28.2532 41.3058 28.1914 41.2215 28.1118 41.1563L26.5146 39.7805C26.4249 39.6976 26.3131 39.6425 26.1929 39.622C26.0726 39.6015 25.9491 39.6164 25.8373 39.6649L23.8892 40.4296C23.7575 40.4784 23.6453 40.5687 23.5694 40.687C23.4934 40.8053 23.4578 40.9451 23.468 41.0855L23.5127 41.9322C23.5212 42.0917 23.4803 42.2498 23.3955 42.3849C23.3107 42.5199 23.1863 42.6253 23.0392 42.6865L20.4378 43.7749C20.3146 43.8256 20.2096 43.9124 20.1367 44.0241C20.0638 44.1358 20.0264 44.267 20.0294 44.4005L19.9799 46.7829C19.9797 46.8858 19.9591 46.9875 19.9192 47.0822C19.8794 47.1769 19.821 47.2626 19.7477 47.3344C19.6743 47.4062 19.5874 47.4625 19.492 47.5002C19.3966 47.5379 19.2946 47.5561 19.192 47.5538C19.0894 47.5515 18.9883 47.5287 18.8945 47.4868C18.8008 47.4449 18.7162 47.3846 18.6459 47.3096C18.5756 47.2346 18.5209 47.1464 18.4849 47.05C18.449 46.9536 18.4326 46.851 18.4367 46.7483L18.4861 44.3659C18.4892 43.9329 18.6193 43.5106 18.8603 43.1517C19.1013 42.7928 19.4425 42.5131 19.8414 42.3475L21.9416 41.4681L21.9256 41.1657C21.8956 40.7001 22.0151 40.2373 22.2667 39.8451C22.5182 39.453 22.8886 39.1521 23.3235 38.9865L25.2716 38.2218C25.6449 38.0723 26.0524 38.0292 26.449 38.097C26.8456 38.1649 27.216 38.3412 27.5193 38.6065L29.1158 39.98C29.3768 40.201 29.5812 40.4815 29.7118 40.7979L30.5321 42.7396C30.7269 43.1896 30.7655 43.692 30.6416 44.1661C30.5178 44.6403 30.2387 45.0587 29.849 45.3545L28.6744 46.2639C28.5514 46.3528 28.4661 46.4846 28.435 46.6334L28.0994 48.0176C27.9628 48.4253 27.732 48.7948 27.4257 49.0958C27.1195 49.3969 26.7465 49.6211 26.3372 49.7502Z" fill="url(#paint6_linear_4234_3316)" fill-opacity="0.8"/>
<path d="M69.3552 53.9209L42.865 63.1792C41.8737 63.5244 40.7857 63.4611 39.8395 63.0032C38.8934 62.5454 38.1664 61.7304 37.8182 60.737L32.849 46.516C32.5027 45.522 32.5636 44.4315 33.0185 43.4839C33.4735 42.5362 34.2852 41.8088 35.2756 41.4612L61.7658 32.2028C62.7573 31.8571 63.8459 31.9201 64.7925 32.378C65.739 32.8359 66.4663 33.6512 66.8145 34.645L71.7837 48.8661C72.13 49.8603 72.0687 50.951 71.6134 51.8987C71.1582 52.8464 70.346 53.5737 69.3552 53.9209ZM35.7879 42.9254C35.1834 43.1368 34.6877 43.58 34.4095 44.1578C34.1313 44.7356 34.0933 45.4008 34.3038 46.0075L39.273 60.2286C39.4854 60.8348 39.9291 61.3322 40.5065 61.6115C41.0839 61.8909 41.7479 61.9294 42.3528 61.7187L68.8431 52.4604C69.4474 52.2483 69.9427 51.8045 70.2204 51.2263C70.498 50.6481 70.5353 49.9828 70.324 49.3762L65.3548 35.1552C65.1422 34.5492 64.6987 34.0521 64.1215 33.7728C63.5442 33.4935 62.8804 33.4549 62.2757 33.6654L35.7879 42.9254Z" fill="url(#paint7_linear_4234_3316)" fill-opacity="0.8"/>
<path d="M67.0582 50.3524L56.421 54.0701C56.228 54.1369 56.0164 54.1242 55.8325 54.0348C55.6486 53.9454 55.5074 53.7866 55.44 53.5932L51.0844 41.128C51.0508 41.0321 51.0364 40.9306 51.042 40.8292C51.0475 40.7278 51.073 40.6285 51.1169 40.537C51.1608 40.4455 51.2223 40.3637 51.2978 40.2961C51.3733 40.2285 51.4614 40.1765 51.557 40.143L62.192 36.4261C62.2876 36.3927 62.389 36.3785 62.4902 36.3843C62.5914 36.3901 62.6905 36.4159 62.7819 36.4601C62.8732 36.5043 62.955 36.5661 63.0226 36.6419C63.0902 36.7177 63.1422 36.8062 63.1757 36.9021L67.5314 49.3673C67.5649 49.4632 67.5792 49.5648 67.5736 49.6662C67.568 49.7676 67.5424 49.8669 67.4985 49.9584C67.4546 50.0499 67.3931 50.1318 67.3175 50.1994C67.242 50.267 67.1538 50.319 67.0582 50.3524ZM56.6411 52.3536L65.8191 49.1459L61.9741 38.1419L52.7939 41.3503L56.6411 52.3536Z" fill="url(#paint8_linear_4234_3316)" fill-opacity="0.8"/>
<path d="M59.62 46.1453C59.0994 46.3273 58.5363 46.3504 58.002 46.2116C57.4677 46.0728 56.9862 45.7785 56.6184 45.3657C56.2506 44.953 56.013 44.4404 55.9356 43.8928C55.8583 43.3452 55.9447 42.7872 56.1838 42.2894C56.423 41.7915 56.8042 41.3761 57.2793 41.0958C57.7544 40.8154 58.302 40.6827 58.8528 40.7144C59.4037 40.7461 59.933 40.9408 60.374 41.2738C60.815 41.6068 61.1477 42.0632 61.3302 42.5854C61.5738 43.2855 61.5307 44.0535 61.2101 44.7209C60.8895 45.3883 60.3177 45.9005 59.62 46.1453ZM58.2857 42.3266C58.0531 42.4078 57.85 42.5564 57.7019 42.7535C57.5539 42.9506 57.4675 43.1874 57.4538 43.4339C57.4401 43.6804 57.4996 43.9256 57.6249 44.1384C57.7502 44.3512 57.9356 44.5222 58.1576 44.6296C58.3796 44.737 58.6283 44.776 58.8722 44.7418C59.1162 44.7076 59.3444 44.6017 59.5281 44.4374C59.7117 44.273 59.8425 44.0578 59.9039 43.8188C59.9654 43.5797 59.9547 43.3277 59.8732 43.0946C59.7637 42.7821 59.535 42.5257 59.2374 42.3817C58.9398 42.2377 58.5975 42.2179 58.2857 42.3266Z" fill="url(#paint9_linear_4234_3316)" fill-opacity="0.8"/>
<path d="M65.0498 51.0101C64.8565 51.0777 64.6444 51.0655 64.4599 50.9762C64.2754 50.887 64.1337 50.728 64.066 50.5343L63.4426 48.75C63.2928 48.3229 62.9803 47.9724 62.5734 47.7755C62.1666 47.5786 61.6987 47.5514 61.2724 47.6997L59.2966 48.3902C58.8704 48.5395 58.5209 48.8523 58.325 49.2599C58.129 49.6675 58.1025 50.1366 58.2513 50.5643L58.875 52.3491C58.9117 52.4458 58.9288 52.5488 58.9252 52.6521C58.9216 52.7554 58.8973 52.8569 58.8539 52.9506C58.8104 53.0443 58.7487 53.1283 58.6723 53.1976C58.5959 53.2669 58.5064 53.3201 58.409 53.3542C58.3117 53.3882 58.2085 53.4023 58.1055 53.3957C58.0026 53.389 57.902 53.3618 57.8096 53.3156C57.7173 53.2693 57.6351 53.205 57.568 53.1265C57.5008 53.0479 57.45 52.9567 57.4186 52.8582L56.7949 51.0734C56.5101 50.2582 56.5598 49.3636 56.9332 48.5864C57.3066 47.8091 57.9731 47.2128 58.7859 46.9287L60.7617 46.2382C61.5746 45.9541 62.4673 46.0054 63.2435 46.3809C64.0197 46.7564 64.6158 47.4253 64.9006 48.2404L65.5243 50.0252C65.5577 50.1212 65.572 50.2229 65.5663 50.3243C65.5605 50.4258 65.5349 50.5251 65.4908 50.6166C65.4468 50.708 65.3851 50.7899 65.3094 50.8574C65.2338 50.9249 65.1455 50.9768 65.0498 51.0101Z" fill="url(#paint10_linear_4234_3316)" fill-opacity="0.8"/>
<path d="M49.0648 42.654L40.5114 45.6434C40.3182 45.7109 40.1061 45.6987 39.9216 45.6095C39.7371 45.5202 39.5954 45.3612 39.5277 45.1675C39.46 44.9738 39.4718 44.7611 39.5606 44.5764C39.6493 44.3917 39.8077 44.2499 40.0009 44.1824L48.5543 41.193C48.7475 41.1255 48.9597 41.1377 49.1442 41.2269C49.3287 41.3162 49.4704 41.4752 49.5381 41.6689C49.6057 41.8626 49.5939 42.0753 49.5052 42.26C49.4164 42.4447 49.258 42.5865 49.0648 42.654Z" fill="url(#paint11_linear_4234_3316)" fill-opacity="0.8"/>
<path d="M50.5164 46.8092L45.5993 48.5277C45.4061 48.5952 45.1939 48.583 45.0095 48.4937C44.825 48.4045 44.6833 48.2455 44.6156 48.0518C44.5479 47.858 44.5597 47.6454 44.6485 47.4607C44.7372 47.2759 44.8956 47.1342 45.0888 47.0667L50.0059 45.3482C50.1991 45.2807 50.4113 45.2929 50.5957 45.3821C50.7802 45.4714 50.9219 45.6303 50.9896 45.8241C51.0573 46.0178 51.0455 46.2304 50.9567 46.4152C50.868 46.5999 50.7096 46.7416 50.5164 46.8092Z" fill="url(#paint12_linear_4234_3316)" fill-opacity="0.8"/>
<path d="M51.9676 50.9631L44.8366 53.4554C44.6434 53.5229 44.4312 53.5107 44.2468 53.4215C44.0623 53.3322 43.9206 53.1733 43.8529 52.9795C43.7852 52.7858 43.797 52.5731 43.8858 52.3884C43.9745 52.2037 44.1329 52.0619 44.3261 51.9944L51.4571 49.5022C51.6503 49.4346 51.8624 49.4468 52.0469 49.5361C52.2314 49.6253 52.3731 49.7843 52.4408 49.9781C52.5085 50.1718 52.4967 50.3844 52.4079 50.5692C52.3192 50.7539 52.1608 50.8956 51.9676 50.9631Z" fill="url(#paint13_linear_4234_3316)" fill-opacity="0.8"/>
<path d="M53.4193 55.1193L43.5847 58.5565C43.3915 58.624 43.1793 58.6118 42.9948 58.5226C42.8103 58.4333 42.6687 58.2743 42.601 58.0806C42.5333 57.8869 42.5451 57.6742 42.6338 57.4895C42.7226 57.3047 42.881 57.163 43.0742 57.0955L52.9088 53.6583C53.102 53.5908 53.3142 53.603 53.4987 53.6922C53.6832 53.7815 53.8249 53.9404 53.8925 54.1342C53.9602 54.3279 53.9484 54.5405 53.8597 54.7253C53.7709 54.91 53.6125 55.0518 53.4193 55.1193Z" fill="url(#paint14_linear_4234_3316)" fill-opacity="0.8"/>
<defs>
<linearGradient id="paint0_linear_4234_3316" x1="32.1519" y1="-1.17224" x2="31.3155" y2="63.7574" gradientUnits="userSpaceOnUse">
<stop offset="0.0587783" stop-color="#FE6032"/>
<stop offset="1" stop-color="#FE6032" stop-opacity="0.37"/>
</linearGradient>
<linearGradient id="paint1_linear_4234_3316" x1="33.9079" y1="50.3847" x2="35.4789" y2="57.1359" gradientUnits="userSpaceOnUse">
<stop offset="0.0587783" stop-color="#FE6032"/>
<stop offset="1" stop-color="#FE6032" stop-opacity="0.37"/>
</linearGradient>
<linearGradient id="paint2_linear_4234_3316" x1="18.0582" y1="18.3287" x2="18.3057" y2="37.008" gradientUnits="userSpaceOnUse">
<stop offset="0.0587783" stop-color="#FE6032"/>
<stop offset="1" stop-color="#FE6032" stop-opacity="0.37"/>
</linearGradient>
<linearGradient id="paint3_linear_4234_3316" x1="41.4114" y1="29.8369" x2="42.292" y2="40.7196" gradientUnits="userSpaceOnUse">
<stop offset="0.0587783" stop-color="#FE6032"/>
<stop offset="1" stop-color="#FE6032" stop-opacity="0.37"/>
</linearGradient>
<linearGradient id="paint4_linear_4234_3316" x1="31.9992" y1="9.96785" x2="34.505" y2="48.5258" gradientUnits="userSpaceOnUse">
<stop offset="0.0587783" stop-color="#FE6032"/>
<stop offset="1" stop-color="#FE6032" stop-opacity="0.37"/>
</linearGradient>
<linearGradient id="paint5_linear_4234_3316" x1="32.1454" y1="19.69" x2="33.0505" y2="33.7635" gradientUnits="userSpaceOnUse">
<stop offset="0.0587783" stop-color="#FE6032"/>
<stop offset="1" stop-color="#FE6032" stop-opacity="0.37"/>
</linearGradient>
<linearGradient id="paint6_linear_4234_3316" x1="26.46" y1="35.9609" x2="27.7774" y2="49.4516" gradientUnits="userSpaceOnUse">
<stop offset="0.0587783" stop-color="#FE6032"/>
<stop offset="1" stop-color="#FE6032" stop-opacity="0.37"/>
</linearGradient>
<linearGradient id="paint7_linear_4234_3316" x1="60.0472" y1="29.0299" x2="64.5464" y2="56.789" gradientUnits="userSpaceOnUse">
<stop offset="0.0587783" stop-color="#FE6032"/>
<stop offset="1" stop-color="#FE6032" stop-opacity="0.37"/>
</linearGradient>
<linearGradient id="paint8_linear_4234_3316" x1="60.6425" y1="34.5479" x2="61.1132" y2="51.9866" gradientUnits="userSpaceOnUse">
<stop offset="0.0587783" stop-color="#FE6032"/>
<stop offset="1" stop-color="#FE6032" stop-opacity="0.37"/>
</linearGradient>
<linearGradient id="paint9_linear_4234_3316" x1="59.4582" y1="39.3599" x2="59.8922" y2="46.035" gradientUnits="userSpaceOnUse">
<stop offset="0.0587783" stop-color="#FE6032"/>
<stop offset="1" stop-color="#FE6032" stop-opacity="0.37"/>
</linearGradient>
<linearGradient id="paint10_linear_4234_3316" x1="62.5012" y1="44.6557" x2="63.5593" y2="51.8215" gradientUnits="userSpaceOnUse">
<stop offset="0.0587783" stop-color="#FE6032"/>
<stop offset="1" stop-color="#FE6032" stop-opacity="0.37"/>
</linearGradient>
<linearGradient id="paint11_linear_4234_3316" x1="47.9417" y1="41.1533" x2="48.5012" y2="42.9896" gradientUnits="userSpaceOnUse">
<stop offset="0.0587783" stop-color="#FE6032"/>
<stop offset="1" stop-color="#FE6032" stop-opacity="0.37"/>
</linearGradient>
<linearGradient id="paint12_linear_4234_3316" x1="49.8517" y1="45.1482" x2="50.3682" y2="46.9947" gradientUnits="userSpaceOnUse">
<stop offset="0.0587783" stop-color="#FE6032"/>
<stop offset="1" stop-color="#FE6032" stop-opacity="0.37"/>
</linearGradient>
<linearGradient id="paint13_linear_4234_3316" x1="51.0237" y1="49.3998" x2="51.5708" y2="51.2392" gradientUnits="userSpaceOnUse">
<stop offset="0.0587783" stop-color="#FE6032"/>
<stop offset="1" stop-color="#FE6032" stop-opacity="0.37"/>
</linearGradient>
<linearGradient id="paint14_linear_4234_3316" x1="52.1346" y1="53.675" x2="52.7027" y2="55.5091" gradientUnits="userSpaceOnUse">
<stop offset="0.0587783" stop-color="#FE6032"/>
<stop offset="1" stop-color="#FE6032" stop-opacity="0.37"/>
</linearGradient>
</defs>
</svg>
