<svg width="95" height="62" viewBox="0 0 95 62" fill="none" xmlns="http://www.w3.org/2000/svg">
<path fill-rule="evenodd" clip-rule="evenodd" d="M65.1425 56.6471C73.0289 57.4864 81.1362 57.7635 88.4694 61.0844C88.9951 61.3233 89.6156 61.0876 89.8542 60.5654C90.0931 60.0397 89.8574 59.4192 89.3317 59.1804C81.7929 55.7657 73.4703 55.4289 65.3655 54.5682C64.7903 54.5071 64.2773 54.9229 64.2164 55.4946C64.1553 56.0698 64.571 56.5828 65.1425 56.6471Z" fill="#35312B"/>
<path fill-rule="evenodd" clip-rule="evenodd" d="M65.5021 45.0541C68.1345 43.0034 70.9429 41.534 74.2404 40.9629C74.8077 40.8644 75.1877 40.323 75.091 39.7548C74.9908 39.1863 74.4524 38.8052 73.8816 38.9034C70.2367 39.5345 67.1271 41.1389 64.2183 43.4049C63.7628 43.7594 63.681 44.4164 64.0351 44.8715C64.3892 45.3267 65.0466 45.4086 65.5021 45.0541Z" fill="#35312B"/>
<path fill-rule="evenodd" clip-rule="evenodd" d="M60.724 19.6182C62.1603 15.872 64.6113 13.0501 68.1674 11.159C68.6755 10.8882 68.8707 10.2548 68.5979 9.74556C68.3286 9.23623 67.6944 9.04264 67.1863 9.31378C63.1662 11.4506 60.3951 14.6371 58.7721 18.8705C58.5671 19.4091 58.8356 20.0138 59.3744 20.2202C59.9132 20.4266 60.519 20.1568 60.724 19.6182Z" fill="#35312B"/>
<path fill-rule="evenodd" clip-rule="evenodd" d="M21.7839 11.0506C21.0676 11.7726 20.4159 12.558 19.8433 13.4024C19.5098 13.8891 18.8984 15.0365 18.9145 15.905C18.9275 16.5558 19.19 17.1058 19.7756 17.4656C20.7105 18.0415 21.4967 18.0448 22.1219 17.7944C22.7218 17.5549 23.2259 17.0336 23.5726 16.3018C24.1901 14.9952 24.2983 12.9524 24.1421 11.7036C24.8945 11.0527 25.7077 10.4714 26.5638 9.9635C33.1473 6.06358 42.1397 8.46017 48.6224 15.6309C50.8944 18.1431 51.666 23.0959 51.8511 28.3809C52.1459 36.6742 50.8413 45.8026 50.5444 48.484C50.469 49.1898 50.511 49.6155 50.5388 49.702C50.6954 50.18 51.0326 50.33 51.2684 50.3948C51.6001 50.4849 51.8728 50.4409 52.101 50.3443C52.4051 50.2155 52.6701 49.9674 52.8155 49.5592C52.8885 49.3505 52.9302 49.0558 52.9492 48.7389C52.9576 48.5512 52.9292 48.3434 52.9784 48.2125C53.3265 47.2928 53.7283 46.3992 54.1203 45.4988C55.4383 42.4699 57.0562 39.6632 58.8197 36.8715C64.4377 27.9965 69.9289 18.5795 78.4696 12.1674C78.9314 11.8211 79.0271 11.1659 78.6805 10.7044C78.3339 10.2433 77.6774 10.1499 77.2156 10.4962C68.4701 17.0607 62.8026 26.6673 57.0553 35.7543C55.7182 37.8655 54.4676 39.9869 53.3598 42.2005C53.8671 37.0394 54.3166 30.026 53.6416 24.1517C53.1639 19.9629 52.0872 16.343 50.1739 14.2294C42.9414 6.22957 32.8425 3.81419 25.4984 8.16517C24.7748 8.59304 24.0822 9.06821 23.4209 9.58788C20.262 2.84641 12.7535 -0.341404 5.66854 2.21504C5.12816 2.41118 4.84482 3.01044 5.04149 3.55296C5.23815 4.09548 5.8372 4.37705 6.37758 4.18091C12.6232 1.92785 19.2433 4.91031 21.7839 11.0506ZM22.0916 13.8608C21.9117 14.0939 21.7384 14.3327 21.5715 14.5773C21.4526 14.7486 21.2706 15.049 21.1355 15.3748C21.0913 15.4883 21.0485 15.669 21.0255 15.7796C21.1489 15.8513 21.2504 15.8918 21.3479 15.8533C21.507 15.7891 21.5887 15.6032 21.6816 15.407C21.8888 14.97 22.0216 14.4157 22.0916 13.8608Z" fill="#35312B"/>
</svg>
