<svg width="73" height="141" viewBox="0 0 73 141" fill="none" xmlns="http://www.w3.org/2000/svg">
<path opacity="0.5" d="M64.8982 112.07C57.9713 108.617 51.734 103.928 46.4947 98.2339C40.9864 92.2343 37.2126 84.8554 35.5775 76.8865C33.6001 67.3884 33.4604 57.604 35.1663 48.0608C36.058 42.745 37.7637 37.5992 40.2235 32.8045C41.976 29.2024 44.0296 25.7544 46.3621 22.4975C48.6173 19.4381 51.2682 16.6913 54.2462 14.3276C56.0184 12.8327 58.1342 11.7995 60.4052 11.32C61.6963 11.0271 63.0441 11.0972 64.2989 11.5231C65.5537 11.949 66.6662 12.7139 67.5131 13.7324C68.2039 14.5146 68.7995 15.3754 69.2868 16.2977C70.0752 17.7605 70.7157 19.2981 71.1991 20.8872C71.7994 22.7312 72.2768 24.6049 72.7664 26.4847C74.3963 32.7752 75.7619 39.1306 77.109 45.492C78.222 50.7007 79.6147 55.8465 81.2811 60.9068C83.3331 67.1562 86.2594 73.0858 89.9729 78.52C92.9 82.8123 96.0985 86.9047 99.3836 90.9184C101.99 94.0601 104.437 97.3312 106.714 100.718C108.127 102.856 109.321 105.129 110.28 107.505C111.025 109.225 111.374 111.09 111.302 112.962C111.182 115.1 110.574 115.958 108.533 116.546C105.678 117.384 102.756 117.976 99.7988 118.317C99.524 118.371 99.2425 118.382 98.964 118.352C97.182 118.137 95.381 118.137 93.5998 118.352C85.9038 118.441 78.2499 117.17 70.9926 114.595C68.5072 113.727 66.1892 112.621 64.8982 112.07Z" fill="#4893FF"/>
<path d="M89.7127 93.5756C86.4276 89.562 83.2291 85.4695 80.302 81.1772C76.5885 75.743 73.6622 69.8134 71.6102 63.5641L89.7127 93.5756ZM89.7127 93.5756C92.3193 96.7173 94.7656 99.9885 97.043 103.376L89.7127 93.5756ZM66.4573 48.3588C67.5778 53.6024 68.9799 58.7827 70.6574 63.8769C72.7389 70.2161 75.7072 76.2309 79.474 81.743C82.4244 86.0694 85.6433 90.1871 88.9366 94.2108L88.9409 94.216C91.5251 97.3307 93.9506 100.574 96.2086 103.932C97.5836 106.012 98.7462 108.225 99.6788 110.537L99.6835 110.549L99.6885 110.56C100.373 112.141 100.694 113.853 100.629 115.572C100.572 116.576 100.405 117.075 100.169 117.386C99.9397 117.687 99.5254 117.969 98.5842 118.24L98.5793 118.241C95.7792 119.063 92.9135 119.644 90.0132 119.978L89.9732 119.982L89.9337 119.99C89.7611 120.024 89.5837 120.032 89.4073 120.012C87.5657 119.791 85.7048 119.789 83.8638 120.007C76.304 120.088 68.7862 118.836 61.657 116.308L61.6526 116.306C59.8049 115.66 58.0702 114.888 56.7537 114.303C56.3411 114.119 55.9696 113.954 55.6486 113.816C48.8414 110.419 42.7117 105.809 37.5617 100.212C32.1767 94.3463 28.4874 87.1324 26.889 79.3421L26.8884 79.3393C24.9371 69.9666 24.7993 60.3114 26.4827 50.8945L26.4844 50.8839C27.3591 45.6698 29.0322 40.6225 31.4449 35.9194L31.4498 35.91L31.4544 35.9004C33.1812 32.3512 35.2044 28.9538 37.5023 25.7444C39.7041 22.7586 42.2918 20.0776 45.1987 17.7703L45.2104 17.761L45.2218 17.7514C46.8674 16.3634 48.8323 15.4038 50.9415 14.9584L50.9489 14.9569L50.9562 14.9552C52.0667 14.7033 53.2262 14.7635 54.3057 15.1299C55.3852 15.4963 56.3424 16.1544 57.0711 17.0308L57.0806 17.0423L57.0905 17.0535C57.729 17.7765 58.2792 18.5717 58.7293 19.4235L58.7331 19.4306C59.4899 20.8349 60.1047 22.3108 60.5687 23.8362L60.5716 23.8456L60.5746 23.8549C61.1196 25.529 61.5621 27.2302 62.0152 28.9724C62.0516 29.1125 62.0881 29.2529 62.1247 29.3935C63.7483 35.6596 65.1097 41.9948 66.457 48.357L66.4573 48.3588Z" stroke="#4893FF" stroke-opacity="0.5" stroke-width="2.00571"/>
</svg>
