<svg width="147" height="141" viewBox="0 0 147 141" fill="none" xmlns="http://www.w3.org/2000/svg">
<path opacity="0.5" d="M64.8972 112.07C57.9703 108.617 51.733 103.928 46.4937 98.2338C40.9855 92.2343 37.2116 84.8554 35.5765 76.8865C33.5991 67.3884 33.4594 57.604 35.1653 48.0608C36.057 42.745 37.7627 37.5992 40.2225 32.8045C41.975 29.2024 44.0286 25.7544 46.3611 22.4975C48.6163 19.4381 51.2672 16.6913 54.2452 14.3276C56.0174 12.8327 58.1333 11.7995 60.4043 11.32C61.6953 11.0271 63.0432 11.0972 64.2979 11.5231C65.5527 11.949 66.6652 12.7139 67.5121 13.7324C68.2029 14.5146 68.7985 15.3754 69.2859 16.2977C70.0742 17.7605 70.7147 19.2981 71.1981 20.8872C71.7985 22.7312 72.2758 24.6049 72.7654 26.4847C74.3953 32.7752 75.7609 39.1306 77.108 45.492C78.221 50.7007 79.6137 55.8465 81.2801 60.9068C83.3321 67.1562 86.2584 73.0858 89.9719 78.52C92.899 82.8123 96.0975 86.9047 99.3826 90.9184C101.989 94.0601 104.436 97.3312 106.713 100.718C108.126 102.856 109.32 105.129 110.279 107.505C111.024 109.225 111.373 111.09 111.301 112.962C111.181 115.1 110.573 115.958 108.532 116.546C105.677 117.384 102.755 117.976 99.7978 118.317C99.523 118.371 99.2416 118.382 98.963 118.352C97.181 118.137 95.38 118.137 93.5989 118.352C85.9028 118.441 78.2489 117.17 70.9916 114.595C68.5062 113.727 66.1882 112.621 64.8972 112.07Z" fill="#9400FF"/>
<path d="M98.8607 119.204C100.903 118.616 101.51 117.757 101.63 115.619C101.702 113.748 101.353 111.883 100.608 110.162L98.8607 119.204ZM98.8607 119.204C96.0057 120.041 93.0839 120.633 90.1269 120.974L98.8607 119.204ZM99.6875 110.56C100.372 112.141 100.693 113.853 100.628 115.572C100.571 116.576 100.404 117.075 100.168 117.386C99.9387 117.687 99.5244 117.969 98.5832 118.24L98.5784 118.241C95.7782 119.063 92.9125 119.644 90.0122 119.978L89.9722 119.982L89.9327 119.99C89.7604 120.024 89.5832 120.032 89.4071 120.013C87.5653 119.791 85.704 119.789 83.8628 120.007C76.303 120.088 68.7852 118.836 61.656 116.308L61.6516 116.306C59.8038 115.66 58.0691 114.888 56.7525 114.302C56.3401 114.119 55.9686 113.954 55.6476 113.816C48.8406 110.419 42.711 105.809 37.5611 100.212C32.1759 94.3466 28.4865 87.1326 26.888 79.3421L26.8874 79.3393C24.9361 69.9666 24.7983 60.3114 26.4817 50.8945L26.4834 50.8839C27.3581 45.6697 29.0312 40.6225 31.4439 35.9194L31.4488 35.91L31.4534 35.9004C33.1802 32.3512 35.2034 28.9538 37.5013 25.7444C39.7031 22.7586 42.2908 20.0776 45.1977 17.7703L45.2095 17.761L45.2209 17.7514C46.8664 16.3634 48.8313 15.4038 50.9405 14.9584L50.9479 14.9569L50.9553 14.9552C52.0657 14.7033 53.2252 14.7635 54.3047 15.1299C55.3842 15.4963 56.3414 16.1544 57.0701 17.0308L57.0796 17.0423L57.0895 17.0535C57.728 17.7765 58.2782 18.5717 58.7283 19.4235L58.7321 19.4306C59.4889 20.8349 60.1037 22.3108 60.5677 23.8362L60.5706 23.8456L60.5736 23.8549C61.1186 25.5289 61.561 27.23 62.0141 28.9721C62.0505 29.1123 62.0871 29.2527 62.1237 29.3935C63.7473 35.6596 65.1087 41.9948 66.456 48.357L66.4564 48.3588C67.5769 53.6027 68.979 58.7833 70.6567 63.8778C72.7381 70.2163 75.7061 76.2305 79.4725 81.7422C82.423 86.0689 85.6421 90.1868 88.9356 94.2108L88.9399 94.216C91.5241 97.3307 93.9496 100.574 96.2076 103.932C97.5826 106.012 98.7452 108.225 99.6778 110.537L99.6825 110.549L99.6875 110.56Z" stroke="#631999" stroke-opacity="0.5" stroke-width="2.00571"/>
</svg>
