<svg width="120" height="141" viewBox="0 0 120 141" fill="none" xmlns="http://www.w3.org/2000/svg">
<path opacity="0.5" d="M37.8982 112.07C30.9713 108.617 24.734 103.928 19.4947 98.2339C13.9864 92.2343 10.2126 84.8554 8.57748 76.8865C6.60006 67.3884 6.46038 57.604 8.16629 48.0608C9.058 42.745 10.7637 37.5992 13.2235 32.8045C14.976 29.2024 17.0296 25.7544 19.3621 22.4975C21.6173 19.4381 24.2682 16.6913 27.2462 14.3276C29.0184 12.8327 31.1342 11.7995 33.4052 11.32C34.6963 11.0271 36.0441 11.0972 37.2989 11.5231C38.5537 11.949 39.6662 12.7139 40.5131 13.7324C41.2039 14.5146 41.7995 15.3754 42.2868 16.2977C43.0752 17.7605 43.7157 19.2981 44.1991 20.8872C44.7994 22.7312 45.2768 24.6049 45.7664 26.4847C47.3963 32.7752 48.7619 39.1306 50.109 45.492C51.222 50.7007 52.6147 55.8465 54.2811 60.9068C56.3331 67.1562 59.2594 73.0858 62.9729 78.52C65.9 82.8123 69.0985 86.9047 72.3836 90.9184C74.9902 94.0601 77.4365 97.3312 79.7139 100.718C81.1268 102.856 82.3215 105.129 83.2797 107.505C84.0247 109.225 84.374 111.09 84.3019 112.962C84.1821 115.1 83.5744 115.958 81.5326 116.546C78.6776 117.384 75.7558 117.976 72.7988 118.317C72.524 118.371 72.2425 118.382 71.964 118.352C70.182 118.137 68.381 118.137 66.5998 118.352C58.9038 118.441 51.2499 117.17 43.9926 114.595C41.5072 113.727 39.1892 112.621 37.8982 112.07Z" fill="#4893FF"/>
<path d="M62.7127 93.5756C59.4276 89.562 56.2291 85.4695 53.302 81.1772C49.5885 75.743 46.6622 69.8134 44.6102 63.5641L62.7127 93.5756ZM62.7127 93.5756C65.3193 96.7173 67.7656 99.9885 70.043 103.376L62.7127 93.5756ZM39.4573 48.3588C40.5778 53.6024 41.9799 58.7827 43.6574 63.8769C45.7389 70.2161 48.7072 76.2309 52.474 81.743C55.4244 86.0694 58.6433 90.1871 61.9366 94.2108L61.9409 94.216C64.5251 97.3307 66.9506 100.574 69.2086 103.932C70.5836 106.012 71.7462 108.225 72.6788 110.537L72.6835 110.549L72.6885 110.56C73.3728 112.141 73.6941 113.853 73.6292 115.572C73.5721 116.576 73.4052 117.075 73.1687 117.386C72.9397 117.687 72.5254 117.969 71.5842 118.24L71.5793 118.241C68.7792 119.063 65.9135 119.644 63.0132 119.978L62.9732 119.982L62.9337 119.99C62.7611 120.024 62.5837 120.032 62.4073 120.012C60.5657 119.791 58.7048 119.789 56.8638 120.007C49.304 120.088 41.7862 118.836 34.657 116.308L34.6526 116.306C32.8049 115.66 31.0702 114.888 29.7537 114.303C29.3411 114.119 28.9696 113.954 28.6486 113.816C21.8414 110.419 15.7117 105.809 10.5617 100.212C5.17666 94.3463 1.48744 87.1324 -0.111032 79.3421L-0.11162 79.3393C-2.06294 69.9666 -2.20074 60.3114 -0.517347 50.8945L-0.515575 50.8839C0.359086 45.6698 2.03218 40.6225 4.4449 35.9194L4.44976 35.91L4.4544 35.9004C6.18116 32.3512 8.20441 28.9538 10.5023 25.7444C12.7041 22.7586 15.2918 20.0776 18.1987 17.7703L18.2104 17.761L18.2218 17.7514C19.8674 16.3634 21.8323 15.4038 23.9415 14.9584L23.9489 14.9569L23.9562 14.9552C25.0667 14.7033 26.2262 14.7635 27.3057 15.1299C28.3852 15.4963 29.3424 16.1544 30.0711 17.0308L30.0806 17.0423L30.0905 17.0535C30.729 17.7765 31.2792 18.5717 31.7293 19.4235L31.7331 19.4306C32.4899 20.8349 33.1047 22.3108 33.5687 23.8362L33.5716 23.8456L33.5746 23.8549C34.1196 25.529 34.5621 27.2302 35.0152 28.9724C35.0516 29.1125 35.0881 29.2529 35.1247 29.3935C36.7483 35.6596 38.1097 41.9948 39.457 48.357L39.4573 48.3588Z" stroke="#4893FF" stroke-opacity="0.5" stroke-width="2.00571"/>
</svg>
