<svg width="160" height="161" viewBox="0 0 160 161" fill="none" xmlns="http://www.w3.org/2000/svg">
<g opacity="0.1">
<path d="M124.156 50.5904C123.741 50.1164 123.521 49.5022 123.54 48.8717C123.578 48.2632 123.856 47.6946 124.311 47.2906C124.54 47.0866 124.808 46.9314 125.099 46.8346C125.39 46.7378 125.697 46.7014 126.003 46.7275C126.304 46.7479 126.599 46.8284 126.869 46.9643C127.14 47.1001 127.381 47.2887 127.577 47.519L154.562 79.6286C154.755 79.8602 154.852 80.1565 154.835 80.4574C154.828 80.6116 154.791 80.763 154.725 80.9021C154.658 81.0413 154.564 81.1654 154.448 81.2668C154.218 81.4693 153.917 81.5728 153.611 81.555C153.306 81.5371 153.019 81.3994 152.814 81.1715L124.156 50.5904Z" fill="#6A6A9A"/>
<path d="M69.735 155.339L41.0797 124.72C40.8728 124.494 40.7133 124.229 40.6106 123.941C40.5079 123.652 40.4642 123.346 40.4821 123.04C40.4999 122.734 40.5789 122.435 40.7145 122.16C40.85 121.885 41.0393 121.641 41.271 121.441C41.5001 121.237 41.7683 121.082 42.0591 120.985C42.3499 120.888 42.6573 120.852 42.9625 120.878C43.2643 120.898 43.559 120.979 43.8294 121.115C44.0998 121.251 44.3405 121.439 44.5374 121.669L71.4849 153.777C71.6805 154.007 71.7782 154.304 71.7569 154.606C71.7333 154.918 71.5876 155.209 71.3517 155.414C71.1268 155.618 70.8306 155.725 70.5277 155.711C70.2248 155.697 69.9398 155.563 69.735 155.339Z" fill="#6A6A9A"/>
<path d="M108.781 60.1882C108.57 59.9607 108.407 59.6931 108.301 59.4011C108.195 59.1091 108.148 58.7987 108.164 58.4883C108.181 58.1866 108.258 57.8912 108.39 57.6197C108.523 57.3482 108.708 57.1059 108.935 56.9073C109.395 56.4998 109.996 56.2903 110.609 56.3242C111.223 56.3818 111.793 56.6719 112.202 57.1356L139.13 89.2419C139.332 89.473 139.435 89.7744 139.417 90.0811C139.399 90.3878 139.262 90.6752 139.035 90.8813C138.807 91.0828 138.51 91.186 138.207 91.1683C137.905 91.1507 137.621 91.0136 137.419 90.787L108.781 60.1882Z" fill="#6A6A9A"/>
<path d="M55.2307 105.731C55.5344 105.751 55.8309 105.833 56.1016 105.972C56.3723 106.111 56.6116 106.305 56.8045 106.541L83.7906 138.632C83.9588 138.87 84.0341 139.161 84.002 139.451C83.9699 139.741 83.8328 140.009 83.6166 140.204C83.4004 140.399 83.1204 140.508 82.8296 140.509C82.5389 140.511 82.2577 140.405 82.0397 140.212L53.3998 109.651C53.1857 109.422 53.0206 109.151 52.9146 108.856C52.8087 108.56 52.7642 108.246 52.7838 107.933C52.7941 107.625 52.8663 107.322 52.9962 107.043C53.126 106.764 53.3108 106.514 53.5394 106.309C53.7679 106.103 54.0356 105.946 54.3263 105.846C54.6169 105.747 54.9246 105.708 55.2307 105.731Z" fill="#6A6A9A"/>
<path d="M99.6413 134.13C99.461 133.925 99.3226 133.687 99.2342 133.429C99.1457 133.171 99.109 132.898 99.1259 132.625C99.1154 132.467 99.1247 132.309 99.1534 132.154L102.549 120.478C92.8049 113.027 79.9999 101.182 64.64 85.3112L22.1992 139.784C22.0811 139.937 21.9311 140.061 21.7599 140.149C21.5887 140.237 21.4004 140.286 21.2082 140.294C21.0183 140.297 20.8299 140.26 20.6555 140.184C20.4812 140.109 20.3248 139.997 20.1969 139.857L14.0588 132.957C13.825 132.696 13.646 132.391 13.5325 132.059C13.419 131.728 13.3735 131.377 13.3985 131.027C13.3751 130.8 13.3885 130.571 13.4381 130.349L22.2534 103.637L17.9413 98.7149L17.8572 98.5399L17.7445 98.5333L16.6787 96.448C16.5956 96.303 16.5593 96.1358 16.5746 95.9693C16.5803 95.8456 16.6118 95.7245 16.6669 95.6138C16.7221 95.503 16.7997 95.4051 16.8949 95.3262L20.0057 92.4069C20.1582 92.2671 20.3531 92.1828 20.5591 92.1674C20.765 92.152 20.9702 92.2064 21.1416 92.3219L23.0824 93.6262L23.1763 93.6317L23.3454 93.6416L24.8841 95.3763L28.5812 84.0207L24.4096 79.5988L24.3079 79.4038L24.214 79.3983L23.1481 77.3131C23.0784 77.1632 23.0429 76.9997 23.0441 76.8343C23.0635 76.5807 23.1784 76.3441 23.3655 76.1724L27.1038 72.8359C27.2568 72.6961 27.453 72.6133 27.6596 72.6013C27.8661 72.5893 28.0705 72.6487 28.2386 72.7697L30.3252 74.1583L31.4748 75.4543L37.6758 56.3982C28.3419 45.795 19.7375 35.6125 15.5988 30.3039C11.7806 25.3165 7.81245 17.73 8.1818 11.3987C8.23395 9.90903 8.58523 8.44511 9.21462 7.0946C9.844 5.74408 10.7385 4.53474 11.8447 3.53896C21.3893 -4.97976 35.294 7.72412 37.9877 10.3392C42.6235 14.8827 51.4112 24.5087 61.0258 35.4686L80.8305 31.3677L79.6113 29.9731L78.4957 27.7715C78.4127 27.6265 78.3763 27.4593 78.3917 27.2927C78.4045 27.0468 78.5127 26.8156 78.6931 26.6485L82.4314 23.3121C82.5886 23.1739 82.7864 23.0909 82.9948 23.0758C83.2032 23.0607 83.4109 23.1141 83.5861 23.2282L85.6573 24.559L89.9915 29.4253L101.646 27.0611L100.066 25.3996L99.9628 25.2234L99.9694 25.1104L98.9036 23.0251C98.8291 22.8769 98.7933 22.7122 98.7996 22.5463C98.8053 22.4227 98.8367 22.3016 98.8919 22.1908C98.947 22.0801 99.0247 21.9821 99.1198 21.9033L102.283 19.0626C102.436 18.9229 102.632 18.8401 102.838 18.828C103.045 18.816 103.249 18.8754 103.417 18.9965L105.358 20.3008L105.352 20.4139L105.521 20.4238L109.888 25.3676L137.357 19.7852C137.808 19.6916 138.277 19.7186 138.715 19.8636C139.153 20.0086 139.546 20.2665 139.853 20.6115L145.972 27.5104C146.199 27.7711 146.314 28.1104 146.294 28.4557L146.288 28.5687C146.258 28.7594 146.187 28.9413 146.08 29.1016C145.973 29.262 145.833 29.3969 145.668 29.4968L86.4213 65.746C97.3981 79.0562 107.511 93.0602 116.698 107.671L129.094 105.521C129.434 105.467 129.781 105.501 130.104 105.62C130.426 105.738 130.714 105.936 130.94 106.196L138.686 114.929C138.772 115.022 138.837 115.132 138.879 115.251C138.921 115.371 138.938 115.497 138.928 115.624L138.922 115.737C138.895 115.883 138.836 116.022 138.747 116.141C138.658 116.261 138.543 116.358 138.41 116.425L123.913 123.899C124.014 124.526 124.046 125.161 124.01 125.795C124.011 126.314 123.909 126.828 123.71 127.307C123.51 127.785 123.217 128.219 122.848 128.582C122.147 129.086 121.335 129.414 120.482 129.538C119.629 129.663 118.758 129.58 117.943 129.298L108.939 142.765C108.856 142.888 108.746 142.991 108.618 143.065C108.489 143.139 108.346 143.183 108.198 143.194C108.054 143.205 107.909 143.183 107.775 143.13C107.641 143.076 107.521 142.992 107.424 142.884L99.6413 134.13ZM18.4314 21.1667L19.0123 19.9338C20.6812 16.4788 23.6494 13.8296 27.2644 12.5687L28.5339 12.1322C28.6265 12.1035 28.7095 12.0496 28.7736 11.9767C28.8377 11.9037 28.8805 11.8144 28.8973 11.7185C28.9016 11.6355 28.8875 11.5525 28.8562 11.4755C28.8248 11.3985 28.777 11.3294 28.716 11.2731L26.9254 9.65606C26.6198 9.38692 26.2499 9.20187 25.8517 9.11899C25.4534 9.03612 25.0406 9.05823 24.6534 9.18318C22.7379 9.78048 20.9717 10.7814 19.473 12.119C17.9744 13.4566 16.7779 15.0999 15.9638 16.9388C15.7951 17.3132 15.7251 17.7249 15.7606 18.1342C15.7962 18.5435 15.936 18.9368 16.1667 19.2762L17.5596 21.2482C17.6109 21.3311 17.6848 21.3974 17.7725 21.4394C17.8603 21.4814 17.9582 21.4973 18.0547 21.4851C18.138 21.4653 18.2155 21.4262 18.2809 21.3709C18.3463 21.3156 18.3979 21.2457 18.4314 21.1667Z" fill="#6A6A9A"/>
</g>
</svg>
