<svg width="111" height="40" viewBox="0 0 111 40" fill="none" xmlns="http://www.w3.org/2000/svg">
<path d="M39.242 7.51042C38.7882 7.85487 38.2946 7.97008 37.7461 8.00455C33.1699 8.29034 28.8044 9.38799 24.6338 11.3107C19.694 13.5878 15.006 16.2226 11.0058 19.9872C8.90629 21.9621 6.88534 23.9992 5.07855 26.2448C4.87293 26.5001 4.71763 26.9232 4.32281 26.8397C3.81742 26.7337 3.95634 26.2197 3.88935 25.8637C3.71884 24.9541 3.63566 24.0261 3.41267 23.1295C3.24463 22.4541 2.52413 21.9612 2.02086 22.0489C1.33199 22.1674 1.30092 22.7533 1.20582 23.2784C1.16146 23.5172 1.12182 23.7597 1.09988 24.0014C0.850101 26.7186 0.614915 29.4372 0.351604 32.1545C0.254337 33.171 0.536117 34.0005 1.42876 34.5331C2.3031 35.0554 3.10664 34.7615 3.88063 34.2336C6.58217 32.3967 9.29319 30.5737 11.9973 28.7373C12.3592 28.4915 12.711 28.2209 13.0209 27.9151C13.3442 27.5958 13.5636 27.1904 13.325 26.7286C13.0805 26.2549 12.6243 26.2381 12.1775 26.3487C11.7535 26.4529 11.3483 26.635 10.9255 26.7475C10.4751 26.8697 10.0733 27.2038 9.53568 27.1038C9.5328 26.5681 9.93226 26.3309 10.2129 26.0223C14.032 21.8271 18.5186 18.508 23.5717 15.9565C26.7116 14.3708 29.919 12.9481 33.4189 12.3338C33.7236 12.2812 34.0757 12.0443 34.3649 12.5104C33.4393 13.9783 32.5935 15.51 31.8585 17.1048C27.6457 26.2519 32.9599 36.0407 41.2475 38.527C42.9829 39.0475 44.7327 39.5356 46.534 39.6349C51.2334 39.8915 55.4649 38.5332 58.8521 35.2461C65.2758 29.0076 62.8506 19.219 58.6847 14.925C55.5417 11.6831 51.5955 9.82833 47.2435 8.7799C46.5486 8.61211 45.8077 8.61391 45.0816 8.26312C45.2885 7.84587 45.5225 7.75271 45.7362 7.64619C48.9499 6.04895 52.3207 4.93032 55.8861 4.48939C63.8996 3.50037 71.7649 4.35874 79.4485 6.71752C84.508 8.26995 89.1897 10.7232 93.6481 13.5528C99.4491 17.24 104.357 21.8445 107.824 27.8563C108.661 29.3067 109.379 30.7951 109.1 32.5499C109.046 32.8857 108.914 33.2861 109.36 33.4119C109.84 33.5467 110.044 33.1518 110.206 32.7855C110.388 32.3757 110.416 31.9376 110.427 31.4966C110.453 30.4556 110.239 29.458 109.85 28.5013C108.059 24.0918 105.354 20.2849 101.88 17.0771C94.144 9.93798 85.2145 4.87511 74.9619 2.36909C67.6491 0.579728 60.2308 0.00535473 52.7744 1.55748C47.8502 2.5809 43.274 4.44101 39.242 7.51042ZM41.0735 11.7655C45.7198 12.0106 50.109 13.027 54.0893 15.5936C58.38 18.3601 60.5576 24.2312 58.9349 29.0308C58.0258 31.7194 56.2017 33.632 53.6906 34.8336C50.9462 36.1462 48.0546 36.6603 45.0202 35.9581C42.6289 35.4042 40.3175 34.6873 38.3768 33.0925C37.5397 32.4042 36.8535 31.5908 36.3785 30.8177C33.8258 27.125 33.329 23.3382 34.909 19.298C35.8588 16.8699 37.1489 14.6554 38.8967 12.7107C39.4858 12.0543 40.1542 11.7183 41.0735 11.7655Z" fill="#FE6032"/>
</svg>
