<svg width="585" height="234" viewBox="0 0 585 234" fill="none" xmlns="http://www.w3.org/2000/svg">
<g clip-path="url(#clip0_4448_4545)">
<g opacity="0.2">
<path d="M190.15 388.215C218.604 315.582 303.304 172.331 414.464 180.391C553.413 190.467 663.137 127.387 655.721 -22.0708C648.304 -171.529 659.229 -334.356 763.8 -343.405C868.371 -352.454 949.186 -307.091 1013.58 -309.309C1077.97 -311.528 1111.75 -365.243 1130.66 -459.737C1149.58 -554.231 1187.6 -637.774 1323.93 -624.115C1403.73 -616.119 1538.06 -721.776 1561.4 -740.654" stroke="white" stroke-width="7"/>
<path d="M130.9 329.574C159.354 256.941 231.885 109.757 366.413 123.907C518.848 139.939 623.213 89.2711 626.779 -71.4908C629.64 -200.446 661.195 -363.099 765.766 -372.147C870.337 -381.196 932.969 -324.123 995.678 -313.905C1062.84 -302.962 1112.12 -356.018 1131.03 -450.512C1149.95 -545.005 1195.58 -648.317 1312.84 -620.288C1406.61 -597.872 1556.95 -688.671 1580.3 -707.549" stroke="white" stroke-width="7"/>
<path d="M166.379 361.746C194.833 289.113 254.52 159.491 391.043 155.331C570.99 149.847 642.98 95.4381 643.717 -65.1649C644.322 -196.912 656.216 -351.722 760.787 -360.77C865.358 -369.819 976.316 -300.784 1039.32 -318.401C1083.66 -330.799 1096.11 -376.793 1123.42 -444.345C1160 -534.834 1188.68 -634.988 1314.77 -607.182C1414.51 -585.189 1572 -678.837 1595.34 -697.715" stroke="white" stroke-width="7"/>
<path d="M90.4004 295.084C127.476 224.992 205.36 88.4464 325.814 92.2164C504.966 97.8234 583.536 100.086 606.439 -102.489C622.093 -240.954 640.284 -387.982 744.855 -397.031C849.426 -406.08 982.002 -286.003 1054.3 -337.877C1092.15 -365.034 1100.23 -399.939 1128.74 -466.989C1166.97 -556.913 1177.36 -625.103 1333.71 -618.84C1406.02 -615.943 1516.4 -694.001 1566.31 -727.768" stroke="white" stroke-width="7"/>
</g>
</g>
<defs>
<clipPath id="clip0_4448_4545">
<rect width="585" height="234" fill="white"/>
</clipPath>
</defs>
</svg>
