<svg width="88" height="72" viewBox="0 0 88 72" fill="none" xmlns="http://www.w3.org/2000/svg">
<path d="M55.856 1.57771C45.6901 -0.978696 34.6714 0.980535 27.9808 6.4812C25.7224 8.36352 25.1275 8.60518 24.1034 8.01349C21.714 6.63289 16.443 7.42503 12.9742 9.71373C10.1079 11.6351 2.68256 18.8577 1.47101 20.9546C-0.388573 24.173 1.4244 23.3993 8.03046 18.0449C14.98 12.4337 16.8082 11.4086 19.6376 11.3523C22.6979 11.2341 23.0317 11.5571 22.6134 14.3074C22.2081 17.2604 23.3047 18.7396 25.4742 17.9117C27.259 17.1867 27.8431 16.2884 27.8746 14.095C27.8724 11.6221 28.9973 10.1256 32.4943 7.78812C36.3554 5.27078 42.6569 3.70815 48.1468 3.88806C61.4174 4.33566 73.1697 14.0529 74.3238 25.452C74.7919 29.8203 74.3898 30.6287 70.869 32.1068C68.6432 33.0323 67.5356 33.8233 66.7467 35.1888C65.4788 37.3832 65.7107 38.5579 67.7589 39.7413C69.6607 40.8401 71.9765 40.0967 74.6011 37.5804C76.6644 35.5854 77.2518 35.4695 79.5437 36.7937C84.6641 39.7522 84.4299 50.7394 79.0105 57.7551C77.5551 59.7111 75.0659 61.6552 69.4742 65.254C62.5441 69.7057 60.9165 71.1719 62.9147 71.0906C64.4308 71.056 71.531 67.5482 75.6305 64.8433C80.9427 61.2781 83.6258 58.2102 85.3305 53.7965C88.8112 44.62 86.736 35.9409 80.2893 32.8015L77.7178 31.5108L77.9074 28.3682C78.2586 22.1317 75.0325 14.5439 69.8667 9.41267C66.8704 6.38056 60.1332 2.61805 55.856 1.57771Z" fill="white"/>
</svg>
