<svg width="132" height="95" viewBox="0 0 132 95" fill="none" xmlns="http://www.w3.org/2000/svg">
<path d="M4.92114 1.78794C2.06929 10.5952 1.99082 19.5761 2.1083 26.7575C2.34394 41.1611 7.71777 51.4813 13.4616 57.171C19.3375 62.9916 26.0396 67.5846 34.0677 67.7054C42.0332 67.8252 55.6868 65.0478 65.3507 50.5798C71.1725 41.8638 77.9677 20.3999 71.8342 18.2197C71.0343 17.9354 69.47 16.4752 68.4219 17.4736C64.055 21.6337 59.4017 36.2809 57.7095 43.1367C54.8184 54.85 56.5078 64.228 59.603 69.5457C64.9764 78.7774 72.6194 87.7193 81.6054 88.4547C86.1474 88.8265 89.5661 85.2742 93.7921 76.3296C97.2765 68.9548 101.331 59.5282 103.235 51.441C105.253 42.8752 102.167 29.1071 96.8041 44.0194C89.1666 65.2561 94.4245 77.9201 100.774 84.9975C105.113 89.8331 111.68 95.7726 119.025 91.9518C123.285 89.7361 125.968 84.2853 129.653 78.6891" stroke="#0D4F51" stroke-width="2.8276" stroke-linecap="round"/>
</svg>
