<svg width="154" height="176" viewBox="0 0 154 176" fill="none" xmlns="http://www.w3.org/2000/svg">
<g opacity="0.1">
<path d="M2.34519 129.907C1.71621 129.286 0.875158 128.927 -0.00823278 128.902C-0.862395 128.906 -1.6802 129.248 -2.28231 129.854C-2.58637 130.159 -2.82523 130.523 -2.98434 130.923C-3.14345 131.323 -3.21948 131.751 -3.20782 132.181C-3.20397 132.606 -3.11547 133.026 -2.94748 133.417C-2.77949 133.807 -2.53539 134.16 -2.22944 134.455L40.4758 174.939C40.7842 175.228 41.1906 175.389 41.6129 175.389C41.829 175.393 42.0437 175.353 42.2438 175.271C42.4438 175.189 42.6251 175.067 42.7764 174.913C43.0783 174.606 43.2476 174.193 43.2476 173.763C43.2476 173.332 43.0783 172.919 42.7764 172.612L2.34519 129.907Z" fill="#6A6A9A"/>
<path d="M153.282 62.1343L112.798 19.429C112.499 19.1203 112.142 18.8748 111.747 18.7072C111.351 18.5395 110.927 18.4531 110.497 18.4531C110.068 18.4531 109.643 18.5395 109.248 18.7072C108.853 18.8748 108.495 19.1203 108.197 19.429C107.893 19.7338 107.654 20.0973 107.495 20.4973C107.336 20.8974 107.26 21.3256 107.271 21.756C107.275 22.181 107.364 22.601 107.532 22.9915C107.699 23.3819 107.944 23.735 108.25 24.0301L150.955 64.4612C151.26 64.7545 151.669 64.9159 152.092 64.9108C152.531 64.9031 152.949 64.7226 153.255 64.4083C153.559 64.1096 153.733 63.7028 153.738 63.2768C153.743 62.8507 153.579 62.4399 153.282 62.1343Z" fill="#6A6A9A"/>
<path d="M17.0218 109.124C16.7209 108.809 16.3599 108.558 15.9602 108.386C15.5605 108.213 15.1302 108.122 14.6948 108.119C14.2714 108.118 13.8521 108.202 13.4615 108.365C13.071 108.529 12.7171 108.769 12.4207 109.071C11.8133 109.683 11.4713 110.509 11.4688 111.372C11.4991 112.238 11.8584 113.061 12.4736 113.672L55.1789 154.077C55.4856 154.379 55.8987 154.548 56.3291 154.548C56.7596 154.548 57.1727 154.379 57.4794 154.077C57.7798 153.775 57.9483 153.366 57.9483 152.94C57.9483 152.514 57.7798 152.105 57.4794 151.803L17.0218 109.124Z" fill="#6A6A9A"/>
<path d="M85.0856 37.7271C85.0883 38.1548 85.1789 38.5773 85.3518 38.9685C85.5246 39.3598 85.7761 39.7112 86.0905 40.0012L128.769 80.4852C129.088 80.7407 129.49 80.8701 129.898 80.8488C130.306 80.8276 130.692 80.6571 130.982 80.3698C131.273 80.0825 131.448 79.6985 131.473 79.2908C131.499 78.883 131.375 78.48 131.123 78.1583L90.718 35.4795C90.415 35.1603 90.0499 34.9065 89.6451 34.7337C89.2404 34.5609 88.8046 34.4727 88.3645 34.4746C87.9332 34.4639 87.5042 34.5404 87.1033 34.6998C86.7024 34.8591 86.3378 35.0978 86.0315 35.4016C85.7252 35.7055 85.4835 36.0681 85.3209 36.4677C85.1584 36.8674 85.0784 37.2957 85.0856 37.7271Z" fill="#6A6A9A"/>
<path d="M121.18 102.353C120.908 102.084 120.587 101.87 120.233 101.725C119.879 101.58 119.5 101.506 119.117 101.507C118.898 101.48 118.675 101.48 118.456 101.507L101.85 105.315C92.2246 91.0359 76.7026 72.1028 55.7599 49.2561L135.406 -5.82443C135.629 -5.97766 135.815 -6.17781 135.952 -6.41079C136.089 -6.64377 136.173 -6.90395 136.199 -7.17302C136.219 -7.4391 136.183 -7.70644 136.092 -7.95723C136 -8.20801 135.857 -8.43647 135.67 -8.62738L126.521 -17.8031C126.176 -18.1524 125.764 -18.4285 125.309 -18.6148C124.855 -18.8011 124.368 -18.8937 123.877 -18.8872C123.562 -18.9386 123.24 -18.9386 122.925 -18.8872L84.8471 -8.70671L78.3157 -15.1588L78.0777 -15.291V-15.4496L75.2483 -17.1155C75.0523 -17.2439 74.8214 -17.3085 74.5872 -17.3006C74.4138 -17.3028 74.2419 -17.2686 74.0825 -17.2003C73.9231 -17.1319 73.7798 -17.031 73.6617 -16.904L69.3251 -12.7789C69.1172 -12.5764 68.9834 -12.3099 68.945 -12.0222C68.9067 -11.7345 68.966 -11.4423 69.1135 -11.1923L70.7794 -8.36295V-8.23074V-7.99275L73.08 -5.69222L56.8969 -1.43492L51.053 -7.64899L50.7886 -7.80765V-7.93987L47.9592 -9.60577C47.7554 -9.71578 47.5295 -9.77901 47.2982 -9.79087C46.942 -9.78445 46.6016 -9.64262 46.3462 -9.39422L41.375 -4.42296C41.167 -4.21971 41.0352 -3.95123 41.0015 -3.66244C40.9678 -3.37365 41.0343 -3.08204 41.1899 -2.83639L42.9615 0.204542L44.6803 1.92333L17.5235 9.06291C3.45585 -4.89894 -10.0829 -17.8031 -17.1696 -24.0436C-23.8332 -29.8081 -34.1195 -35.9958 -43.0043 -35.9958C-45.092 -36.0445 -47.168 -35.6715 -49.1081 -34.8991C-51.0482 -34.1267 -52.8125 -32.9708 -54.2954 -31.5005C-66.988 -18.8079 -50.3554 1.73823 -46.9178 5.73111C-40.9418 12.6063 -28.1963 25.7219 -13.6527 40.1069L-21.0038 67.5546L-22.8548 65.73L-25.8429 63.9848C-26.0389 63.8564 -26.2698 63.7918 -26.5039 63.7997C-26.8489 63.7976 -27.1811 63.9305 -27.4294 64.1699L-32.4007 69.1411C-32.6068 69.3503 -32.7389 69.621 -32.7771 69.9122C-32.8153 70.2033 -32.7574 70.4989 -32.6122 70.7542L-30.9199 73.7687L-24.4678 80.2472L-28.7251 96.4038L-30.9199 94.0503L-31.1579 93.8917H-31.3165L-34.1459 92.2258C-34.3471 92.1092 -34.5745 92.0455 -34.807 92.0407C-34.9804 92.0386 -35.1523 92.0728 -35.3117 92.1411C-35.4711 92.2094 -35.6144 92.3103 -35.7325 92.4373L-39.9634 96.6417C-40.1713 96.845 -40.3031 97.1135 -40.3368 97.4023C-40.3705 97.6911 -40.304 97.9827 -40.1485 98.2283L-38.4826 101.058H-38.3239V101.296L-31.7661 107.827L-41.8144 145.905C-41.9822 146.531 -41.9826 147.19 -41.8155 147.817C-41.6485 148.443 -41.3198 149.015 -40.8624 149.475L-31.7132 158.624C-31.3671 158.963 -30.902 159.153 -30.4175 159.153H-30.2588C-29.9898 159.127 -29.7296 159.043 -29.4966 158.906C-29.2636 158.769 -29.0635 158.582 -28.9102 158.359L26.6198 78.2111C44.3393 94.6993 63.0995 110.032 82.7845 124.116L78.7652 141.33C78.6631 141.802 78.6824 142.292 78.8211 142.755C78.9598 143.217 79.2135 143.637 79.5585 143.975L91.1405 155.556C91.2636 155.684 91.4115 155.785 91.5753 155.854C91.739 155.922 91.915 155.956 92.0924 155.953H92.2511C92.4583 155.928 92.6569 155.856 92.8313 155.741C93.0056 155.626 93.151 155.472 93.2559 155.292L104.891 135.566C105.759 135.758 106.646 135.856 107.535 135.857C108.26 135.901 108.987 135.8 109.673 135.559C110.359 135.319 110.99 134.943 111.528 134.455C112.289 133.512 112.814 132.401 113.058 131.214C113.301 130.027 113.257 128.799 112.929 127.633L132.497 116.104C132.676 115.997 132.829 115.851 132.943 115.677C133.058 115.503 133.131 115.306 133.158 115.099C133.186 114.898 133.167 114.693 133.103 114.5C133.039 114.308 132.931 114.133 132.788 113.988L121.18 102.353ZM-30.1795 -20.8176L-31.9512 -20.1036C-36.9193 -18.0452 -40.8665 -14.0979 -42.925 -9.12979L-43.6389 -7.38456C-43.6867 -7.25694 -43.7687 -7.14498 -43.876 -7.061C-43.9834 -6.97702 -44.1118 -6.92428 -44.2471 -6.90859C-44.3636 -6.90943 -44.4785 -6.93593 -44.5836 -6.98621C-44.6888 -7.03648 -44.7815 -7.10929 -44.8553 -7.19946L-46.9707 -9.84375C-47.3222 -10.2944 -47.5508 -10.8286 -47.6342 -11.394C-47.7177 -11.9594 -47.6531 -12.5368 -47.4467 -13.0698C-46.4551 -15.708 -44.9111 -18.1038 -42.9182 -20.0968C-40.9252 -22.0897 -38.5294 -23.6337 -35.8912 -24.6253C-35.3537 -24.8314 -34.7723 -24.8958 -34.2027 -24.8125C-33.6332 -24.7291 -33.0946 -24.5008 -32.6387 -24.1494L-29.9944 -22.0339C-29.8827 -21.9552 -29.7959 -21.8461 -29.7443 -21.7196C-29.6928 -21.593 -29.6786 -21.4543 -29.7035 -21.32C-29.7379 -21.2048 -29.7989 -21.0993 -29.8816 -21.012C-29.9643 -20.9247 -30.0663 -20.8581 -30.1795 -20.8176Z" fill="#6A6A9A"/>
</g>
</svg>
