<svg width="111" height="40" viewBox="0 0 111 40" fill="none" xmlns="http://www.w3.org/2000/svg">
<path d="M39.6649 7.00651C39.2111 7.35096 38.7174 7.46617 38.1689 7.50065C33.5927 7.78643 29.2273 8.88409 25.0567 10.8068C20.1169 13.0839 15.4289 15.7187 11.4287 19.4833C9.32914 21.4582 7.30819 23.4953 5.5014 25.7409C5.29578 25.9962 5.14049 26.4193 4.74566 26.3358C4.24027 26.2298 4.37919 25.7158 4.3122 25.3598C4.14169 24.4502 4.05851 23.5222 3.83553 22.6256C3.66748 21.9502 2.94698 21.4573 2.44372 21.545C1.75484 21.6635 1.72377 22.2494 1.62868 22.7745C1.58432 23.0133 1.54467 23.2558 1.52273 23.4975C1.27295 26.2147 1.03777 28.9333 0.774455 31.6506C0.67719 32.6671 0.958969 33.4966 1.85162 34.0292C2.72595 34.5515 3.52949 34.2576 4.30349 33.7297C7.00502 31.8928 9.71604 30.0698 12.4202 28.2334C12.7821 27.9876 13.1339 27.7169 13.4437 27.4112C13.767 27.0919 13.9865 26.6865 13.7479 26.2247C13.5034 25.751 13.0472 25.7342 12.6003 25.8448C12.1763 25.949 11.7712 26.1311 11.3483 26.2436C10.8979 26.3658 10.4962 26.6999 9.95853 26.5999C9.95566 26.0642 10.3551 25.827 10.6358 25.5184C14.4549 21.3232 18.9414 18.0041 23.9945 15.4526C27.1344 13.8669 30.3418 12.4442 33.8418 11.8299C34.1464 11.7773 34.4985 11.5404 34.7877 12.0065C33.8622 13.4743 33.0163 15.0061 32.2814 16.6009C28.0686 25.748 33.3828 35.5368 41.6703 38.0231C43.4058 38.5436 45.1556 39.0317 46.9568 39.131C51.6563 39.3876 55.8878 38.0293 59.275 34.7422C65.6986 28.5037 63.2735 18.7151 59.1076 14.4211C55.9646 11.1792 52.0183 9.32442 47.6663 8.276C46.9714 8.1082 46.2306 8.11 45.5045 7.75922C45.7114 7.34196 45.9454 7.2488 46.159 7.14229C49.3728 5.54504 52.7436 4.42642 56.309 3.98549C64.3225 2.99647 72.1878 3.85483 79.8713 6.21362C84.9309 7.76604 89.6126 10.2193 94.071 13.0488C99.8719 16.7361 104.78 21.3406 108.247 27.3524C109.084 28.8028 109.802 30.2912 109.523 32.046C109.469 32.3818 109.337 32.7822 109.783 32.908C110.263 33.0428 110.467 32.6479 110.629 32.2816C110.811 31.8718 110.838 31.4337 110.85 30.9927C110.876 29.9517 110.662 28.954 110.273 27.9974C108.482 23.5879 105.777 19.781 102.303 16.5732C94.5669 9.43407 85.6374 4.3712 75.3847 1.86518C68.0719 0.0758206 60.6536 -0.498552 53.1972 1.05358C48.273 2.07699 43.6968 3.9371 39.6649 7.00651ZM41.4964 11.2616C46.1426 11.5067 50.5318 12.523 54.5121 15.0897C58.8028 17.8561 60.9804 23.7273 59.3578 28.5269C58.4486 31.2155 56.6245 33.1281 54.1135 34.3297C51.3691 35.6423 48.4775 36.1564 45.443 35.4541C43.0518 34.9003 40.7404 34.1834 38.7997 32.5885C37.9625 31.9003 37.2763 31.0869 36.8013 30.3138C34.2487 26.6211 33.7518 22.8343 35.3318 18.7941C36.2817 16.366 37.5717 14.1515 39.3196 12.2068C39.9087 11.5503 40.577 11.2144 41.4964 11.2616Z" fill="#9400FF"/>
</svg>
