<svg width="92" height="148" viewBox="0 0 92 148" fill="none" xmlns="http://www.w3.org/2000/svg">
<path d="M35.4187 1.42829C26.6458 7.33798 20.0471 15.0292 14.9201 21.2853C4.63688 33.8332 1.58648 45.8866 2.21165 54.1683C2.85119 62.6405 5.06911 70.5412 11.6406 75.3692C18.1607 80.1595 31.5069 85.8008 50.0485 79.0226C61.2186 74.9391 82.4702 60.4456 78.9686 54.9581C78.512 54.2425 78.2767 52.0641 76.6809 52.3075C70.0321 53.322 55.5163 63.2029 49.1251 68.1138C38.2054 76.504 32.7843 85.5776 31.4831 91.9803C29.2242 103.096 29.0588 115.297 35.9776 121.218C39.4748 124.211 44.8948 123.162 54.9075 117.943C63.1629 113.639 73.384 107.904 80.8472 102.057C88.752 95.864 96.2089 82.1867 80.9117 91.8784C59.1266 105.681 54.275 119.685 54.3933 129.519C54.4742 136.238 55.6006 145.219 64.4731 146.25C69.6184 146.847 75.8091 143.73 82.9377 141.077" stroke="#6A6A9A" stroke-width="2.8276" stroke-linecap="round"/>
</svg>
