<svg width="123" height="105" viewBox="0 0 123 105" fill="none" xmlns="http://www.w3.org/2000/svg">
<path d="M107.881 72.2247C108.082 72.5184 108.193 72.7914 108.247 73.0399C108.357 73.5398 108.276 74.1264 107.916 74.8461C107.16 76.3539 105.372 78.0552 102.946 79.8484C100.562 81.611 97.7453 83.333 95.1197 84.9354L94.9865 85.0167C92.8694 86.3086 90.8417 87.546 89.3602 88.6369C66.4424 71.1387 46.5839 58.1637 18.6382 49.1739L17.4288 26.6866L19.4677 23.0319C19.9494 23.7349 20.294 24.5745 20.5586 25.5403C20.8828 26.7233 21.06 27.973 21.2486 29.303C21.315 29.7717 21.3829 30.2504 21.4591 30.7397C21.7382 32.5308 22.1305 34.4486 23.0865 36.039C24.0891 37.707 25.6621 38.939 28.0892 39.4357C31.2358 40.0798 33.6871 39.0638 35.5823 37.2803C37.4095 35.561 38.7295 33.1253 39.805 30.8588C40.1698 30.0899 40.5032 29.3501 40.8186 28.6501C41.4775 27.1879 42.0581 25.8992 42.6842 24.8817C43.1385 24.1434 43.5248 23.7124 43.8432 23.5027C44.0896 23.3404 44.2768 23.3124 44.5497 23.4084C44.9789 23.5593 45.2454 23.8263 45.4346 24.2945C45.6475 24.8211 45.7478 25.5828 45.7293 26.6155C45.7111 27.6337 45.5817 28.7989 45.4158 30.085C45.3764 30.3911 45.3348 30.7045 45.2925 31.0231C45.1602 32.019 45.0212 33.0658 44.9195 34.1007C44.6546 36.7943 44.5961 39.7493 45.7124 42.1369C46.287 43.3656 47.1676 44.4361 48.4482 45.2314C49.7165 46.019 51.3132 46.4975 53.2719 46.6553L53.3738 45.3918L53.2719 46.6553C56.5964 46.923 60.1758 45.6937 63.2334 43.8242C66.299 41.9499 69.0065 39.3316 70.5493 36.5988C70.5493 36.5987 70.5494 36.5986 70.5494 36.5985L69.4454 35.9755C69.8781 35.2094 70.228 34.0484 70.6071 32.7901C71.6808 29.2275 72.9893 24.8853 77.0781 26.5181C79.1347 27.3396 79.8749 29.5089 79.015 31.4562M107.881 72.2247L76.6077 27.6952L77.0781 26.5181L76.6078 27.6953C77.9368 28.2262 78.4522 29.5919 77.8555 30.9438M107.881 72.2247C105.367 75.2255 101.607 77.2092 98.1506 77.2585C96.1554 77.287 94.203 76.6647 92.724 75.143C91.2542 73.6309 90.3947 71.3782 90.2717 68.4177L90.2717 68.4175C90.1254 64.884 91.2688 62.7493 92.8011 60.9384C93.266 60.389 93.8001 59.8336 94.3147 59.2986C94.5798 59.0229 94.8397 58.7526 95.0822 58.4915C95.8327 57.6831 96.5474 56.8322 97.171 55.7922L97.1711 55.792C97.5528 55.1557 97.7237 54.3484 97.6159 53.6866C97.5178 53.0847 97.211 52.6415 96.577 52.4217C96.2865 52.3211 95.8631 52.3225 95.2022 52.589C94.5375 52.8571 93.7666 53.3404 92.8765 54.0046C92.0509 54.6207 91.1837 55.3451 90.2552 56.1208C90.1893 56.1759 90.123 56.2313 90.0565 56.2868C89.0652 57.1146 88.0123 57.9877 86.9342 58.7764C84.8249 60.3193 82.3828 61.7234 79.8294 61.6987C77.1199 61.6726 74.7013 60.0671 72.6421 56.58C70.9759 53.7585 70.2055 51.2096 70.106 48.8174C70.0066 46.4259 70.5817 44.2864 71.461 42.2938C72.3027 40.3868 73.4467 38.567 74.5612 36.7942C74.5983 36.7351 74.6354 36.6761 74.6724 36.6172C75.8393 34.7604 76.9767 32.9315 77.8555 30.9438M107.881 72.2247L73.7338 55.9354C69.0318 47.9731 72.2037 42.9268 75.6549 37.4362C76.8457 35.5418 78.0697 33.5944 79.015 31.4562M79.015 31.4562L77.8555 30.9438M79.015 31.4562L77.8553 30.9442C77.8553 30.9441 77.8554 30.9439 77.8555 30.9438" stroke="url(#paint0_linear_4234_3440)" stroke-width="2.53539"/>
<path d="M32.4905 66.9678C31.1264 66.4364 29.6576 65.9786 28.2412 65.5371C27.8208 65.406 27.4049 65.2764 26.9978 65.1467C25.18 64.5677 23.5075 63.9798 22.1075 63.2238C20.7148 62.4718 19.679 61.5988 19.0484 60.4972C18.5665 59.6554 18.2741 58.5977 18.3159 57.2084C41.5015 61.1567 66.5276 76.4389 82.8319 93.2731L79.3946 96.0438C78.1444 95.1187 76.9003 94.1936 75.6595 93.2711C62.0571 83.1573 48.8581 73.3434 32.4905 66.9678Z" stroke="url(#paint1_linear_4234_3440)" stroke-width="2.53539"/>
<defs>
<linearGradient id="paint0_linear_4234_3440" x1="114.475" y1="38.5221" x2="77.9791" y2="87.6182" gradientUnits="userSpaceOnUse">
<stop offset="0.0587783" stop-color="#FE6032"/>
<stop offset="1" stop-color="#FE6032" stop-opacity="0.37"/>
</linearGradient>
<linearGradient id="paint1_linear_4234_3440" x1="80.0318" y1="81.7591" x2="72.0436" y2="94.7096" gradientUnits="userSpaceOnUse">
<stop offset="0.0587783" stop-color="#FE6032"/>
<stop offset="1" stop-color="#FE6032" stop-opacity="0.37"/>
</linearGradient>
</defs>
</svg>
