<svg width="143" height="119" viewBox="0 0 143 119" fill="none" xmlns="http://www.w3.org/2000/svg">
<g opacity="0.6">
<path d="M9.68287 30.5283C8.384 37.2799 7.29806 43.3073 5.97789 49.4624C5.72237 50.6977 4.97711 52.4442 3.50789 52.5081C1.71928 52.5081 1.22954 50.6551 0.633338 49.3134C-1.70889 44.1805 2.69876 34.362 9.68287 30.5283Z" fill="#BCA28E"/>
<path d="M89.7659 71.08C86.1674 65.372 88.0411 54.9785 94.1522 50.0586C92.8747 57.7047 96.8778 64.9673 92.8747 71.9319C91.5119 72.9116 90.7666 71.5485 89.7659 71.08Z" fill="#DC8C73"/>
<path d="M108.078 70.2919C110.207 66.5647 109.994 61.5383 114.657 59.2168C116.041 62.0495 114.657 64.9673 115.062 67.7361C115.062 70.5901 115.956 73.4653 114.295 76.2554C112.635 79.0455 111.485 79.3436 109.611 76.5961C108.457 74.7054 107.921 72.5017 108.078 70.2919Z" fill="#ECC889"/>
<path d="M131.756 80.0674C132.522 86.1374 134.162 92.2074 129.924 97.8088C128.604 99.534 127.646 99.4701 126.475 97.8088C125.932 97.2496 125.518 96.5789 125.26 95.8433C125.003 95.1077 124.909 94.3248 124.984 93.5492C125.887 88.4938 128.24 83.81 131.756 80.0674Z" fill="#DC8C73"/>
<path d="M16.6242 55.8086C18.1467 60.6615 18.1467 65.8644 16.6242 70.7173C16.028 72.5703 14.3246 74.5723 12.3656 74.0825C11.3936 73.6623 10.6129 72.895 10.1759 71.9302C9.73894 70.9654 9.67697 69.8724 10.0021 68.8644C10.9984 63.997 13.2857 59.4874 16.6242 55.8086Z" fill="#ECC889"/>
<path d="M97.4525 95.3818C96.5582 98.7043 97.8996 102.644 94.876 105.52C94.003 106.35 93.13 107.479 91.7034 107.117C90.2767 106.755 89.8083 105.307 89.5741 103.901C89.1269 101.281 93.1939 92.0379 95.3871 90.5897C96.6859 89.759 97.1544 90.3128 97.2821 91.5481C97.4099 92.7834 97.3886 94.0187 97.4525 95.3818Z" fill="#BCA28E"/>
<path d="M60.4453 62.7314C60.8682 57.1771 62.8786 51.8615 66.237 47.418C69.3458 52.5295 68.558 61.0701 64.9169 64.8825C62.2552 66.5651 62.0849 63.1148 60.4453 62.7314Z" fill="#DC8C73"/>
<path d="M75.1375 102.602C76.5429 106.052 76.3512 109.864 77.8204 113.251C78.587 115.104 78.6934 118.192 76.0105 118.873C73.3276 119.555 71.7519 117.383 70.9641 114.955C70.4462 112.711 70.5622 110.367 71.2992 108.186C72.0362 106.005 73.3652 104.071 75.1375 102.602Z" fill="#BCA28E"/>
<path d="M12.5361 6.60996C12.7226 9.5959 12.7226 12.5906 12.5361 15.5765C12.1741 18.0684 10.8965 21.0928 8.02196 20.3899C7.41952 20.1589 6.87241 19.8036 6.4162 19.3473C5.95998 18.8909 5.60487 18.3437 5.37393 17.7411C5.14299 17.1385 5.04139 16.494 5.07573 15.8495C5.11008 15.2051 5.27959 14.5751 5.57326 14.0005C6.41567 11.0584 7.96552 8.36747 10.0874 6.1627C10.7688 5.56635 11.365 4.39495 12.5148 4.97001C13.6646 5.54506 12.6638 6.82294 12.5361 6.60996Z" fill="#DC8C73"/>
<path d="M23.4808 18.75C26.6747 18.75 25.2907 21.7318 26.2701 23.18C25.4561 24.9507 25.1255 26.9054 25.3119 28.8454C25.332 29.9847 24.996 31.1019 24.351 32.0411C23.7059 32.9803 22.7839 33.6947 21.7134 34.0847C21.2783 34.3203 20.7676 34.3741 20.2929 34.2345C19.8182 34.0948 19.4179 33.773 19.1796 33.3393C18.4916 32.4574 18.0834 31.3897 18.0075 30.2737C17.9316 29.1577 18.1915 28.0446 18.7537 27.0776C20.3294 24.2023 21.9051 21.4762 23.4808 18.75Z" fill="#DC8C73"/>
<path d="M36.7464 53.4236C36.0437 55.4043 36.2779 57.8323 34.2977 58.2796C31.9767 58.812 30.5288 56.8952 29.6132 54.9784C28.4421 52.4439 30.3798 45.9692 32.6155 44.3292C33.7015 43.5199 34.5745 43.1365 34.9577 44.9256C35.0298 45.1907 35.0797 45.4615 35.1068 45.7349C35.0089 48.394 35.5723 51.0359 36.7464 53.4236Z" fill="#DC8C73"/>
<path d="M74.6906 70.5685C76.3089 69.1841 77.7142 68.9924 78.5872 71.3565C78.5872 73.8271 78.7789 76.319 78.7576 78.7896C78.7852 79.7736 78.5208 80.7437 77.9978 81.5776C77.4749 82.4115 76.7168 83.0718 75.8191 83.4752C75.2937 83.824 74.6532 83.9546 74.0332 83.8393C73.4132 83.724 72.8624 83.3719 72.4974 82.8576C71.8782 82.1033 71.484 81.1898 71.3597 80.2218C71.2354 79.2537 71.3862 78.2703 71.7947 77.3839C72.8594 75.1689 73.7324 72.8474 74.6906 70.5685Z" fill="#DC8C73"/>
<path d="M61.2545 90.9301C59.9343 92.5275 61.0416 95.5305 58.0393 95.4028C56.9698 95.4066 55.9381 95.0079 55.1491 94.2858C54.36 93.5636 53.8716 92.571 53.7807 91.5052C53.5625 89.8498 53.7086 88.1667 54.2088 86.5737C54.709 84.9807 55.5512 83.5163 56.6765 82.283C57.2301 81.6867 57.9328 81.0264 58.8058 81.3033C59.6788 81.5802 59.5937 82.6664 59.5937 83.4331C59.5447 86.0286 60.114 88.5984 61.2545 90.9301Z" fill="#DC8C73"/>
<path d="M43.7514 70.8881C43.6069 72.9532 43.3438 75.0083 42.9635 77.0433C42.346 79.5991 40.3232 81.6437 37.9171 80.8131C35.511 79.9824 35.3406 76.9794 36.2988 74.6579C37.1811 72.7766 38.2894 71.01 39.5992 69.3972C40.3658 68.3323 41.1962 66.6284 42.708 67.2674C44.2198 67.9063 43.4746 69.5889 43.7514 70.8881Z" fill="#BCA28E"/>
<path d="M112.975 101.089C113.822 104.427 114.167 107.872 113.998 111.312C114.059 112.226 113.789 113.131 113.238 113.863C112.687 114.594 111.89 115.102 110.995 115.295C110.014 115.239 109.085 114.835 108.375 114.156C107.665 113.477 107.22 112.567 107.12 111.589C106.46 108.245 109.483 102.729 112.975 101.089Z" fill="#DC8C73"/>
<path d="M136.547 55.9152L139.166 53.2529C141.699 55.8513 141.678 59.3868 142.402 62.5816C142.828 64.4984 141.274 65.8615 139.741 66.8412C139.546 66.99 139.324 67.0982 139.087 67.1596C138.85 67.2209 138.603 67.2341 138.361 67.1984C138.119 67.1627 137.886 67.0787 137.677 66.9515C137.468 66.8243 137.286 66.6564 137.143 66.4578C136.375 65.9634 135.779 65.2438 135.436 64.3974C135.093 63.551 135.02 62.6192 135.226 61.7296C136.112 59.9203 136.564 57.9296 136.547 55.9152Z" fill="#DC8C73"/>
<path d="M19.201 93.294C19.1609 91.7426 19.528 90.2079 20.2656 88.8426C21.0322 87.3092 22.2459 85.8822 24.1622 86.3294C26.0786 86.7767 24.5881 88.4593 24.9288 89.5029C25.5029 91.0311 25.8751 92.6278 26.036 94.2524C26.036 95.9562 26.5045 98.2138 23.9067 98.512C22.851 98.6513 21.7831 98.3664 20.937 97.7196C20.0909 97.0729 19.5356 96.1172 19.3926 95.0617C19.2672 94.4808 19.203 93.8883 19.201 93.294Z" fill="#DC8C73"/>
<path d="M83.6975 32.3594C86.2313 37.5774 85.0176 47.2681 81.5682 51.1018C80.3971 52.4436 79.8435 52.3158 78.7575 51.1018C78.1 50.3957 77.6109 49.5499 77.3269 48.6277C77.043 47.7055 76.9715 46.731 77.1179 45.7773C78.3502 40.8941 80.5915 36.3233 83.6975 32.3594Z" fill="#BCA28E"/>
<path d="M109.355 31.5293C111.996 36.4918 111.059 45.7778 108.078 49.505C106.438 51.5283 105.438 50.8894 104.288 49.292C103.799 48.7086 103.446 48.0237 103.254 47.2869C103.063 46.5502 103.038 45.7801 103.18 45.0324C104.2 40.1249 106.31 35.5098 109.355 31.5293Z" fill="#BCA28E"/>
<path d="M54.5684 27.6953C55.0323 30.2998 54.944 32.9727 54.3095 35.541C53.6749 38.1092 52.5081 40.5155 50.8847 42.6041C49.7349 44.2227 47.2436 45.2663 45.7105 44.0311C45.0234 43.2224 44.6461 42.1957 44.6461 41.1345C44.6461 40.0732 45.0234 39.0466 45.7105 38.2379C48.1381 34.3139 51.1218 30.7627 54.5684 27.6953Z" fill="#BCA28E"/>
<path d="M131.053 28.0361C133.374 32.7856 132.395 37.1305 132.523 41.3688C132.491 41.7814 132.367 42.1817 132.161 42.5402C131.309 44.4997 129.84 46.7999 127.902 46.4378C126.856 45.9972 126.009 45.1871 125.522 44.1619C125.035 43.1367 124.943 41.9682 125.262 40.879C126.139 36.1967 128.125 31.7929 131.053 28.0361Z" fill="#BCA28E"/>
<path d="M44.4755 14.32C44.318 16.567 44.0121 18.8011 43.5599 21.0077C43.4818 21.5656 43.2938 22.1024 43.0068 22.5872C42.7198 23.0719 42.3396 23.4949 41.8881 23.8316C41.4366 24.1684 40.9227 24.4122 40.3764 24.5489C39.83 24.6857 39.262 24.7127 38.7051 24.6284C36.3629 23.9894 35.937 21.1568 36.8313 18.9418C37.7988 16.7916 39.0136 14.7617 40.4511 12.8931C41.1325 11.9346 41.9842 10.4012 43.2831 10.7632C44.944 11.2531 44.2839 13.106 44.4755 14.32Z" fill="#BCA28E"/>
<path d="M75.5635 13.2553C75.3699 15.3499 75.0284 17.4281 74.5414 19.4744C74.4326 20.0255 74.2114 20.5483 73.8917 21.0102C73.5719 21.472 73.1605 21.863 72.683 22.1587C72.2055 22.4545 71.6722 22.6487 71.1164 22.7292C70.5606 22.8096 69.9941 22.7747 69.4524 22.6266C68.9418 22.3856 68.4903 22.0354 68.1299 21.6007C67.7695 21.166 67.509 20.6574 67.3668 20.1108C67.2246 19.5643 67.2042 18.9932 67.307 18.4379C67.4099 17.8826 67.6334 17.3567 67.9619 16.8973C69.0995 15.0003 70.4264 13.2234 71.9224 11.5941C72.6037 10.7847 73.4555 9.59205 74.6266 10.018C76.1597 10.657 75.2654 12.1904 75.5635 13.2553Z" fill="#ECC889"/>
<path d="M65.4065 5.50261C65.7472 8.31398 65.5343 10.8059 62.4255 12.0838C61.9328 12.3404 61.3627 12.4062 60.8245 12.2687C60.2863 12.1311 59.8177 11.7999 59.5084 11.3383C57.3791 8.73994 58.5502 6.54623 60.0833 4.20342C61.1692 2.49956 61.8719 -0.418295 63.9799 0.0502663C66.4286 0.625318 65.2362 3.56448 65.4065 5.50261Z" fill="#DC8C73"/>
<path d="M99.8162 22.9883C99.8532 23.4824 99.7812 23.9787 99.6055 24.442C99.4297 24.9053 99.1545 25.3244 98.7991 25.6697C98.4437 26.015 98.017 26.2781 97.5489 26.4404C97.0808 26.6027 96.5827 26.6602 96.09 26.609C93.9607 26.609 93.0238 24.8625 92.6618 23.0735C92.3637 21.6039 96.5797 16.2793 97.5166 16.684C100.093 18.0684 99.1136 20.901 99.8162 22.9883Z" fill="#DC8C73"/>
</g>
</svg>
