<svg width="332" height="374" viewBox="0 0 332 374" fill="none" xmlns="http://www.w3.org/2000/svg">
<path d="M545.699 139.162C521.467 146.065 496.547 149.957 471.774 154.438C445.378 159.213 418.343 158.409 392.192 164.688C353.427 173.997 307.353 186.817 285.072 222.048C262.77 257.315 260.49 300.528 252.291 339.963C246.613 367.275 237.344 394.657 227.27 420.767C220.962 437.114 211.067 447.904 197.45 459.228C179.85 473.863 155.351 490.286 131.081 490.295C121.565 490.298 112.182 490.193 102.672 489.713" stroke="url(#paint0_linear_3279_3592)" stroke-opacity="0.2" stroke-width="10" stroke-linecap="round"/>
<path d="M513.865 103.468C489.691 110.374 464.832 114.27 440.119 118.754C413.786 123.532 386.818 122.73 360.731 129.013C322.059 138.327 276.096 151.153 253.865 186.386C231.611 221.655 229.33 264.868 221.145 304.304C215.477 331.616 206.226 359 196.172 385.11C189.878 401.458 180.005 412.249 166.419 423.575C148.86 438.212 124.419 454.638 100.208 454.65C90.7157 454.654 81.3557 454.551 71.8693 454.071" stroke="url(#paint1_linear_3279_3592)" stroke-opacity="0.2" stroke-width="10" stroke-linecap="round"/>
<path d="M485.962 70.98C461.489 77.9807 436.322 81.9296 411.304 86.4753C384.646 91.3187 357.345 90.5084 330.935 96.8771C291.785 106.318 245.253 119.319 222.745 155.027C200.214 190.771 197.902 234.565 189.613 274.531C183.873 302.211 174.506 329.962 164.326 356.425C157.953 372.993 147.957 383.929 134.203 395.407C116.426 410.243 91.6817 426.891 67.1719 426.904C57.5622 426.909 48.0865 426.804 38.483 426.319" stroke="url(#paint2_linear_3279_3592)" stroke-opacity="0.2" stroke-width="10" stroke-linecap="round"/>
<defs>
<linearGradient id="paint0_linear_3279_3592" x1="114.761" y1="303.856" x2="533.216" y2="331.074" gradientUnits="userSpaceOnUse">
<stop stop-color="#B2E7E7"/>
<stop offset="1" stop-color="#FFEEFE"/>
</linearGradient>
<linearGradient id="paint1_linear_3279_3592" x1="83.9583" y1="268.214" x2="501.383" y2="295.366" gradientUnits="userSpaceOnUse">
<stop stop-color="#B2E7E7"/>
<stop offset="1" stop-color="#FFEEFE"/>
</linearGradient>
<linearGradient id="paint2_linear_3279_3592" x1="50.7346" y1="237.964" x2="473.312" y2="265.45" gradientUnits="userSpaceOnUse">
<stop stop-color="#B2E7E7"/>
<stop offset="1" stop-color="#FFEEFE"/>
</linearGradient>
</defs>
</svg>
