<svg width="221" height="258" viewBox="0 0 221 258" fill="none" xmlns="http://www.w3.org/2000/svg">
<g opacity="0.4">
<path d="M22.9085 99.659C23.3574 98.898 23.5015 97.9942 23.3117 97.13C23.1011 96.3011 22.5715 95.5893 21.8389 95.1506C21.47 94.9288 21.0601 94.7846 20.6342 94.7266C20.2082 94.6686 19.775 94.6982 19.361 94.8134C18.9503 94.9198 18.5649 95.1072 18.2275 95.3647C17.89 95.6222 17.6072 95.9446 17.3955 96.313L-11.4695 147.577C-11.6743 147.946 -11.7315 148.38 -11.6295 148.79C-11.5811 149.001 -11.4903 149.2 -11.3625 149.374C-11.2348 149.549 -11.0729 149.696 -10.8867 149.805C-10.5165 150.025 -10.0754 150.089 -9.65849 149.985C-9.24163 149.882 -8.88249 149.617 -8.6586 149.25L22.9085 99.659Z" fill="#FCD7DB"/>
<path d="M125.107 229.927L156.661 180.285C156.888 179.92 157.039 179.514 157.106 179.089C157.173 178.665 157.153 178.231 157.049 177.814C156.945 177.397 156.759 177.005 156.501 176.662C156.242 176.318 155.918 176.03 155.547 175.815C155.178 175.593 154.768 175.449 154.342 175.391C153.916 175.333 153.483 175.362 153.069 175.478C152.658 175.584 152.273 175.771 151.935 176.029C151.598 176.286 151.315 176.609 151.104 176.977L122.29 228.228C122.08 228.596 122.022 229.031 122.13 229.441C122.243 229.866 122.52 230.228 122.898 230.45C123.261 230.673 123.697 230.744 124.111 230.646C124.525 230.547 124.883 230.289 125.107 229.927Z" fill="#FCD7DB"/>
<path d="M46.5928 108.899C46.8247 108.531 46.9805 108.119 47.0508 107.689C47.1212 107.259 47.1047 106.82 47.0023 106.396C46.9008 105.984 46.7182 105.597 46.4653 105.257C46.2123 104.917 45.8942 104.631 45.5296 104.416C44.7898 103.974 43.9065 103.841 43.0709 104.047C42.2388 104.286 41.5292 104.834 41.0862 105.579L12.298 156.823C12.0798 157.194 12.0159 157.637 12.1202 158.055C12.2244 158.473 12.4885 158.833 12.8552 159.058C13.2207 159.277 13.6574 159.342 14.07 159.239C14.4827 159.136 14.8378 158.874 15.0577 158.509L46.5928 108.899Z" fill="#FCD7DB"/>
<path d="M132.228 157.781C131.814 157.887 131.427 158.077 131.09 158.34C130.753 158.602 130.473 158.931 130.269 159.307L101.397 210.545C101.227 210.916 101.199 211.337 101.318 211.729C101.438 212.12 101.696 212.454 102.045 212.667C102.394 212.879 102.808 212.957 103.209 212.883C103.61 212.81 103.97 212.591 104.221 212.269L135.769 162.71C136.005 162.339 136.162 161.923 136.231 161.488C136.301 161.053 136.28 160.608 136.172 160.181C136.078 159.76 135.9 159.361 135.648 159.01C135.397 158.659 135.078 158.363 134.709 158.139C134.341 157.914 133.931 157.767 133.504 157.706C133.078 157.644 132.644 157.67 132.228 157.781Z" fill="#FCD7DB"/>
<path d="M78.3792 208.452C78.5748 208.123 78.7037 207.759 78.7586 207.38C78.8135 207.001 78.7933 206.615 78.6992 206.244C78.6728 206.024 78.619 205.808 78.539 205.602L70.8288 190.389C82.3269 177.59 96.904 157.938 113.958 132.076L186.596 196.151C186.799 196.33 187.038 196.463 187.296 196.539C187.555 196.616 187.828 196.635 188.094 196.596C188.357 196.551 188.607 196.451 188.828 196.302C189.049 196.152 189.235 195.958 189.375 195.731L196.046 184.626C196.3 184.207 196.468 183.74 196.538 183.253C196.609 182.767 196.58 182.271 196.455 181.796C196.428 181.477 196.351 181.165 196.224 180.871L177.141 146.337L181.808 138.434L181.879 138.171L182.032 138.132L182.96 134.981C183.037 134.76 183.044 134.52 182.979 134.294C182.94 134.125 182.865 133.967 182.76 133.828C182.655 133.69 182.523 133.575 182.371 133.491L177.326 130.274C177.079 130.121 176.789 130.055 176.501 130.088C176.213 130.12 175.944 130.248 175.738 130.452L173.401 132.753L173.273 132.785L173.042 132.843L171.372 135.633L163.328 120.94L167.931 113.762L168.021 113.467L168.149 113.435L169.077 110.284C169.134 110.059 169.141 109.824 169.096 109.597C169.004 109.252 168.784 108.956 168.482 108.768L162.463 105.139C162.215 104.986 161.924 104.922 161.636 104.959C161.348 104.996 161.081 105.131 160.881 105.342L158.365 107.797L157.117 109.882L143.624 85.2236C153.739 68.1856 162.957 51.9167 167.285 43.5251C171.254 35.6595 174.755 24.1722 172.603 15.5407C172.144 13.5008 171.28 11.574 170.062 9.87575C168.844 8.17746 167.297 6.74257 165.514 5.65699C150.147 -3.6088 134.277 17.511 131.242 21.8148C126.031 29.2807 116.416 44.83 106.006 62.4326L77.6425 61.919L78.9612 59.6801L79.9277 56.3558C80.0045 56.1344 80.0112 55.8945 79.9469 55.6689C79.8653 55.3333 79.6562 55.0427 79.3641 54.8592L73.3453 51.2301C73.0928 51.0804 72.7986 51.0174 72.5074 51.0506C72.2162 51.0838 71.9439 51.2114 71.7318 51.4141L69.2222 53.7861L64.5105 61.6186L47.8315 61.3841L49.5792 58.6837L49.6752 58.4141L49.6368 58.26L50.5649 55.109C50.6291 54.8854 50.6357 54.6491 50.5841 54.4221C50.5441 54.2531 50.4693 54.0943 50.3646 53.956C50.2598 53.8176 50.1273 53.7028 49.9757 53.6187L44.8789 50.5238C44.6317 50.3709 44.3398 50.3076 44.0519 50.3446C43.764 50.3816 43.4977 50.5166 43.2975 50.7271L40.9607 53.0287L40.9991 53.1828L40.7686 53.2403L36.0314 61.1884L-3.28113 60.6214C-3.92834 60.6096 -4.56703 60.7684 -5.13332 61.082C-5.6996 61.3955 -6.17363 61.8529 -6.50791 62.4082L-13.1529 73.5059C-13.3974 73.924 -13.4687 74.4218 -13.3512 74.8924L-13.3128 75.0465C-13.2227 75.3017 -13.078 75.5341 -12.8888 75.7274C-12.6997 75.9206 -12.4706 76.07 -12.2179 76.1651L78.857 110.758C67.18 131.954 56.8738 153.882 48.002 176.407L30.3562 176.659C29.8745 176.674 29.4045 176.811 28.9903 177.057C28.576 177.304 28.231 177.651 27.9874 178.068L19.5755 192.117C19.4816 192.267 19.4195 192.435 19.3931 192.611C19.3667 192.786 19.3765 192.966 19.422 193.137L19.4604 193.291C19.5347 193.487 19.6532 193.662 19.8066 193.804C19.9599 193.945 20.1439 194.05 20.344 194.108L42.2674 200.648C42.2911 201.538 42.4114 202.423 42.6262 203.287C42.7587 204.002 43.0327 204.684 43.4319 205.292C43.8311 205.9 44.3475 206.422 44.9507 206.827C46.0481 207.339 47.2514 207.581 48.46 207.531C49.6686 207.481 50.8473 207.142 51.8976 206.542L67.8033 222.767C67.9498 222.916 68.1279 223.029 68.3243 223.098C68.5206 223.167 68.73 223.191 68.9366 223.167C69.1381 223.145 69.3318 223.077 69.5028 222.969C69.6738 222.86 69.8174 222.713 69.9226 222.539L78.3792 208.452ZM161.009 31.6651L159.888 30.1163C156.691 25.7869 151.912 22.9053 146.602 22.1053L144.739 21.8331C144.604 21.8175 144.475 21.7649 144.368 21.6809C144.261 21.5969 144.179 21.4849 144.131 21.3572C144.103 21.2438 144.101 21.1258 144.124 21.0115C144.147 20.8973 144.196 20.7896 144.265 20.6961L146.314 18.0024C146.665 17.5522 147.127 17.2011 147.654 16.9835C148.182 16.7659 148.757 16.6893 149.323 16.761C152.118 17.0873 154.812 18.0088 157.225 19.4636C159.638 20.9185 161.714 22.8732 163.313 25.1968C163.643 25.6692 163.846 26.2184 163.904 26.7919C163.961 27.3653 163.87 27.9437 163.64 28.4715L162.232 31.5512C162.183 31.6787 162.098 31.7894 161.988 31.8701C161.878 31.9507 161.747 31.9979 161.611 32.0062C161.491 32.0006 161.374 31.9668 161.27 31.9075C161.165 31.8483 161.076 31.7652 161.009 31.6651Z" fill="#FCD7DB"/>
</g>
</svg>
