<svg width="212" height="214" viewBox="0 0 212 214" fill="none" xmlns="http://www.w3.org/2000/svg">
<g opacity="0.1">
<path d="M166.077 61.92C165.454 61.2928 165.093 60.4527 165.065 59.5694C165.067 58.7152 165.407 57.8965 166.011 57.2927C166.315 56.9878 166.678 56.7479 167.077 56.5877C167.477 56.4275 167.905 56.3503 168.335 56.3607C168.761 56.3634 169.181 56.4507 169.572 56.6176C169.963 56.7845 170.316 57.0277 170.612 57.3328L211.215 99.9257C211.504 100.233 211.666 100.639 211.667 101.062C211.672 101.278 211.632 101.492 211.551 101.693C211.47 101.893 211.348 102.075 211.194 102.226C210.889 102.529 210.476 102.7 210.046 102.701C209.615 102.702 209.201 102.534 208.894 102.233L166.077 61.92Z" fill="#f6a903"/>
<path d="M98.7225 213.044L55.9052 172.678C55.5957 172.381 55.3493 172.024 55.1805 171.629C55.0118 171.234 54.9242 170.81 54.923 170.38C54.9218 169.951 55.007 169.526 55.1736 169.13C55.3402 168.734 55.5846 168.376 55.8925 168.077C56.1964 167.772 56.5593 167.532 56.9589 167.372C57.3585 167.212 57.7865 167.135 58.2169 167.145C58.6419 167.148 59.0622 167.235 59.4531 167.402C59.844 167.569 60.1978 167.812 60.4937 168.117L101.043 210.71C101.337 211.015 101.5 211.423 101.496 211.846C101.489 212.285 101.31 212.704 100.997 213.011C100.699 213.316 100.292 213.49 99.8663 213.496C99.4402 213.502 99.0291 213.34 98.7225 213.044Z" fill="#f6a903"/>
<path d="M145.334 76.6542C145.018 76.3542 144.766 75.9939 144.593 75.5947C144.419 75.1954 144.327 74.7654 144.323 74.33C144.32 73.9066 144.403 73.4871 144.565 73.0961C144.728 72.7051 144.967 72.3505 145.268 72.0533C145.879 71.4442 146.704 71.0999 147.566 71.095C148.433 71.1229 149.257 71.4799 149.87 72.0934L190.392 114.687C190.695 114.992 190.866 115.405 190.867 115.836C190.868 116.266 190.7 116.68 190.399 116.987C190.097 117.288 189.689 117.458 189.263 117.459C188.837 117.46 188.428 117.293 188.125 116.993L145.334 76.6542Z" fill="#f6a903"/>
<path d="M74.1265 144.916C74.5542 144.918 74.977 145.007 75.3687 145.179C75.7604 145.35 76.1125 145.601 76.4034 145.915L117.006 188.481C117.262 188.799 117.392 189.2 117.372 189.608C117.352 190.017 117.183 190.403 116.896 190.694C116.61 190.986 116.226 191.161 115.819 191.188C115.411 191.216 115.008 191.092 114.685 190.841L71.8945 150.555C71.5745 150.252 71.3197 149.888 71.1458 149.484C70.9718 149.08 70.8825 148.644 70.8831 148.204C70.8712 147.773 70.9466 147.343 71.1048 146.942C71.263 146.541 71.5007 146.175 71.8037 145.868C72.1066 145.561 72.4686 145.318 72.8678 145.155C73.267 144.991 73.6951 144.91 74.1265 144.916Z" fill="#f6a903"/>
<path d="M138.852 180.83C138.582 180.56 138.367 180.239 138.221 179.885C138.075 179.532 138 179.153 138 178.77C137.972 178.551 137.971 178.329 137.999 178.109L141.76 161.492C127.454 151.907 108.478 136.437 85.5738 115.558L30.7142 195.356C30.5616 195.58 30.362 195.766 30.1294 195.904C29.8968 196.042 29.6369 196.127 29.3679 196.153C29.1018 196.174 28.8344 196.138 28.5834 196.048C28.3323 195.957 28.1035 195.815 27.912 195.629L18.711 186.505C18.3607 186.161 18.0835 185.749 17.896 185.295C17.7084 184.842 17.6144 184.355 17.6196 183.864C17.5674 183.548 17.5665 183.227 17.6169 182.912L27.6919 144.806L21.2217 138.292L21.0888 138.055L20.9302 138.055L19.2564 135.23C19.1276 135.035 19.0623 134.804 19.0695 134.57C19.0669 134.396 19.1006 134.224 19.1685 134.065C19.2364 133.905 19.3369 133.762 19.4636 133.643L23.5766 129.295C23.7786 129.087 24.0447 128.952 24.3323 128.913C24.6199 128.874 24.9123 128.932 25.1626 129.079L27.9966 130.737L28.1288 130.737L28.3668 130.736L30.6737 133.03L34.8862 116.836L28.6559 111.009L28.4965 110.745L28.3643 110.745L26.6906 107.921C26.58 107.717 26.5161 107.491 26.5036 107.26C26.5091 106.904 26.6499 106.563 26.8976 106.307L31.8551 101.322C32.0578 101.113 32.3259 100.981 32.6146 100.946C32.9033 100.912 33.1951 100.978 33.4412 101.132L36.487 102.896L38.2105 104.61L45.2748 77.4332C31.274 63.4043 18.3324 49.9014 12.0723 42.832C6.28931 36.1844 0.0731869 25.9153 0.0485628 17.0305C-0.00597496 14.943 0.361266 12.866 1.1283 10.9237C1.89533 8.98148 3.04638 7.21396 4.51254 5.72701C17.1699 -7.00071 37.762 9.57487 41.7644 13.0014C48.6561 18.9584 61.8071 31.6675 76.2322 46.1711L103.659 38.744L101.83 36.898L100.076 33.9148C99.9474 33.7191 99.8821 33.4884 99.8894 33.2543C99.8863 32.9093 100.018 32.5768 100.257 32.3277L105.214 27.3427C105.423 27.1361 105.693 27.0032 105.984 26.9642C106.275 26.9252 106.571 26.9823 106.827 27.1267L109.846 28.8107L116.342 35.2448L132.487 30.9427L130.128 28.7545L129.968 28.5169L129.968 28.3583L128.294 25.5335C128.177 25.3327 128.113 25.1054 128.107 24.873C128.105 24.6996 128.138 24.5275 128.206 24.368C128.274 24.2084 128.375 24.0648 128.501 23.9464L132.694 19.7039C132.897 19.4954 133.165 19.3628 133.453 19.3283C133.742 19.2938 134.034 19.3595 134.28 19.5144L137.114 21.1724L137.114 21.3311L137.352 21.3304L143.902 27.8701L181.952 17.7163C182.578 17.5468 183.237 17.5445 183.864 17.7099C184.491 17.8752 185.063 18.2023 185.524 18.6584L194.699 27.7822C195.039 28.1273 195.23 28.592 195.231 29.0765L195.232 29.2351C195.207 29.5043 195.123 29.7647 194.987 29.998C194.85 30.2314 194.664 30.432 194.442 30.5859L114.448 86.3379C130.985 104.012 146.37 122.729 160.508 142.375L177.711 138.308C178.183 138.205 178.673 138.223 179.136 138.36C179.599 138.498 180.019 138.75 180.358 139.094L191.972 150.644C192.1 150.767 192.202 150.914 192.27 151.078C192.339 151.241 192.373 151.417 192.371 151.595L192.372 151.753C192.347 151.961 192.275 152.16 192.161 152.334C192.047 152.509 191.893 152.655 191.713 152.76L172.019 164.45C172.214 165.317 172.314 166.204 172.317 167.093C172.364 167.818 172.265 168.546 172.026 169.232C171.787 169.918 171.414 170.55 170.927 171.09C169.986 171.854 168.877 172.381 167.69 172.628C166.504 172.875 165.276 172.835 164.109 172.51L152.634 192.11C152.528 192.289 152.383 192.442 152.209 192.557C152.035 192.672 151.837 192.746 151.631 192.774C151.43 192.802 151.225 192.783 151.032 192.72C150.839 192.656 150.664 192.549 150.519 192.407L138.852 180.83ZM15.2623 29.8132L15.9713 28.0396C18.016 23.0658 21.9523 19.1076 26.9147 17.0354L28.6579 16.3166C28.7854 16.2685 28.8971 16.1861 28.9808 16.0786C29.0645 15.9711 29.1169 15.8425 29.1322 15.7071C29.131 15.5906 29.1042 15.4758 29.0536 15.3708C29.0031 15.2658 28.93 15.1733 28.8396 15.0997L26.1895 12.9916C25.7378 12.6414 25.2031 12.4143 24.6374 12.3324C24.0718 12.2506 23.4946 12.3168 22.9621 12.5246C20.3267 13.5235 17.9351 15.0742 15.9477 17.0726C13.9603 19.0711 12.423 21.4712 11.4387 24.1121C11.2341 24.6502 11.1713 25.2318 11.2562 25.8011C11.3411 26.3704 11.571 26.9084 11.9237 27.3633L14.0464 30.0017C14.1254 30.1132 14.2347 30.1997 14.3614 30.2509C14.4881 30.3021 14.6269 30.3159 14.7612 30.2906C14.8763 30.2559 14.9816 30.1946 15.0686 30.1116C15.1557 30.0287 15.222 29.9265 15.2623 29.8132Z" fill="#f6a903"/>
</g>
</svg>
