<svg width="210" height="266" viewBox="0 0 210 266" fill="none" xmlns="http://www.w3.org/2000/svg">
<path opacity="0.1" d="M273 17.0688C255.111 4.93347 228.104 -0.174064 206.848 2.8513C180.049 6.66578 159.716 21.1488 145.326 43.3402C138.015 54.6153 129.821 66.1846 127.014 79.6052C123.794 94.9962 124.052 111.876 125.059 127.512C126.512 150.06 147.058 167.27 167.703 171.864C181.078 174.841 191.327 174.776 203.762 168.361C205.58 167.424 210.56 164.67 210.912 162.025C211.904 154.578 203.175 145.591 197.949 141.42C186.08 131.948 165.34 128.358 150.933 126.688C136.493 125.013 120.747 123.907 106.386 126.739C91.4568 129.684 75.787 136.383 62.611 143.893C36.1077 158.999 22.6518 184.595 10.3482 211.478C-0.0835243 234.27 -0.070568 261.693 6.69594 285.501C9.11582 294.016 12.5381 302.464 14.6691 311" stroke="white" stroke-width="3" stroke-linecap="round"/>
</svg>
