<svg width="44" height="44" viewBox="0 0 44 44" fill="none" xmlns="http://www.w3.org/2000/svg">
<path d="M8.35391 15.9423C9.98565 22.3479 9.75002 23.9124 3.57294 27.1856L3.84778 27.7106C10.2616 24.4857 11.2663 25.4597 15.7746 30.1149L16.2967 29.8387C13.2425 23.9966 15.0497 21.9318 20.5556 18.8715L20.2808 18.3466C13.4928 21.9317 13.3511 20.0795 8.35391 15.9423Z" fill="#E50114"/>
<path d="M28.2266 4.77473C29.8578 11.1807 29.6221 12.7453 23.4454 16.0192L23.7202 16.5441C30.1336 13.3187 31.1382 14.2927 35.646 18.948L36.1681 18.6717C33.1144 12.8294 34.9216 10.7643 40.4272 7.70355L40.1524 7.17861C33.3648 10.7643 33.2232 8.91195 28.2266 4.77473Z" fill="#E50114"/>
<path d="M28.2266 24.757C29.8578 31.163 29.6221 32.7276 23.4454 36.0015L23.7202 36.5264C30.1336 33.301 31.1382 34.275 35.646 38.9303L36.1681 38.654C33.1144 32.8117 34.9216 30.7466 40.4272 27.6858L40.1524 27.1609C33.3648 30.7466 33.2232 28.8942 28.2266 24.757Z" fill="#E50114"/>
</svg>
